<svg width="48" height="48" viewBox="0 0 48 48" fill="none" xmlns="http://www.w3.org/2000/svg">
<path
    fill-rule="evenodd"
    clip-rule="evenodd"
    d="M48 24C48 37.2548 37.2548 48 24 48C10.7452 48 0 37.2548 0 24C0 10.7452 10.7452 0 24 0C37.2548 0 48 10.7452 48 24ZM27.37 18.8758L32.6805 18.0335C32.3378 16.5108 31.6027 15.3116 30.4749 14.436C29.3471 13.5605 27.7173 13.0561 25.5855 12.9228V11.5096H23.5013V12.9228C21.1601 13.0466 19.3971 13.6771 18.2122 14.8144C17.0273 15.9516 16.4349 17.3673 16.4349 19.0613C16.4349 20.2986 16.7299 21.3478 17.32 22.2091C17.91 23.0704 18.6071 23.6961 19.4113 24.0863C20.2155 24.4765 21.5788 24.9381 23.5013 25.4711V30.5103C22.8351 30.1868 22.3568 29.8156 22.0666 29.3968C21.7763 28.9781 21.5455 28.2976 21.3742 27.3554L15.6069 28.0264C15.7782 28.9781 16.0351 29.7894 16.3778 30.4604C16.7204 31.1313 17.2081 31.7571 17.841 32.3376C18.4739 32.9182 19.2257 33.3726 20.0965 33.7009C20.9674 34.0293 22.1023 34.2553 23.5013 34.379V37.0771H25.5855V34.379C26.7561 34.3314 27.7459 34.1768 28.5548 33.9151C29.3638 33.6533 30.1275 33.2322 30.8461 32.6517C31.5646 32.0711 32.1546 31.3478 32.6162 30.4818C33.0778 29.6157 33.3086 28.664 33.3086 27.6267C33.3086 25.8565 32.6662 24.3956 31.3814 23.2441C30.4106 22.3875 28.4787 21.5738 25.5855 20.803V16.6773C26.0804 16.9438 26.4349 17.2079 26.649 17.4696C26.8632 17.7313 27.1035 18.2 27.37 18.8758ZM22.2307 17.3483C22.4687 17.0532 22.8922 16.8058 23.5013 16.6059V20.2605C22.9017 20.0511 22.4806 19.7918 22.2379 19.4825C21.9952 19.1732 21.8739 18.8091 21.8739 18.3904C21.8739 17.9907 21.9928 17.6433 22.2307 17.3483ZM27.3628 29.7609C26.9869 30.1749 26.3945 30.4723 25.5855 30.6531V26.0849C26.5087 26.4085 27.1296 26.7582 27.4485 27.1342C27.7673 27.5101 27.9267 27.9217 27.9267 28.369C27.9267 28.8829 27.7387 29.3469 27.3628 29.7609Z"
    fill="#fcc501"
/>
</svg>
