<svg width="38" height="38" viewBox="0 0 38 38" fill="none" xmlns="http://www.w3.org/2000/svg">
<path opacity="0.75" fill-rule="evenodd" clip-rule="evenodd" d="M20.7303 36.6575C20.8341 36.4373 21.2956 36.402 21.5257 36.3648C22.507 36.1923 27.2435 34.7706 27.5674 34.8925C27.5478 35.0438 27.6359 34.9105 27.4667 35.0829C27.4348 35.1096 27.3167 35.2007 27.2783 35.2249L25.9726 36.0532C24.4004 37.0328 24.4887 37.2286 22.3866 36.9598C21.8278 36.8888 21.2534 36.8196 20.7303 36.6575ZM26.9839 30.6166C27.2659 31.1446 28.5729 33.1306 28.6043 33.5411C28.6504 34.1545 27.9548 34.2062 27.5513 34.3214C26.6121 34.5871 20.4354 36.1982 20.1888 36.1866C19.5888 36.1582 20.43 35.3098 20.5562 35.1638C21.3415 34.2402 22.4827 32.7307 23.2389 31.9858C23.4195 31.8022 23.4616 31.64 23.6536 31.4453C23.8138 31.2772 23.943 31.1014 24.0879 30.9237C24.3821 30.5661 24.6899 30.202 24.9883 29.8538C25.8494 28.8426 26.102 28.9648 26.9839 30.6166ZM30.4915 33.0168C30.3987 32.8232 31.2619 31.5613 31.4173 31.3218C31.5941 31.0322 31.7792 30.7613 31.9779 30.4839L34.433 26.6552C34.5511 26.479 34.5962 26.287 34.8258 26.2728C34.9699 26.4586 34.8849 26.5621 34.859 26.7846L34.7068 28.3335C34.6719 28.6455 34.5958 29 34.5494 29.3232C34.469 29.8386 34.5345 29.8014 34.3163 30.3153C33.9844 31.0883 33.2452 31.3596 32.6018 31.7948C32.2644 32.0199 31.9029 32.2283 31.5588 32.451C31.3076 32.6119 30.7637 33.0729 30.4915 33.0168ZM34.417 25.7435C34.42 25.9691 32.0022 29.5641 31.6794 30.0774C31.2309 30.7987 30.7311 31.5279 30.2565 32.2278C30.0572 32.5282 29.7824 33.1602 29.4051 33.2117C28.9586 33.2681 28.6184 32.5014 28.4358 32.1695C27.9169 31.262 27.3358 30.3504 26.7989 29.4516C26.4965 28.9391 26.5114 28.4609 27.0721 28.2075C27.5721 27.9777 28.0747 27.8147 28.5804 27.6219C29.0435 27.444 29.6805 27.2503 30.0906 27.0525C30.3025 26.9503 30.5942 26.855 30.8166 26.7762C31.0726 26.6868 31.3256 26.542 31.5834 26.4688L33.8552 25.6171C34.0463 25.542 34.4099 25.4234 34.417 25.7435ZM35.3188 27.3176C35.3102 26.8847 35.5465 25.352 35.6638 24.9549C35.7883 24.5373 35.8424 24.2558 36.0466 23.8566C36.1355 23.6888 36.2317 23.5005 36.3141 23.3303C36.3517 23.2554 36.5252 22.8369 36.5618 22.7965C36.5891 23.0274 35.3519 27.2449 35.3188 27.3176ZM30.2159 16.4985C30.5315 16.176 30.7753 16.6316 30.9086 16.8908L32.4121 19.7752C33.1265 20.946 33.7636 22.3469 34.4342 23.5786C34.6147 23.9058 34.7798 24.1383 34.6322 24.5046C34.4398 24.9663 34.3629 24.9296 33.902 25.1122C33.2589 25.3656 32.588 25.5813 31.96 25.8558C31.3771 26.1086 30.6337 26.3706 30.028 26.5606L28.083 27.334C26.187 28.1066 26.2994 27.8083 27.0349 25.7397C27.2219 25.2295 27.4282 24.7498 27.5716 24.2039L29.1539 19.5589C29.275 19.2677 29.3271 19.0667 29.3863 18.76C29.4242 18.5885 30.1062 16.6081 30.2159 16.4985ZM9.83274 34.6376C9.87153 34.5167 9.96256 34.5239 10.223 34.6026L11.6152 34.9641C11.9156 35.0462 12.2334 35.1426 12.5383 35.2226C12.7108 35.2642 12.8318 35.3137 12.9974 35.3644C13.1584 35.4173 13.3242 35.4565 13.4588 35.4994C14.2441 35.7563 15.7366 36.1091 16.2214 36.2839C16.4639 36.3713 16.9942 36.3426 17.0872 36.6098C16.888 36.74 15.4086 36.8178 15.036 36.8556C14.4493 36.9173 13.5446 37.0528 12.9876 36.9128C12.0371 36.6788 10.9501 35.631 10.1334 34.9636C10.0658 34.9111 9.99161 34.856 9.93094 34.7945C9.9027 34.7684 9.84145 34.6447 9.83274 34.6376ZM17.9475 36.0473C17.6927 36.2611 17.5272 36.1252 17.2508 36.0599C17.0585 36.0107 16.7689 35.9404 16.5836 35.8822C15.4519 35.5143 13.8402 35.1282 12.5751 34.7565C11.6811 34.4896 10.7934 34.2367 9.90112 33.986C9.43969 33.851 8.85627 33.701 9.21669 33.0278C9.48603 32.5176 11.3284 30.1535 11.8186 29.4517C12.0014 29.1876 12.0991 29.027 12.4323 28.9628C12.6783 28.9122 12.9108 29.0384 13.0592 29.2336L15.551 32.6062C15.6369 32.7237 15.7234 32.8181 15.8252 32.9223C15.9442 33.0522 15.9661 33.1495 16.0712 33.2974L17.5515 35.2906C17.753 35.5793 17.9284 35.6763 17.9475 36.0473ZM19.592 35.6175C19.3939 35.8719 19.009 36.0405 18.6987 35.9121C18.4412 35.8036 18.222 35.4269 18.0589 35.1991L16.1825 32.7045C15.987 32.4413 15.7768 32.0603 15.5804 31.8315C15.153 31.3339 14.6797 30.7222 14.316 30.1712L13.6928 29.3367C13.4991 29.0896 13.1952 28.7197 13.5374 28.4809C13.8049 28.2951 15.7234 28.4368 16.2525 28.454C16.577 28.4678 16.8495 28.4272 17.174 28.441C18.3826 28.505 19.5868 28.4861 20.7964 28.5157C21.3834 28.5277 22.0405 28.5854 22.6146 28.5809C23.2266 28.5752 23.832 28.567 24.4455 28.5889C25.8038 28.6319 24.3385 29.8607 23.7966 30.5818C23.2156 31.35 22.6597 31.8452 22.0044 32.7287C21.6468 33.2133 21.1758 33.6902 20.796 34.1742C20.4046 34.6694 19.9809 35.1291 19.592 35.6175ZM18.9929 19.6353C19.6168 19.2664 20.1431 20.3121 20.4062 20.7131C20.8017 21.3225 21.2606 21.9752 21.6832 22.5716C22.5565 23.7906 23.3655 25.086 24.2274 26.3161C24.459 26.6471 24.6313 26.9443 24.8785 27.2734C25.8347 28.5545 23.465 28.0573 22.7788 28.0931C21.5554 28.1667 20.1827 27.9944 18.9404 28.0261C18.3104 28.0405 17.6506 28.0011 17.0191 27.9879C16.3785 27.979 15.7395 27.9126 15.1023 27.9475C14.7748 27.9636 14.4467 27.9175 14.1261 27.9245C12.8303 27.9592 13.4768 27.1537 13.8741 26.684C14.0235 26.5041 14.2426 26.126 14.4043 25.9005C14.9534 25.1589 18.715 19.7978 18.9929 19.6353ZM35.8293 22.9852C35.6975 22.6685 35.916 21.4735 35.9635 21.1044L36.232 18.3529C36.2965 17.6805 36.3078 16.0746 36.5371 15.6462C36.7032 15.759 37.0314 17.485 37.077 17.6956C37.4667 19.704 37.4896 19.5965 36.6698 21.4051L36.2594 22.1989C36.1491 22.4167 36.0372 22.8622 35.8293 22.9852ZM31.2515 15.3634C31.4334 15.2189 35.2649 14.1145 35.623 14.2029C36.1869 14.3339 36.0648 14.8297 36.0244 15.2635C35.8667 17.0194 35.7394 18.8061 35.5398 20.5539C35.4925 20.9967 35.4563 21.4398 35.4135 21.8804C35.2785 23.1997 35.3626 24.3964 34.4501 22.6402C33.4318 20.6738 32.2871 18.6096 31.2905 16.6669C31.0812 16.2514 30.7837 15.7252 31.2515 15.3634ZM27.591 16.3967C27.9476 16.2871 28.27 16.2111 28.6228 16.0807C28.8566 15.9906 29.4049 15.7829 29.6065 15.9865C29.9056 16.2849 29.4475 17.2039 29.2746 17.7697C29.1798 18.0708 29.0506 18.2466 28.9522 18.6005L27.9885 21.6476C27.9265 21.8023 27.8752 21.7249 27.7982 22.0288C27.5046 23.2033 27.0206 24.3448 26.6387 25.4937C26.5034 25.8995 26.2501 26.8957 26.0505 27.2076C25.8047 27.5872 25.4223 27.3233 25.2499 27.0262L22.1573 22.4792C21.7467 21.9337 21.3239 21.2637 20.923 20.6909C20.5521 20.1603 19.8292 19.3115 20.2145 18.7908C20.4522 18.4662 23.7991 17.6012 24.428 17.3773C25.3871 17.0339 26.5703 16.713 27.591 16.3967ZM9.12578 15.7506C9.38064 15.4518 9.77173 15.7229 10.0589 15.8L12.6058 16.6659C13.7342 17.0751 14.9022 17.4142 16.0326 17.8281C16.5878 18.0371 17.1943 18.2383 17.757 18.4153C18.5891 18.6666 18.8062 19.0387 18.2496 19.8122L13.7529 26.0501C13.642 26.2057 13.5269 26.2669 13.4265 26.4458C12.3207 28.3867 12.1405 25.8572 11.6875 24.6455C11.4131 23.9152 10.5348 21.0301 10.2821 20.1531C10.1717 19.7864 10.0204 19.3657 9.93424 19.0043L9.24987 16.7804C9.17453 16.516 8.91209 16.0069 9.12578 15.7506ZM19.9562 7.93369C20.2432 7.59663 20.5904 7.9286 20.8409 8.13127L29.0754 14.6138C30.0693 15.3944 28.3829 15.6459 27.9246 15.8101C27.3114 16.0321 26.4229 16.313 25.7934 16.4747C25.0789 16.6548 24.3485 16.9333 23.6268 17.1338C22.9408 17.3284 22.1845 17.574 21.4958 17.7869C20.9866 17.9474 19.8477 18.525 19.6112 17.7083C19.5419 17.4694 19.7251 12.3016 19.7445 11.8212C19.7594 11.2579 19.7386 10.3598 19.8078 9.84404C19.8653 9.43606 19.7449 8.18314 19.9562 7.93369ZM11.6316 28.9517L9.9058 31.2823C9.61998 31.6585 9.27074 32.0766 9.00505 32.4488C8.65369 32.9474 8.23391 33.1726 7.85463 32.5383C7.55193 32.0373 7.25133 31.5409 6.96005 31.0287C6.38379 30.0184 5.75104 29.0409 5.18831 28.024C4.90364 27.5143 4.5706 26.9826 4.27481 26.4726C4.08532 26.1497 3.46397 25.2462 3.51724 24.914C3.8015 24.7656 3.86698 24.8134 4.18151 24.9512L11.1278 27.8099C11.6631 28.0114 11.9809 28.3632 11.6316 28.9517ZM7.1159 32.3724C6.90588 32.4056 6.24179 31.7724 6.05256 31.6083C4.74926 30.4945 3.90719 30.2821 3.37802 28.4998C3.23094 28.0032 3.09379 27.4678 2.92629 26.9867C2.78369 26.5731 2.80144 26.4908 2.74143 26.2359C2.69131 26.0274 2.67443 26.2456 2.62793 25.9842C2.51215 25.3136 1.6683 22.8943 1.69271 22.6442L2.34218 23.9995C2.90459 25.113 3.8115 26.5768 4.4361 27.6944C5.02256 28.7396 7.03192 31.8454 7.1159 32.3724ZM30.3466 5.90777C30.6506 5.93707 31.1191 6.73269 31.3122 7.00278C32.1486 8.18848 33.1817 9.50631 33.9653 10.6721C34.2479 11.092 35.6288 12.8039 35.6308 13.1492C35.6396 13.8259 34.3973 13.9427 33.8456 14.1066L31.6423 14.7209C31.1739 14.8503 30.6508 14.8585 30.5203 14.2405C30.4132 13.7473 30.4557 12.0526 30.4096 11.4392L30.2179 7.24108C30.2093 6.89337 30.0647 6.13452 30.3466 5.90777ZM33.2352 7.48282C34.0549 8.03525 34.3446 8.86034 34.6815 9.75349C34.7959 10.0559 35.3612 11.395 35.3338 11.5898C35.104 11.5304 34.4923 10.5996 34.2928 10.3155C34.0057 9.89777 31.3827 6.44099 31.3831 6.17407C31.4729 6.22723 31.6054 6.26549 31.7084 6.32363C31.9823 6.48095 32.8723 7.23785 33.2352 7.48282ZM8.04077 16.1434C8.43624 15.8278 8.58486 16.1818 8.71304 16.5513L9.3707 18.6915C9.47906 19.0535 9.54955 19.4168 9.67143 19.7723C9.89027 20.4159 10.2214 21.2721 10.3531 21.9293C10.4299 22.3066 10.9217 23.5677 11.0249 24.04C11.3892 25.7486 12.7273 27.9862 11.1625 27.3391L8.77125 26.3074C8.5865 26.2262 8.51619 26.2772 7.97997 26.025C7.23949 25.6727 5.69509 25.0952 4.8212 24.7392C2.94818 23.9683 2.95511 23.8741 4.09006 22.1803C4.7477 21.2048 5.37564 20.0904 6.05671 19.1547C6.43751 18.6362 7.80217 16.3322 8.04077 16.1434ZM2.56326 13.6092C2.78477 13.3094 2.96833 13.3514 3.28617 13.4479C3.51118 13.521 3.72808 13.5639 3.94167 13.6482L6.59129 14.5837C8.15015 15.035 7.90575 15.5275 7.11165 16.6993L5.88773 18.5608C5.79543 18.7699 5.63644 18.9772 5.5132 19.1785C5.19699 19.6942 3.21409 22.8298 3.02 22.8497C2.67628 22.8906 2.73704 21.6013 2.7284 21.3388C2.71232 20.8528 2.71039 20.2521 2.66515 19.7745C2.61843 19.2693 2.65043 18.7317 2.62173 18.2177C2.56731 17.3303 2.57402 15.8968 2.48202 15.0842C2.43677 14.6918 2.33484 13.918 2.56326 13.6092ZM18.6363 7.95162C19.5967 7.30683 19.4167 8.6479 19.3814 9.22679C19.3418 9.88149 19.3377 10.5418 19.318 11.204C19.2879 12.5125 19.1959 13.8905 19.206 15.191C19.2122 15.8009 19.1891 16.5896 19.1397 17.198C19.1107 17.6206 19.1782 17.8434 18.7365 18.0564C18.3783 18.2235 18.1705 18.091 17.8247 17.957C16.7129 17.5114 15.4683 17.2093 14.3429 16.7702C13.2176 16.3311 12.009 16.0116 10.875 15.5653C10.5623 15.4437 9.0397 15.2189 9.49926 14.583C9.6309 14.4003 11.0249 13.4272 11.2939 13.2691L13.1251 11.9149C13.4317 11.6819 13.797 11.4944 14.0813 11.2608C14.3746 11.0229 14.6424 10.8256 14.9507 10.6088L16.806 9.27137C17.3087 8.85296 18.0858 8.32495 18.6363 7.95162ZM25.3794 11.0899C25.1467 10.89 24.2566 10.3034 23.937 10.0205C23.6871 9.79488 23.5397 9.65034 23.2555 9.45822C22.7548 9.12652 22.3168 8.69073 21.841 8.34132C21.5596 8.13087 20.4409 7.43884 20.7079 7.02067C20.8308 6.83085 22.3195 6.56687 22.6104 6.50605C22.9526 6.43749 23.2702 6.37513 23.61 6.31339C23.9207 6.26004 24.2377 6.13553 24.573 6.07598C25.8382 5.8517 27.2113 5.50161 28.4802 5.22451C28.8741 5.1367 29.0054 5.05066 29.3752 5.28662C29.7056 5.49616 29.7091 5.7839 29.733 6.14125C29.7722 6.76366 29.7684 7.41247 29.8031 8.03706L30.0289 13.7226C30.058 14.8947 29.4315 14.357 28.9136 13.9143C28.0062 13.1431 27.0084 12.4269 26.0823 11.6874C25.8318 11.4847 25.6185 11.3038 25.3794 11.0899ZM9.61141 4.77876C9.9279 4.33668 10.9541 4.73846 11.3759 4.85853L18.1614 6.7278C19.3481 7.03517 18.1773 7.72464 17.7467 8.02313C16.5793 8.84155 15.4043 9.69199 14.2582 10.5455C13.0985 11.4056 11.8914 12.2091 10.7447 13.0856C8.55101 14.7679 8.75181 14.41 8.87862 12.2206C8.89401 11.9748 8.9308 11.5087 8.96602 11.2704L9.31016 6.58124C9.33583 6.11483 9.35714 5.13976 9.61141 4.77876ZM20.0468 1.05127C20.3861 0.671969 20.9592 1.12768 21.3612 1.24029C21.7256 1.34263 22.2389 1.61716 22.5925 1.79284C22.9878 1.9881 23.4484 2.15759 23.8572 2.34633C24.242 2.51828 24.7449 2.68437 25.0982 2.87154L27.6066 3.9319C27.8153 4.02985 28.9981 4.40154 28.5182 4.71244C28.3709 4.81183 27.2127 5.02992 26.9486 5.08919C26.4315 5.20804 25.8852 5.33528 25.3639 5.44481C24.8763 5.54378 24.2973 5.64708 23.8247 5.76719L20.7005 6.45669C20.029 6.52515 19.881 5.97791 19.8737 5.41392C19.8726 4.94906 19.8451 4.38911 19.8681 3.94104C19.8977 3.32518 19.6891 1.45077 20.0468 1.05127ZM2.18942 22.3706C1.9362 22.1862 1.26969 20.5497 1.08263 20.1348C0.779978 19.4635 0.617632 18.787 0.798395 18.0926C0.986982 17.3546 1.40072 16.1789 1.59291 15.4733C1.68163 15.1468 1.76557 14.7487 1.95426 14.6804C2.1122 15.0186 2.18566 19.7334 2.2233 20.4984C2.23794 20.7865 2.37123 22.2261 2.18942 22.3706ZM26.0146 1.61801C26.5708 2.12156 27.8438 3.11941 28.1456 3.56975C27.9579 3.60357 26.7511 3.04481 26.4763 2.92199C26.2101 2.80631 25.9022 2.67105 25.6421 2.58086C25.2783 2.45552 24.3714 2.00188 24.0256 1.86785C23.6864 1.73631 21.72 0.965087 21.6326 0.734807C21.7591 0.747585 21.9424 0.715946 22.0797 0.740536C22.8815 0.87595 24.7133 0.934615 25.2164 1.17434L25.6226 1.38142C25.7914 1.47593 25.8539 1.46849 26.0146 1.61801ZM8.8031 5.22535C9.03406 5.4942 8.92976 5.65234 8.91014 5.97394L8.73614 8.26555C8.69892 9.16884 8.61884 9.75797 8.56423 10.5618C8.55124 10.8008 8.48777 11.0981 8.49372 11.2939C8.5092 11.8029 8.43544 12.3208 8.40645 12.8286C8.38258 13.3111 8.37758 14.0059 8.11282 14.2585C7.70231 14.6381 7.12375 14.3042 6.68546 14.1353C6.08194 13.9042 4.44678 13.3932 4.01662 13.1694C3.61078 12.9508 2.90565 12.9447 2.99176 12.2959C3.04536 11.8671 6.21483 8.28405 6.77628 7.49682C7.07894 7.07276 7.41855 6.68196 7.75155 6.28867C8.02234 5.97647 8.39178 5.29887 8.8031 5.22535ZM19.3811 1.65607C19.398 2.61842 19.4437 3.58388 19.4248 4.55212C19.3977 5.6605 19.7462 6.78639 18.1072 6.25454L11.7236 4.49788C11.3994 4.38747 10.6622 4.33442 10.5427 3.97207C10.6999 3.66356 13.1998 2.85517 13.6671 2.68658L16.8713 1.4931C18.2342 1.02306 19.3584 0.242532 19.3811 1.65607ZM3.06809 11.1751C2.94498 10.9507 3.46388 9.75267 3.56792 9.43575C4.18858 7.50193 4.24601 7.34938 5.85365 6.37541C6.22896 6.149 7.55416 5.25449 7.85789 5.29529C7.78421 5.55783 7.48489 5.85543 7.31929 6.06015C6.93339 6.51867 3.46113 10.9515 3.06809 11.1751ZM10.9242 3.09001C10.9477 2.87437 11.4138 2.58149 11.5914 2.42773C11.8372 2.21837 12.1032 2.00498 12.3556 1.79811C13.0468 1.23775 13.1757 0.988272 14.1039 0.722256C14.6642 0.565506 16.1096 0.594845 16.8157 0.566473C17.0161 0.56063 17.5245 0.434628 17.6503 0.640683C17.1785 0.896583 16.4574 1.15924 15.9385 1.34708C15.4151 1.53709 11.1823 3.17554 10.9242 3.09001ZM35.1361 9.38665C34.4183 7.50245 34.1545 7.55022 32.6893 6.41808C31.7693 5.70405 30.8237 5.03071 29.9198 4.29182C28.9986 3.53863 28.1077 2.73107 27.1982 1.9552C26.171 1.08856 25.5982 0.536214 24.2174 0.418957C23.0673 0.326629 21.9362 0.191115 20.7867 0.0757929C19.5574 -0.0463898 14.638 -0.0404326 13.656 0.240171C12.9274 0.449694 12.4316 0.859091 11.8303 1.30232C11.2857 1.70114 10.7106 2.08068 10.1574 2.47235C9.05092 3.25568 7.95529 4.05083 6.84013 4.82701C3.19086 7.37019 3.86195 6.64358 2.50946 10.5081C2.13872 11.5722 1.77818 12.6712 1.45159 13.7481C1.11779 14.8455 0.772869 15.9426 0.452285 17.045C-0.018653 18.6172 -0.203522 18.9617 0.299843 20.6258C1.12288 23.3276 1.93599 26.0682 2.70315 28.7799C3.19537 30.5289 3.78056 30.7801 5.04752 31.8376C5.95313 32.5927 6.86806 33.3319 7.78059 34.0779C8.69071 34.8308 9.61435 35.5771 10.5404 36.3167C11.5776 37.1445 12.1053 37.8037 13.505 37.8778C14.6316 37.9303 15.858 37.912 16.9967 37.9304C18.1576 37.9494 19.3164 37.9637 20.4821 37.9691C21.2251 37.974 23.4769 38.0514 24.0472 37.941C25.0468 37.7483 26.8053 36.4518 27.7248 35.8381C28.9115 35.0501 30.1282 34.3044 31.3194 33.5143C32.1911 32.9406 34.1701 31.8897 34.7565 31.1699C35.2647 30.5446 35.6209 28.7666 35.8636 27.9175C36.1773 26.8241 36.4691 25.7186 36.7827 24.6252C37.1033 23.5228 37.3908 22.408 37.7114 21.3056C38.1812 19.6943 38.0128 19.2477 37.6656 17.6501C37.3815 16.3627 37.1268 14.8851 36.7504 13.6364C36.3182 12.2274 35.6603 10.7683 35.1361 9.38665Z" fill="white"/>
</svg>
