<svg width="36" height="36" viewBox="0 0 36 36" fill="none" xmlns="http://www.w3.org/2000/svg">
<g clip-path="url(#clip0)">
<path d="M25.499 13.5013H10.5C10.086 13.5013 9.75 13.8373 9.75 14.2513V26.2505C9.75 28.0624 11.0399 29.5758 12.7498 29.9253V33.7501C12.7498 34.9905 13.7592 35.9999 14.9997 35.9999C16.2401 35.9999 17.2495 34.9905 17.2495 33.7501V30.0003H18.7494V33.7501C18.7494 34.9905 19.7588 35.9999 20.9993 35.9999C22.2397 35.9999 23.2491 34.9905 23.2491 33.7501V29.9253C24.959 29.5774 26.2489 28.0624 26.2489 26.2505V14.2513C26.2489 13.8359 25.913 13.5013 25.499 13.5013Z" fill="white"/>
<path d="M21.9256 3.99657L23.19 1.04624C23.3535 0.66524 23.1765 0.225816 22.7955 0.0622798C22.419 -0.102733 21.9736 0.0743024 21.8116 0.456777L20.5472 3.40858C19.7447 3.1476 18.8898 3.00213 18.0018 3.00213C17.1139 3.00213 16.259 3.1476 15.4565 3.40858L14.1892 0.456777C14.0272 0.0743024 13.5817 -0.104209 13.2052 0.0622798C12.8242 0.225745 12.6487 0.666716 12.8123 1.04624L14.0767 3.99657C11.5014 5.3945 9.75098 8.12279 9.75098 11.2516C9.75098 11.6655 10.087 12.0015 10.5009 12.0015H25.4999C25.9139 12.0015 26.2499 11.6655 26.2499 11.2516C26.2498 8.12279 24.4995 5.3945 21.9256 3.99657ZM15.0006 9.00171C14.5866 9.00171 14.2506 8.66571 14.2506 8.25173C14.2506 7.83776 14.5866 7.50176 15.0006 7.50176C15.4146 7.50176 15.7506 7.83776 15.7506 8.25173C15.7506 8.66571 15.4146 9.00171 15.0006 9.00171ZM21.0002 9.00171C20.5863 9.00171 20.2503 8.66571 20.2503 8.25173C20.2503 7.83776 20.5863 7.50176 21.0002 7.50176C21.4142 7.50176 21.7502 7.83776 21.7502 8.25173C21.7502 8.66571 21.4142 9.00171 21.0002 9.00171Z" fill="white"/>
<path d="M29.9989 13.5013C28.7584 13.5013 27.749 14.5108 27.749 15.7512V23.2507C27.749 24.4912 28.7584 25.5006 29.9989 25.5006C31.2393 25.5006 32.2487 24.4912 32.2487 23.2507V15.7512C32.2487 14.5108 31.2393 13.5013 29.9989 13.5013Z" fill="white"/>
<path d="M6.00083 13.5013C4.76039 13.5013 3.75098 14.5108 3.75098 15.7512V23.2507C3.75098 24.4912 4.76039 25.5006 6.00083 25.5006C7.24127 25.5006 8.25068 24.4912 8.25068 23.2507V15.7512C8.25068 14.5108 7.24127 13.5013 6.00083 13.5013Z" fill="white"/>
</g>
<defs>
<clipPath id="clip0">
<rect width="36" height="36" fill="white"/>
</clipPath>
</defs>
</svg>
