<svg width="36" height="36" viewBox="0 0 36 36" fill="none" xmlns="http://www.w3.org/2000/svg">
<path d="M10.0261 36C4.66827 35.9692 0.236328 25.0319 0.236328 19.4618C0.236328 10.3631 7.06191 8.37115 9.69245 8.37115C10.8779 8.37115 12.1438 8.83669 13.2602 9.24865C14.041 9.53602 14.8485 9.83266 15.2975 9.83266C15.5664 9.83266 16.1998 9.58031 16.7591 9.3589C17.9518 8.88408 19.4359 8.29395 21.1642 8.29395C21.1673 8.29395 21.1715 8.29395 21.1745 8.29395C22.465 8.29395 26.3779 8.57716 28.7303 12.1099L29.2814 12.938L28.4883 13.5364C27.3554 14.3913 25.2882 15.9507 25.2882 19.0396C25.2882 22.698 27.6293 24.105 28.754 24.7817C29.2505 25.0804 29.7644 25.3883 29.7644 26.0619C29.7644 26.5017 26.2543 35.9455 21.157 35.9455C19.9097 35.9455 19.028 35.5706 18.2504 35.2399C17.4635 34.9052 16.7847 34.6168 15.6631 34.6168C15.0946 34.6168 14.3756 34.8856 13.6145 35.171C12.5743 35.5592 11.397 36 10.0612 36H10.0261Z" fill="white"/>
<path d="M21.7047 0C21.8374 4.78659 18.4143 8.10731 14.9951 7.89905C14.4317 4.07918 18.4138 0 21.7047 0Z" fill="white"/>
</svg>
