<svg width="125" height="42" viewBox="0 0 125 42" fill="none" xmlns="http://www.w3.org/2000/svg">
<path d="M5.0597 0H118.985C121.764 0 124.022 2.2596 124.022 5.04V36.96C124.022 39.7404 121.764 42 118.985 42H5.0597C2.28082 42 0.0224609 39.7404 0.0224609 36.96V5.04C0.0224609 2.2596 2.28082 0 5.0597 0Z" fill="#FCC501"/>
<path d="M27.1648 20.0424C27.1396 17.0352 29.6247 15.5736 29.7338 15.5064C28.3234 13.4568 26.1406 13.1712 25.3766 13.146C23.5464 12.9528 21.7666 14.2464 20.8347 14.2464C19.886 14.2464 18.442 13.1712 16.8973 13.1964C14.9075 13.23 13.0354 14.3808 12.0195 16.1784C9.91228 19.8324 11.4822 25.2084 13.5055 28.1652C14.5214 29.61 15.6967 31.2312 17.2499 31.1724C18.761 31.1136 19.3319 30.2064 21.1537 30.2064C22.9671 30.2064 23.496 31.1724 25.0744 31.1388C26.7031 31.1136 27.7189 29.6856 28.7012 28.224C29.8681 26.5692 30.3383 24.9312 30.3551 24.8472C30.3131 24.8304 27.1984 23.6376 27.1648 20.0424ZM24.1845 11.2056C24.9988 10.1892 25.5529 8.80317 25.4018 7.39197C24.2264 7.44237 22.7488 8.20677 21.9009 9.20637C21.1537 10.0884 20.4821 11.5248 20.65 12.8772C21.9765 12.978 23.3365 12.2052 24.1845 11.2056ZM49.0936 30.9624H46.978L45.8194 27.3168H41.7896L40.6898 30.9624H38.6329L42.6208 18.5556H45.089L49.0936 30.9624ZM45.4752 25.788L44.4258 22.554C44.3166 22.218 44.1067 21.4452 43.8045 20.2188H43.7625C43.6366 20.748 43.4435 21.5292 43.1749 22.554L42.1422 25.788H45.4752ZM59.3444 26.3844C59.3444 27.9048 58.933 29.106 58.1019 29.988C57.3631 30.7776 56.4396 31.164 55.3482 31.164C54.1644 31.164 53.3165 30.744 52.796 29.8956V34.5912H50.8063V24.9564C50.8063 23.9988 50.7811 23.0244 50.7307 22.0164H52.4769L52.5861 23.436H52.6197C53.2829 22.3692 54.2904 21.8316 55.6336 21.8316C56.6914 21.8316 57.5646 22.2516 58.2698 23.0832C58.9918 23.9232 59.3444 25.0152 59.3444 26.3844ZM57.3211 26.4516C57.3211 25.578 57.128 24.864 56.7334 24.3012C56.3053 23.7132 55.726 23.4192 55.004 23.4192C54.517 23.4192 54.0721 23.5872 53.6691 23.9064C53.2745 24.234 53.0059 24.654 52.8883 25.1832C52.8296 25.4268 52.796 25.6284 52.796 25.788V27.2832C52.796 27.93 52.9975 28.4844 53.392 28.9296C53.7866 29.3748 54.3071 29.6016 54.9452 29.6016C55.6924 29.6016 56.2717 29.3076 56.6914 28.7364C57.1112 28.1568 57.3211 27.4008 57.3211 26.4516ZM69.6204 26.3844C69.6204 27.9048 69.209 29.106 68.3778 29.988C67.639 30.7776 66.7155 31.164 65.6241 31.164C64.4404 31.164 63.5925 30.744 63.0719 29.8956V34.5912H61.0822V24.9564C61.0822 23.9988 61.057 23.0244 61.0067 22.0164H62.7529L62.8621 23.436H62.8956C63.5589 22.3692 64.5663 21.8316 65.9096 21.8316C66.9674 21.8316 67.8405 22.2516 68.5457 23.0832C69.2677 23.9232 69.6204 25.0152 69.6204 26.3844ZM67.5971 26.4516C67.5971 25.578 67.404 24.864 67.0094 24.3012C66.5812 23.7132 66.0019 23.4192 65.2799 23.4192C64.793 23.4192 64.348 23.5872 63.9451 23.9064C63.5505 24.234 63.2902 24.654 63.1643 25.1832C63.1055 25.4268 63.0719 25.6284 63.0719 25.788V27.2832C63.0719 27.93 63.2734 28.4844 63.668 28.9296C64.0626 29.3748 64.5831 29.6016 65.2212 29.6016C65.9684 29.6016 66.556 29.3076 66.9674 28.7364C67.3956 28.1568 67.5971 27.4008 67.5971 26.4516ZM81.122 27.4848C81.122 28.5432 80.7527 29.4 80.0223 30.0636C79.2163 30.786 78.0913 31.1472 76.6473 31.1472C75.3124 31.1472 74.2462 30.8868 73.4403 30.3744L73.902 28.7196C74.7751 29.232 75.7322 29.4924 76.7732 29.4924C77.5204 29.4924 78.1081 29.3244 78.5195 28.9884C78.9392 28.6524 79.1491 28.1988 79.1491 27.636C79.1491 27.132 78.9728 26.712 78.637 26.3676C78.2928 26.0232 77.7219 25.704 76.9243 25.41C74.7332 24.5952 73.6501 23.4108 73.6501 21.8568C73.6501 20.8404 74.0363 20.0088 74.8003 19.3536C75.5643 18.7068 76.5801 18.3792 77.8478 18.3792C78.9728 18.3792 79.9131 18.5724 80.6603 18.9672L80.1566 20.58C79.4514 20.202 78.6622 20.0088 77.7723 20.0088C77.0755 20.0088 76.5214 20.1852 76.1268 20.5212C75.7994 20.832 75.6315 21.2016 75.6315 21.6468C75.6315 22.134 75.8246 22.5456 76.2023 22.8564C76.5298 23.1504 77.1342 23.4696 78.0074 23.814C79.0736 24.2424 79.8543 24.7464 80.3581 25.326C80.8702 25.9056 81.122 26.628 81.122 27.4848ZM87.704 23.5116H85.5128V27.8544C85.5128 28.9548 85.899 29.5092 86.6714 29.5092C87.024 29.5092 87.3178 29.4756 87.5529 29.4168L87.6117 30.9288C87.2171 31.0716 86.705 31.1472 86.0669 31.1472C85.2778 31.1472 84.6733 30.9036 84.2283 30.4248C83.7834 29.946 83.5651 29.1396 83.5651 28.014V23.5032H82.2638V22.0164H83.5651V20.3784L85.5128 19.7904V22.0164H87.704V23.5116ZM97.5602 26.418C97.5602 27.7956 97.1657 28.9212 96.3849 29.8032C95.5621 30.7104 94.4707 31.164 93.1107 31.164C91.801 31.164 90.7516 30.7272 89.9708 29.862C89.19 28.9968 88.8038 27.8964 88.8038 26.5692C88.8038 25.1832 89.2068 24.0492 90.0044 23.1672C90.8103 22.2852 91.8933 21.84 93.2534 21.84C94.5631 21.84 95.6209 22.2768 96.4185 23.1504C97.1824 23.9904 97.5602 25.0824 97.5602 26.418ZM95.5034 26.46C95.5034 25.6368 95.3271 24.9396 94.9744 24.3516C94.5547 23.6376 93.9586 23.2848 93.1862 23.2848C92.3887 23.2848 91.7758 23.6376 91.3644 24.3516C91.0034 24.9396 90.8355 25.6536 90.8355 26.502C90.8355 27.3252 91.0118 28.0308 91.3644 28.6104C91.7926 29.3244 92.3971 29.6772 93.1694 29.6772C93.925 29.6772 94.5211 29.316 94.9577 28.5936C95.3187 27.9888 95.5034 27.2832 95.5034 26.46ZM104.025 23.7636C103.832 23.73 103.622 23.7132 103.395 23.7132C102.698 23.7132 102.153 23.9736 101.775 24.5028C101.447 24.9648 101.279 25.5612 101.279 26.2668V30.9624H99.2897V24.8304C99.2897 23.7972 99.2729 22.8564 99.2309 22.0164H100.96L101.036 23.73H101.095C101.305 23.142 101.632 22.6632 102.085 22.3104C102.53 21.9912 103.009 21.8316 103.521 21.8316C103.706 21.8316 103.874 21.8484 104.016 21.8652L104.025 23.7636ZM112.907 26.0652C112.907 26.418 112.882 26.7204 112.831 26.964H106.871C106.896 27.846 107.181 28.5264 107.735 28.9884C108.239 29.4 108.886 29.61 109.683 29.61C110.565 29.61 111.371 29.4672 112.093 29.19L112.403 30.5676C111.555 30.9372 110.556 31.122 109.406 31.122C108.021 31.122 106.93 30.7104 106.14 29.8956C105.351 29.0808 104.957 27.9804 104.957 26.6112C104.957 25.2672 105.326 24.1416 106.065 23.2428C106.837 22.2852 107.878 21.8064 109.188 21.8064C110.472 21.8064 111.455 22.2852 112.109 23.2428C112.638 24.0156 112.907 24.948 112.907 26.0652ZM111.01 25.5528C111.026 24.9648 110.892 24.4524 110.623 24.024C110.279 23.4696 109.75 23.1924 109.045 23.1924C108.399 23.1924 107.87 23.4612 107.467 23.9988C107.139 24.4272 106.938 24.948 106.879 25.5444L111.01 25.5528Z" fill="#141414"/>
<path d="M44.5175 14.1206H43.4764L42.9055 12.3314H40.9242L40.3785 14.1206H39.3711L41.3272 8.02214H42.5362L44.5175 14.1206ZM42.7292 11.5754L42.2171 9.97935C42.1668 9.81975 42.066 9.43335 41.9065 8.82854H41.8897C41.8225 9.08895 41.7386 9.46695 41.5959 9.97935L41.0921 11.5754H42.7292ZM49.4204 9.71895L47.7581 14.1206H46.8094L45.1975 9.71895H46.2469L46.9941 12.0458C47.12 12.4322 47.2292 12.8018 47.3131 13.1546H47.3383C47.4139 12.8354 47.523 12.4658 47.6573 12.0458L48.3961 9.71895H49.4204ZM52.9632 14.1206L52.8877 13.6166H52.8625C52.5602 14.0198 52.1321 14.2214 51.578 14.2214C50.7888 14.2214 50.2347 13.667 50.2347 12.9278C50.2347 11.8442 51.175 11.2814 52.8037 11.2814V11.1974C52.8037 10.6177 52.4931 10.3321 51.8886 10.3321C51.452 10.3321 51.0743 10.4413 50.7384 10.6597L50.537 10.0213C50.9399 9.76935 51.452 9.64335 52.0481 9.64335C53.1983 9.64335 53.7776 10.2481 53.7776 11.4662V13.0874C53.7776 13.5326 53.7944 13.877 53.8447 14.1374L52.9632 14.1206ZM52.8289 11.9282C51.7459 11.9282 51.2002 12.1886 51.2002 12.8186C51.2002 13.2806 51.4772 13.5074 51.8718 13.5074C52.3671 13.5074 52.8289 13.1294 52.8289 12.6086V11.9282ZM55.952 8.99655C55.6246 8.99655 55.3727 8.74454 55.3727 8.40854C55.3727 8.07254 55.6329 7.82894 55.9688 7.82894C56.3046 7.82894 56.5732 8.07254 56.5648 8.40854C56.5648 8.76134 56.313 8.99655 55.952 8.99655ZM55.4818 9.71895H56.4557V14.1122H55.4818V9.71895ZM58.1935 7.70294H59.1674V14.1122H58.1935V7.70294ZM63.3147 14.1206L63.2392 13.6166H63.214C62.9117 14.0198 62.4836 14.2214 61.9295 14.2214C61.1403 14.2214 60.5862 13.667 60.5862 12.9278C60.5862 11.8442 61.5265 11.2814 63.1552 11.2814V11.1974C63.1552 10.6177 62.8446 10.3321 62.2401 10.3321C61.8036 10.3321 61.4258 10.4413 61.0899 10.6597L60.8885 10.0129C61.2914 9.76095 61.8036 9.63495 62.3996 9.63495C63.5498 9.63495 64.1291 10.2397 64.1291 11.4578V13.079C64.1291 13.5242 64.1459 13.8686 64.1878 14.129H63.3147V14.1206ZM63.1804 11.9282C62.0974 11.9282 61.5517 12.1886 61.5517 12.8186C61.5517 13.2806 61.8287 13.5074 62.2233 13.5074C62.7187 13.5074 63.1804 13.1294 63.1804 12.6086V11.9282ZM68.0917 14.2214C67.4704 14.2214 67.0087 13.961 66.7065 13.4402H66.6897L66.6309 14.1206H65.7998C65.8249 13.7678 65.8333 13.373 65.8333 12.9362V7.70294H66.8156V10.3657H66.8324C67.1262 9.87855 67.588 9.63495 68.2344 9.63495C69.2922 9.63495 70.031 10.5421 70.031 11.861C70.031 13.2218 69.2083 14.2214 68.0917 14.2214ZM67.8902 10.3993C67.3277 10.3993 66.8156 10.8865 66.8156 11.567V12.3398C66.8156 12.9446 67.2773 13.4402 67.8734 13.4402C68.6038 13.4402 69.0404 12.8438 69.0404 11.8946C69.0404 11.0042 68.587 10.3993 67.8902 10.3993ZM71.475 7.70294H72.4489V14.1122H71.475V7.70294ZM77.7632 12.155H74.8332C74.85 12.9866 75.4041 13.457 76.2184 13.457C76.655 13.457 77.0496 13.3814 77.4022 13.247L77.5533 13.9274C77.1419 14.1122 76.655 14.1962 76.0841 14.1962C74.7073 14.1962 73.8929 13.331 73.8929 11.9786C73.8929 10.6345 74.724 9.61815 75.975 9.61815C77.0915 9.61815 77.8052 10.4497 77.8052 11.7098C77.8052 11.8862 77.7968 12.0374 77.7632 12.155ZM76.8733 11.4578C76.8733 10.7773 76.5291 10.2985 75.9078 10.2985C75.3453 10.2985 74.9087 10.7857 74.8416 11.4578H76.8733ZM83.6819 14.2214C82.3974 14.2214 81.5663 13.2638 81.5663 11.9618C81.5663 10.6009 82.4142 9.63495 83.7575 9.63495C85.0252 9.63495 85.8731 10.5505 85.8731 11.8862C85.8731 13.2554 85 14.2214 83.6819 14.2214ZM83.7239 10.3489C83.0187 10.3489 82.5653 11.0126 82.5653 11.9282C82.5653 12.8354 83.0271 13.4906 83.7155 13.4906C84.4039 13.4906 84.8657 12.785 84.8657 11.903C84.8573 11.0125 84.4123 10.3489 83.7239 10.3489ZM91.1202 14.1206H90.1464V11.5922C90.1464 10.8109 89.8441 10.4245 89.2565 10.4245C88.6772 10.4245 88.2826 10.9201 88.2826 11.4998V14.1122H87.3087V10.9789C87.3087 10.5925 87.3003 10.1725 87.2751 9.71895H88.1315L88.1734 10.3993H88.1986C88.4589 9.92895 88.9962 9.62655 89.5923 9.62655C90.5158 9.62655 91.1202 10.3321 91.1202 11.483V14.1206ZM97.5091 10.4581H96.4345V12.5918C96.4345 13.1378 96.6276 13.4066 97.0054 13.4066C97.1733 13.4066 97.3244 13.3898 97.442 13.3646L97.4671 14.1038C97.274 14.1794 97.0222 14.213 96.7115 14.213C95.9392 14.213 95.4858 13.7846 95.4858 12.6758V10.4581H94.8478V9.72735H95.4858V8.92094L96.4429 8.62694V9.71895H97.5175V10.4581H97.5091ZM102.681 14.1206H101.707V11.609C101.707 10.8193 101.405 10.4245 100.817 10.4245C100.313 10.4245 99.843 10.7689 99.843 11.4662V14.1122H98.8692V7.70294H99.843V10.3405H99.8598C100.17 9.86175 100.607 9.62655 101.178 9.62655C102.11 9.62655 102.681 10.3489 102.681 11.4998V14.1206ZM107.668 12.155H104.738C104.754 12.9866 105.308 13.457 106.123 13.457C106.559 13.457 106.954 13.3814 107.307 13.247L107.458 13.9274C107.046 14.1122 106.559 14.1962 105.988 14.1962C104.612 14.1962 103.797 13.331 103.797 11.9786C103.797 10.6345 104.628 9.61815 105.879 9.61815C106.996 9.61815 107.709 10.4497 107.709 11.7098C107.709 11.8862 107.701 12.0374 107.668 12.155ZM106.778 11.4578C106.778 10.7773 106.433 10.2985 105.812 10.2985C105.25 10.2985 104.805 10.7857 104.746 11.4578H106.778Z" fill="#141414"/>
</svg>
