<svg width="45" height="42" viewBox="0 0 45 42" fill="none" xmlns="http://www.w3.org/2000/svg">
<path d="M20.2657 2.8708L18.8461 3.231C18.5121 3.31569 18.2444 3.56456 18.1354 3.89135L17.7267 5.11741C17.5891 5.53029 17.2027 5.8088 16.7675 5.8088C16.5163 5.8088 16.2741 5.71532 16.088 5.54647L15.339 4.86687C14.9485 4.51256 14.3512 4.51775 13.9669 4.87892L10.4675 8.16832C9.99987 8.60794 9.58506 9.10058 9.23154 9.63622L8.96376 10.042C8.15506 11.2673 7.03426 12.2549 5.71674 12.9029L2.7251 14.3741C1.94797 14.7563 1.32957 15.3991 0.9779 16.1905C0.547696 17.1585 0.553236 18.2645 0.993113 19.2281L4.25843 26.3806C4.45998 26.8221 4.46746 27.3277 4.27918 27.775L4.21358 27.9308C3.93973 28.5812 4.08694 29.3327 4.58592 29.8316C5.17098 30.4167 6.08758 30.5075 6.77598 30.0485L9.19548 28.4355C9.43477 28.276 9.70993 28.1784 9.99627 28.1515L12.5252 27.9144C12.7151 27.8967 12.8961 27.8255 13.0473 27.7092L15.2795 25.9922C15.3991 25.9001 15.5379 25.8361 15.6856 25.8046L19.8463 24.9193C20.101 24.8651 20.3669 24.9113 20.5884 25.0482L25.2939 27.957C25.6268 28.1628 26.0485 28.158 26.3767 27.9447C27.1069 27.4701 28.0869 27.8613 28.2895 28.7084L28.8606 31.0966C28.9449 31.4494 29.1773 31.7488 29.4982 31.9181L30.3004 32.3415C31.8366 33.1523 33.5782 33.4911 35.3064 33.3153C37.4333 33.099 39.3579 31.9594 40.5703 30.1986L42.8255 26.9232C42.8961 26.8206 42.9472 26.7058 42.9762 26.5846L44.2595 21.2106C44.4514 20.4071 44.3016 19.56 43.8458 18.8711L40.6193 13.9938C40.3307 13.5576 39.9989 13.1514 39.629 12.7815L38.3727 11.5252C37.703 10.8555 37.2885 9.97286 37.2007 9.02979L36.9764 6.61873C36.9469 6.301 36.7692 6.0159 36.4969 5.8496L35.4315 5.19849C35.2154 5.06649 35.0498 4.8659 34.961 4.62881L34.1528 2.47076C33.987 2.02807 33.5639 1.73479 33.0912 1.73479C32.5006 1.73479 32.009 2.18821 31.9614 2.77688L31.7528 5.35239C31.7447 5.45255 31.7217 5.55096 31.6845 5.64435L31.166 6.94868C30.7808 7.91734 29.6009 8.28493 28.7338 7.70629L26.5682 6.26134C25.9102 5.82234 25.6598 4.976 25.9729 4.24961L26.4966 3.03472C26.5998 2.79535 26.6466 2.53548 26.6334 2.27518C26.5876 1.36992 25.8403 0.659363 24.9339 0.659363H23.0681C22.4012 0.659363 21.7958 1.04885 21.5194 1.65573L21.396 1.92658C21.1818 2.39654 20.7661 2.74381 20.2657 2.8708Z" fill="#FCC501"/>
<path d="M38.1159 35.6755C37.1157 35.2206 35.1859 35.4659 34.1246 35.6525C33.6016 35.7445 32.3768 35.9598 31.9146 36.9617C31.5877 37.67 31.8035 38.568 32.4166 39.0504C32.7331 39.2994 33.082 39.4014 33.3898 39.4913C33.5928 39.5506 33.7843 39.6066 33.9039 39.6915C34.0352 39.7847 34.1624 39.9676 34.2971 40.1613C34.5498 40.5249 34.8645 40.9775 35.4415 41.1524C35.6034 41.2015 35.7622 41.2207 35.916 41.2207C36.1824 41.2207 36.434 41.1631 36.661 41.1035C37.2788 40.9411 37.8941 40.7418 38.4898 40.5108C38.6886 40.4338 39.0583 40.2904 39.2843 39.9288C39.7192 39.233 39.6312 38.1784 39.4037 37.4233C39.2522 36.9204 38.8833 36.0245 38.1159 35.6755ZM38.1786 39.2071C38.1509 39.2242 38.0952 39.2489 38.0127 39.2809C37.4633 39.494 36.8957 39.6779 36.3257 39.8276C36.1932 39.8624 35.9466 39.9272 35.8241 39.8901C35.6859 39.8482 35.5374 39.6346 35.3801 39.4083C35.1957 39.143 34.9867 38.8423 34.6674 38.6157C34.3672 38.4026 34.0445 38.3084 33.7599 38.2252C33.5482 38.1633 33.3482 38.1049 33.2325 38.0138C33.0955 37.9059 33.0394 37.6725 33.1124 37.5143C33.2657 37.182 33.856 37.0391 34.3531 36.9517C35.1649 36.8089 35.925 36.7362 36.5199 36.7362C36.9943 36.7362 37.3636 36.7825 37.5698 36.8763C37.7325 36.9503 37.9805 37.2721 38.1406 37.8038C38.3211 38.4025 38.3014 38.9759 38.1786 39.2071Z" fill="#FCC501"/>
</svg>
