<svg width="37" height="37" viewBox="0 0 37 37" fill="none" xmlns="http://www.w3.org/2000/svg">
<rect width="37" height="37" rx="5" fill="#E70F27"/>
<path d="M9.39519 23.192C8.50719 23.192 7.70719 23.008 6.99519 22.64C6.28319 22.264 5.72319 21.744 5.31519 21.08C4.91519 20.408 4.71519 19.648 4.71519 18.8C4.71519 17.952 4.91519 17.196 5.31519 16.532C5.72319 15.86 6.28319 15.34 6.99519 14.972C7.70719 14.596 8.50719 14.408 9.39519 14.408C10.2112 14.408 10.9392 14.552 11.5792 14.84C12.2192 15.128 12.7472 15.544 13.1632 16.088L11.3752 17.684C10.8552 17.028 10.2432 16.7 9.53919 16.7C8.94719 16.7 8.47119 16.892 8.11119 17.276C7.75119 17.652 7.57119 18.16 7.57119 18.8C7.57119 19.44 7.75119 19.952 8.11119 20.336C8.47119 20.712 8.94719 20.9 9.53919 20.9C10.2432 20.9 10.8552 20.572 11.3752 19.916L13.1632 21.512C12.7472 22.056 12.2192 22.472 11.5792 22.76C10.9392 23.048 10.2112 23.192 9.39519 23.192ZM21.4809 23L21.4569 19.172L19.6329 22.244H18.3849L16.5609 19.304V23H13.9809V14.6H16.3089L19.0449 19.076L21.7089 14.6H24.0369L24.0609 23H21.4809ZM28.5621 23.192C27.8661 23.192 27.1861 23.116 26.5221 22.964C25.8661 22.804 25.3261 22.592 24.9021 22.328L25.8141 20.264C26.2141 20.496 26.6621 20.684 27.1581 20.828C27.6541 20.964 28.1301 21.032 28.5861 21.032C28.9781 21.032 29.2581 20.996 29.4261 20.924C29.5941 20.844 29.6781 20.728 29.6781 20.576C29.6781 20.4 29.5661 20.268 29.3421 20.18C29.1261 20.092 28.7661 19.996 28.2621 19.892C27.6141 19.756 27.0741 19.612 26.6421 19.46C26.2101 19.3 25.8341 19.044 25.5141 18.692C25.1941 18.332 25.0341 17.848 25.0341 17.24C25.0341 16.712 25.1821 16.232 25.4781 15.8C25.7741 15.368 26.2141 15.028 26.7981 14.78C27.3901 14.532 28.1061 14.408 28.9461 14.408C29.5221 14.408 30.0861 14.472 30.6381 14.6C31.1981 14.72 31.6901 14.9 32.1141 15.14L31.2621 17.192C30.4381 16.776 29.6581 16.568 28.9221 16.568C28.1941 16.568 27.8301 16.744 27.8301 17.096C27.8301 17.264 27.9381 17.392 28.1541 17.48C28.3701 17.56 28.7261 17.648 29.2221 17.744C29.8621 17.864 30.4021 18.004 30.8421 18.164C31.2821 18.316 31.6621 18.568 31.9821 18.92C32.3101 19.272 32.4741 19.752 32.4741 20.36C32.4741 20.888 32.3261 21.368 32.0301 21.8C31.7341 22.224 31.2901 22.564 30.6981 22.82C30.1141 23.068 29.4021 23.192 28.5621 23.192Z" fill="white"/>
</svg>
