<svg width="225" height="113" viewBox="0 0 225 113" fill="none" xmlns="http://www.w3.org/2000/svg">
<g clip-path="url(#clip0)">
<rect x="41.5" y="1.5" width="143" height="110" rx="4.5" stroke="#2E2E2E" stroke-dasharray="5 5"/>
<rect x="44.5" y="4.5" width="137" height="104" rx="4.5" stroke="#222222" stroke-dasharray="4 4"/>
<path d="M89.3801 88.7055L141.706 36.3799M89.3801 88.7055C77.7899 77.1153 75.4966 59.7488 82.5 45.8726M89.3801 88.7055C100.97 100.296 118.337 102.589 132.213 95.5857M141.706 36.3799C127.256 21.9305 103.829 21.9305 89.3801 36.3799C86.521 39.239 84.2276 42.4496 82.5 45.8726M141.706 36.3799C156.155 50.8292 156.155 74.2562 141.706 88.7055C138.847 91.5646 135.636 93.858 132.213 95.5857M82.5 45.8726L132.213 95.5857" stroke="url(#paint0_linear)" stroke-dasharray="8 8"/>
<circle opacity="0.2" cx="114.586" cy="86.5854" r="3.25" stroke="#D6D6D6" stroke-width="0.5"/>
<path d="M112.227 19.4433C120.233 27.449 120.391 40.2706 112.581 48.0811M112.227 19.4433C104.221 11.4375 91.3999 11.2793 83.5894 19.0897M112.227 19.4433L83.943 47.7276M112.581 48.0811C104.77 55.8916 91.9487 55.7333 83.943 47.7276M112.581 48.0811L83.5894 19.0897M83.943 47.7276C75.9372 39.7218 75.7789 26.9002 83.5894 19.0897" stroke="url(#paint1_linear)" stroke-dasharray="6 6"/>
<path opacity="0.5" d="M64.2673 86.0019L66.7623 86.1442L66.7766 85.8946L69.2716 86.0369L69.2574 86.2865L71.7443 86.4284L71.7382 86.3216L71.7587 86.3204L71.7667 86.1793L73.0142 86.2504V86.7496L71.7667 86.8207L71.7587 86.6796L71.7382 86.6784L71.7443 86.5716L69.2574 86.7135L69.2716 86.9631L66.7766 87.1054L66.7623 86.8558L64.2673 86.9981L64.2815 87.2477L63.2587 87.306L63.2261 87.992L62.9764 87.9801L62.8898 89.8019L63.1395 89.8138L63.0529 91.6356L62.8032 91.6237L62.7166 93.4455L62.9663 93.4574L62.8796 95.2792L62.6299 95.2673L62.5435 97.085L62.7064 97.0772L62.7073 97.0969L62.793 97.101L62.7497 98.0119H62.2503L62.207 97.101L62.2927 97.0969L62.2936 97.0772L62.4565 97.085L62.3701 95.2673L62.1204 95.2792L62.0337 93.4574L62.2834 93.4455L62.1968 91.6237L61.9471 91.6356L61.8605 89.8138L62.1102 89.8019L62.0236 87.9801L61.7739 87.992L61.7413 87.306L60.7185 87.2477L60.7327 86.9981L58.2377 86.8558L58.2234 87.1054L55.7284 86.9631L55.7426 86.7135L53.2557 86.5716L53.2618 86.6784L53.2413 86.6796L53.2333 86.8207L51.9858 86.7496V86.2504L53.2333 86.1793L53.2413 86.3204L53.2618 86.3216L53.2557 86.4284L55.7426 86.2865L55.7284 86.0369L58.2234 85.8946L58.2377 86.1442L60.7327 86.0019L60.7185 85.7523L61.7413 85.694L61.7739 85.008L62.0236 85.0199L62.1102 83.1981L61.8605 83.1862L61.9471 81.3644L62.1968 81.3763L62.2834 79.5545L62.0337 79.5426L62.1204 77.7208L62.3701 77.7327L62.4565 75.915L62.2936 75.9228L62.2927 75.9031L62.207 75.899L62.2503 74.9881H62.7497L62.793 75.899L62.7073 75.9031L62.7064 75.9228L62.5435 75.915L62.6299 77.7327L62.8796 77.7208L62.9663 79.5426L62.7166 79.5545L62.8032 81.3763L63.0529 81.3644L63.1395 83.1862L62.8898 83.1981L62.9764 85.0199L63.2261 85.008L63.2587 85.694L64.2815 85.7523L64.2673 86.0019Z" stroke="white" stroke-width="0.5" stroke-dasharray="2 2"/>
</g>
<g clip-path="url(#clip1)">
<rect x="41" y="1" width="144" height="111" rx="5" fill="#414141"/>
<rect x="44" y="4" width="138" height="105" rx="5" fill="#1B1B1B"/>
<path d="M147.586 81.0426C137.368 98.7393 114.74 104.803 97.043 94.5855C79.3462 84.3683 73.2829 61.7395 83.5001 44.0428C93.7173 26.346 116.346 20.2827 134.043 30.4999C151.74 40.7171 157.803 63.3459 147.586 81.0426Z" fill="url(#paint2_linear)"/>
<circle opacity="0.2" cx="114.586" cy="86.5854" r="3.5" fill="url(#paint3_linear)"/>
<ellipse cx="98.0859" cy="33.5854" rx="20" ry="20.5" fill="url(#paint4_linear)"/>
<path opacity="0.5" d="M157.5 18L158.02 28.9308L168 29.5L158.02 30.0692L157.5 41L156.98 30.0692L147 29.5L156.98 28.9308L157.5 18Z" fill="url(#paint5_radial)"/>
<path opacity="0.25" d="M149.5 6L149.871 13.1288L157 13.5L149.871 13.8712L149.5 21L149.129 13.8712L142 13.5L149.129 13.1288L149.5 6Z" fill="url(#paint6_radial)"/>
<path opacity="0.25" d="M166.5 13L166.871 20.1288L174 20.5L166.871 20.8712L166.5 28L166.129 20.8712L159 20.5L166.129 20.1288L166.5 13Z" fill="url(#paint7_radial)"/>
</g>
<path d="M191 1H198V31H191V1Z" fill="url(#paint8_linear)"/>
<path d="M191 34H198V46H191V34Z" fill="url(#paint9_linear)"/>
<path d="M191 49H198V66H191V49Z" fill="url(#paint10_linear)"/>
<path d="M191 69H198V112H191V69Z" fill="url(#paint11_linear)"/>
<rect x="200" y="1" width="16" height="2" fill="#C4C4C4"/>
<rect x="200" y="104" width="22" height="2" fill="#3D3D3D"/>
<rect x="200" y="4" width="25" height="2" fill="#FCC501"/>
<rect x="200" y="107" width="17" height="2" fill="#3D3D3D"/>
<rect x="200" y="7" width="11" height="2" fill="#C4C4C4"/>
<rect x="200" y="110" width="11" height="2" fill="#3D3D3D"/>
<path d="M18 27V15M18 15H3C1.89543 15 1 14.1046 1 13V3C1 1.89543 1.89543 1 3 1H33C34.1046 1 35 1.89543 35 3V13C35 14.1046 34.1046 15 33 15H18ZM18 98H33C34.1046 98 35 98.8954 35 100V110C35 111.105 34.1046 112 33 112H3C1.89543 112 1 111.105 1 110V100C1 98.8954 1.89543 98 3 98H18ZM18 98V87M8 78H3C1.89543 78 1 77.1046 1 76V66C1 64.8954 1.89543 64 3 64H13C14.1046 64 15 64.8954 15 66V76C15 77.1046 14.1046 78 13 78H8ZM8 78V86C8 86.5523 8.44772 87 9 87H18M28 78H23C21.8954 78 21 77.1046 21 76V66C21 64.8954 21.8954 64 23 64H33C34.1046 64 35 64.8954 35 66V76C35 77.1046 34.1046 78 33 78H28ZM28 78V86C28 86.5523 27.5523 87 27 87H18M18.0001 46.6495L2.48399 37.6142C1.82161 37.2284 1.82161 36.2716 2.48399 35.8858L17.4893 27.148C17.8043 26.9645 18.1943 26.967 18.507 27.1546L33.0708 35.8925C33.7181 36.2809 33.7181 37.2191 33.0708 37.6075L18.0001 46.6495ZM18.0001 46.6495L18.0001 52M18.0001 52L27 52C27.5523 52 28 52.4477 28 53L28 64M18.0001 52H9C8.44771 52 8 52.4477 8 53L8 64" stroke="#3E3E3E"/>
<rect x="1" y="1" width="34" height="14" rx="2" stroke="#FCC501"/>
<rect x="1" y="98" width="34" height="14" rx="2" stroke="#FCC501"/>
<defs>
<linearGradient id="paint0_linear" x1="139.5" y1="34.5" x2="89.5" y2="89" gradientUnits="userSpaceOnUse">
<stop stop-color="#141414"/>
<stop offset="1" stop-color="#4F4F4F"/>
</linearGradient>
<linearGradient id="paint1_linear" x1="112.5" y1="17.9999" x2="80.9995" y2="47.4999" gradientUnits="userSpaceOnUse">
<stop stop-color="#171717"/>
<stop offset="1" stop-color="#5F5F5F"/>
</linearGradient>
<linearGradient id="paint2_linear" x1="126.108" y1="51.9777" x2="77.8794" y2="100.206" gradientUnits="userSpaceOnUse">
<stop stop-color="#232323"/>
<stop offset="1" stop-color="#494949"/>
</linearGradient>
<linearGradient id="paint3_linear" x1="111.077" y1="90.1252" x2="118.121" y2="83.0803" gradientUnits="userSpaceOnUse">
<stop stop-color="#C4C4C4"/>
<stop offset="1" stop-color="#C4C4C4" stop-opacity="0"/>
</linearGradient>
<linearGradient id="paint4_linear" x1="100.176" y1="25.5893" x2="90.1849" y2="61.9679" gradientUnits="userSpaceOnUse">
<stop stop-color="#232323"/>
<stop offset="1" stop-color="#434343"/>
</linearGradient>
<radialGradient id="paint5_radial" cx="0" cy="0" r="1" gradientUnits="userSpaceOnUse" gradientTransform="translate(157.5 29.5) rotate(90) scale(11.5 10.5)">
<stop stop-color="white"/>
<stop offset="1" stop-color="white" stop-opacity="0"/>
</radialGradient>
<radialGradient id="paint6_radial" cx="0" cy="0" r="1" gradientUnits="userSpaceOnUse" gradientTransform="translate(149.5 13.5) rotate(90) scale(7.5)">
<stop stop-color="white"/>
<stop offset="1" stop-color="#595959" stop-opacity="0"/>
</radialGradient>
<radialGradient id="paint7_radial" cx="0" cy="0" r="1" gradientUnits="userSpaceOnUse" gradientTransform="translate(166.5 20.5) rotate(90) scale(7.5)">
<stop stop-color="white"/>
<stop offset="1" stop-color="#444444" stop-opacity="0"/>
</radialGradient>
<linearGradient id="paint8_linear" x1="194.5" y1="1" x2="194.5" y2="112" gradientUnits="userSpaceOnUse">
<stop stop-color="#C4C4C4"/>
<stop offset="1" stop-color="#C4C4C4" stop-opacity="0"/>
</linearGradient>
<linearGradient id="paint9_linear" x1="194.5" y1="1" x2="194.5" y2="112" gradientUnits="userSpaceOnUse">
<stop stop-color="#C4C4C4"/>
<stop offset="1" stop-color="#C4C4C4" stop-opacity="0"/>
</linearGradient>
<linearGradient id="paint10_linear" x1="194.5" y1="1" x2="194.5" y2="112" gradientUnits="userSpaceOnUse">
<stop stop-color="#C4C4C4"/>
<stop offset="1" stop-color="#C4C4C4" stop-opacity="0"/>
</linearGradient>
<linearGradient id="paint11_linear" x1="194.5" y1="1" x2="194.5" y2="112" gradientUnits="userSpaceOnUse">
<stop stop-color="#C4C4C4"/>
<stop offset="1" stop-color="#C4C4C4" stop-opacity="0"/>
</linearGradient>
<clipPath id="clip0">
<rect width="72" height="111" fill="white" transform="translate(41 1)"/>
</clipPath>
<clipPath id="clip1">
<rect width="72" height="111" fill="white" transform="translate(113 1)"/>
</clipPath>
</defs>
</svg>
