<svg width="164" height="118" viewBox="0 0 164 118" fill="none" xmlns="http://www.w3.org/2000/svg">
<path d="M70.75 84L93.25 84.375L97 114H67L70.75 84Z" fill="url(#paint0_linear)"/>
<path d="M60.75 118L103.25 117.95L97 114H67L60.75 118Z" fill="url(#paint1_linear)"/>
<rect x="2" y="2" width="160" height="96" rx="3" fill="#1B1B1B" stroke="#414141" stroke-width="4"/>
<rect x="4" y="4" width="156" height="8" fill="#525252"/>
<g filter="url(#filter0_f)">
<path d="M59 47.5001C59 53.2991 54.299 58.0001 48.5 58.0001C42.701 58.0001 38 53.2991 38 47.5001C38 41.7011 42.701 37.0001 48.5 37.0001C54.299 37.0001 59 41.7011 59 47.5001Z" fill="white"/>
</g>
<path d="M91.3743 69.9978C82.7916 84.8636 63.7828 89.957 48.917 81.3742C34.0512 72.7915 28.9578 53.7827 37.5406 38.9169C46.1234 24.0511 65.1321 18.9578 79.9979 27.5405C94.8637 36.1233 99.9571 55.1321 91.3743 69.9978Z" fill="url(#paint2_linear)"/>
<circle opacity="0.2" cx="133" cy="62.0001" r="3" fill="url(#paint3_linear)"/>
<circle cx="112" cy="44.9146" r="24" fill="url(#paint4_linear)"/>
<circle r="2" transform="matrix(-1 0 0 1 10 8)" fill="#FF2C2C"/>
<circle r="2" transform="matrix(-1 0 0 1 16 8)" fill="#FFB82F"/>
<circle r="2" transform="matrix(-1 0 0 1 22 8)" fill="#4FD620"/>
<defs>
<filter id="filter0_f" x="13" y="12.0001" width="71" height="71" filterUnits="userSpaceOnUse" color-interpolation-filters="sRGB">
<feFlood flood-opacity="0" result="BackgroundImageFix"/>
<feBlend mode="normal" in="SourceGraphic" in2="BackgroundImageFix" result="shape"/>
<feGaussianBlur stdDeviation="12.5" result="effect1_foregroundBlur"/>
</filter>
<linearGradient id="paint0_linear" x1="97" y1="84" x2="67" y2="114" gradientUnits="userSpaceOnUse">
<stop stop-color="#8C8C8C"/>
<stop offset="1" stop-color="#616161"/>
</linearGradient>
<linearGradient id="paint1_linear" x1="97" y1="118" x2="95.952" y2="110.14" gradientUnits="userSpaceOnUse">
<stop stop-color="#8C8C8C"/>
<stop offset="1" stop-color="#616161"/>
</linearGradient>
<linearGradient id="paint2_linear" x1="73.3324" y1="45.5824" x2="32.8191" y2="86.0958" gradientUnits="userSpaceOnUse">
<stop stop-color="#232323"/>
<stop offset="1" stop-color="#494949"/>
</linearGradient>
<linearGradient id="paint3_linear" x1="129.992" y1="65.0341" x2="136.03" y2="58.9956" gradientUnits="userSpaceOnUse">
<stop stop-color="#C4C4C4"/>
<stop offset="1" stop-color="#C4C4C4" stop-opacity="0"/>
</linearGradient>
<linearGradient id="paint4_linear" x1="114.508" y1="35.5532" x2="103.058" y2="78.2873" gradientUnits="userSpaceOnUse">
<stop stop-color="#232323"/>
<stop offset="1" stop-color="#434343"/>
</linearGradient>
</defs>
</svg>
