<svg width="194" height="159" viewBox="0 0 194 159" fill="none" xmlns="http://www.w3.org/2000/svg">
<path d="M146.612 107.935C130.64 135.601 95.2639 145.08 67.5982 129.107C39.9326 113.135 30.4537 77.7586 46.4264 50.093C62.3992 22.4274 97.7751 12.9485 125.441 28.9212C153.106 44.894 162.585 80.2699 146.612 107.935Z" fill="url(#paint0_linear)"/>
<path opacity="0.5" d="M39.6454 68.6732C16.1885 71.1345 1 75.0678 1 79.5C1 86.9558 43.9807 93 97 93C150.019 93 193 86.9558 193 79.5C193 75.0078 177.398 71.0282 153.398 68.5741" stroke="#FCC501" stroke-width="0.5"/>
<circle cx="95" cy="93" r="7" fill="url(#paint1_linear)"/>
<defs>
<linearGradient id="paint0_linear" x1="113.036" y1="62.4978" x2="37.6395" y2="137.894" gradientUnits="userSpaceOnUse">
<stop stop-color="#232323"/>
<stop offset="1" stop-color="#494949"/>
</linearGradient>
<linearGradient id="paint1_linear" x1="87.9813" y1="100.079" x2="102.071" y2="85.9897" gradientUnits="userSpaceOnUse">
<stop stop-color="#FCC501"/>
<stop offset="1" stop-color="#FCC501" stop-opacity="0.38"/>
</linearGradient>
</defs>
</svg>
