<svg width="233" height="139" viewBox="0 0 233 139" fill="none" xmlns="http://www.w3.org/2000/svg">
<path d="M155.094 93.5017C141.849 116.442 112.515 124.303 89.5741 111.058C66.6333 97.8129 58.7732 68.4787 72.0181 45.5379C85.2629 22.5972 114.597 14.7371 137.538 27.9819C160.479 41.2268 168.339 70.561 155.094 93.5017Z" fill="url(#paint0_linear)"/>
<circle cx="22" cy="94" r="14" fill="url(#paint1_linear)"/>
<circle cx="215" cy="39" r="7" fill="url(#paint2_linear)"/>
<circle cx="19" cy="20" r="19" fill="url(#paint3_linear)"/>
<path opacity="0.2" d="M15.6103 20.6475C10.3028 31.9937 52.3935 62.8936 109.623 89.6642C166.852 116.435 217.548 128.939 222.855 117.592C227.094 108.532 201.107 87.0024 161.323 65.0638M85.5888 30.5292C66.7166 23.6676 50.1376 19.1 37.8128 17.3098" stroke="white" stroke-width="0.5" stroke-linecap="round"/>
<path opacity="0.2" d="M15.6103 20.6475C10.3028 31.9937 52.3935 62.8936 109.623 89.6642C166.852 116.435 217.548 128.939 222.855 117.592C227.094 108.532 201.107 87.0024 161.323 65.0638M85.5888 30.5292C66.7166 23.6676 50.1376 19.1 37.8128 17.3098" stroke="white" stroke-width="0.5" stroke-linecap="round"/>
<path opacity="0.5" d="M215.273 39.4351C217.877 48.5119 176.436 68.3688 122.711 83.7867C68.9858 99.2046 23.3213 104.345 20.7165 95.2681M208.853 35.6694C198.825 33.7268 178.068 35.7783 152.258 41.1851M31.5 83.5C39.3057 78.8931 52.5726 72.0841 65.6429 66.9261" stroke="#DCAC03" stroke-width="0.5"/>
<defs>
<linearGradient id="paint0_linear" x1="127.252" y1="55.8241" x2="64.7318" y2="118.344" gradientUnits="userSpaceOnUse">
<stop stop-color="#232323"/>
<stop offset="1" stop-color="#494949"/>
</linearGradient>
<linearGradient id="paint1_linear" x1="7.96262" y1="108.159" x2="36.1422" y2="79.9794" gradientUnits="userSpaceOnUse">
<stop stop-color="#FCC501"/>
<stop offset="1" stop-color="#FCC501" stop-opacity="0.38"/>
</linearGradient>
<linearGradient id="paint2_linear" x1="207.981" y1="46.0795" x2="222.071" y2="31.9897" gradientUnits="userSpaceOnUse">
<stop stop-color="#FCC501"/>
<stop offset="1" stop-color="#FCC501" stop-opacity="0.38"/>
</linearGradient>
<linearGradient id="paint3_linear" x1="20.9858" y1="12.5889" x2="11.9208" y2="46.42" gradientUnits="userSpaceOnUse">
<stop stop-color="#232323"/>
<stop offset="1" stop-color="#494949"/>
</linearGradient>
</defs>
</svg>
