<svg width="213" height="143" viewBox="0 0 213 143" fill="none" xmlns="http://www.w3.org/2000/svg">
<rect x="69" y="31.9998" width="144" height="111" rx="5" fill="#414141"/>
<g clip-path="url(#clip0)">
<rect x="72" y="34.9998" width="138" height="105" rx="5" fill="#1B1B1B"/>
<path d="M175.586 112.042C165.368 129.739 142.74 135.803 125.043 125.585C107.346 115.368 101.283 92.7393 111.5 75.0426C121.717 57.3459 144.346 51.2825 162.043 61.4997C179.74 71.7169 185.803 94.3457 175.586 112.042Z" fill="url(#paint0_linear)"/>
<circle opacity="0.2" cx="142.586" cy="117.585" r="3.5" fill="url(#paint1_linear)"/>
<ellipse cx="126.086" cy="64.5853" rx="20" ry="20.5" fill="url(#paint2_linear)"/>
<path opacity="0.5" d="M185.5 48.9998L186.02 59.9306L196 60.4998L186.02 61.069L185.5 71.9998L184.98 61.069L175 60.4998L184.98 59.9306L185.5 48.9998Z" fill="url(#paint3_radial)"/>
<path opacity="0.25" d="M177.5 36.9998L177.871 44.1286L185 44.4998L177.871 44.871L177.5 51.9998L177.129 44.871L170 44.4998L177.129 44.1286L177.5 36.9998Z" fill="url(#paint4_radial)"/>
<path opacity="0.25" d="M194.5 43.9998L194.871 51.1286L202 51.4998L194.871 51.871L194.5 58.9998L194.129 51.871L187 51.4998L194.129 51.1286L194.5 43.9998Z" fill="url(#paint5_radial)"/>
</g>
<rect y="31.9998" width="61" height="111" rx="5" fill="#414141"/>
<g clip-path="url(#clip1)">
<path d="M3 39.9998C3 37.2384 5.23858 34.9998 8 34.9998H15C15.9665 34.9998 16.75 35.7833 16.75 36.7498C16.75 37.7163 17.5335 38.4998 18.5 38.4998H30.5H42.5C43.4665 38.4998 44.25 37.7163 44.25 36.7498C44.25 35.7833 45.0335 34.9998 46 34.9998H53C55.7614 34.9998 58 37.2384 58 39.9998V135C58 137.761 55.7614 140 53 140H8C5.23857 140 3 137.761 3 135V39.9998Z" fill="#1B1B1B"/>
<path opacity="0.5" d="M42.5 50.9998L43.0197 61.9306L53 62.4998L43.0197 63.069L42.5 73.9998L41.9803 63.069L32 62.4998L41.9803 61.9306L42.5 50.9998Z" fill="url(#paint6_radial)"/>
<path d="M57.3743 117.998C48.7916 132.863 29.7828 137.957 14.917 129.374C0.0512339 120.791 -5.04215 101.782 3.5406 86.9167C12.1234 72.0509 31.1321 66.9575 45.9979 75.5403C60.8637 84.123 65.9571 103.132 57.3743 117.998Z" fill="url(#paint7_linear)"/>
<circle opacity="0.2" cx="30" cy="123" r="3" fill="url(#paint8_linear)"/>
<circle cx="16" cy="77.9998" r="17" fill="url(#paint9_linear)"/>
<path opacity="0.25" d="M34.5 38.9998L34.8712 46.1286L42 46.4998L34.8712 46.871L34.5 53.9998L34.1288 46.871L27 46.4998L34.1288 46.1286L34.5 38.9998Z" fill="url(#paint10_radial)"/>
<path opacity="0.25" d="M51.5 45.9998L51.8712 53.1286L59 53.4998L51.8712 53.871L51.5 60.9998L51.1288 53.871L44 53.4998L51.1288 53.1286L51.5 45.9998Z" fill="url(#paint11_radial)"/>
</g>
<path d="M63.3421 7.45389L71.7389 33.0358L98.0546 27.3416L72.4726 35.7384L78.1668 62.0541L69.7701 36.4722L43.4544 42.1664L69.0363 33.7696L63.3421 7.45389Z" fill="url(#paint12_radial)"/>
<defs>
<linearGradient id="paint0_linear" x1="154.108" y1="82.9775" x2="105.879" y2="131.206" gradientUnits="userSpaceOnUse">
<stop stop-color="#232323"/>
<stop offset="1" stop-color="#494949"/>
</linearGradient>
<linearGradient id="paint1_linear" x1="139.077" y1="121.125" x2="146.121" y2="114.08" gradientUnits="userSpaceOnUse">
<stop stop-color="#C4C4C4"/>
<stop offset="1" stop-color="#C4C4C4" stop-opacity="0"/>
</linearGradient>
<linearGradient id="paint2_linear" x1="128.176" y1="56.5891" x2="118.185" y2="92.9677" gradientUnits="userSpaceOnUse">
<stop stop-color="#232323"/>
<stop offset="1" stop-color="#434343"/>
</linearGradient>
<radialGradient id="paint3_radial" cx="0" cy="0" r="1" gradientUnits="userSpaceOnUse" gradientTransform="translate(185.5 60.4998) rotate(90) scale(11.5 10.5)">
<stop stop-color="white"/>
<stop offset="1" stop-color="white" stop-opacity="0"/>
</radialGradient>
<radialGradient id="paint4_radial" cx="0" cy="0" r="1" gradientUnits="userSpaceOnUse" gradientTransform="translate(177.5 44.4998) rotate(90) scale(7.5)">
<stop stop-color="white"/>
<stop offset="1" stop-color="#595959" stop-opacity="0"/>
</radialGradient>
<radialGradient id="paint5_radial" cx="0" cy="0" r="1" gradientUnits="userSpaceOnUse" gradientTransform="translate(194.5 51.4998) rotate(90) scale(7.5)">
<stop stop-color="white"/>
<stop offset="1" stop-color="#444444" stop-opacity="0"/>
</radialGradient>
<radialGradient id="paint6_radial" cx="0" cy="0" r="1" gradientUnits="userSpaceOnUse" gradientTransform="translate(42.5 62.4998) rotate(90) scale(11.5 10.5)">
<stop stop-color="white"/>
<stop offset="1" stop-color="white" stop-opacity="0"/>
</radialGradient>
<linearGradient id="paint7_linear" x1="39.3324" y1="93.5822" x2="-1.18095" y2="134.096" gradientUnits="userSpaceOnUse">
<stop stop-color="#232323"/>
<stop offset="1" stop-color="#494949"/>
</linearGradient>
<linearGradient id="paint8_linear" x1="26.992" y1="126.034" x2="33.0305" y2="119.995" gradientUnits="userSpaceOnUse">
<stop stop-color="#C4C4C4"/>
<stop offset="1" stop-color="#C4C4C4" stop-opacity="0"/>
</linearGradient>
<linearGradient id="paint9_linear" x1="17.7768" y1="71.3688" x2="9.66596" y2="101.639" gradientUnits="userSpaceOnUse">
<stop stop-color="#232323"/>
<stop offset="1" stop-color="#434343"/>
</linearGradient>
<radialGradient id="paint10_radial" cx="0" cy="0" r="1" gradientUnits="userSpaceOnUse" gradientTransform="translate(34.5 46.4998) rotate(90) scale(7.5)">
<stop stop-color="white"/>
<stop offset="1" stop-color="#595959" stop-opacity="0"/>
</radialGradient>
<radialGradient id="paint11_radial" cx="0" cy="0" r="1" gradientUnits="userSpaceOnUse" gradientTransform="translate(51.5 53.4998) rotate(90) scale(7.5)">
<stop stop-color="white"/>
<stop offset="1" stop-color="#444444" stop-opacity="0"/>
</radialGradient>
<radialGradient id="paint12_radial" cx="0" cy="0" r="1" gradientUnits="userSpaceOnUse" gradientTransform="translate(70.7545 34.754) rotate(74.8096) scale(28.2885)">
<stop stop-color="#FFC700"/>
<stop offset="1" stop-color="#C0931F" stop-opacity="0"/>
</radialGradient>
<clipPath id="clip0">
<rect width="138" height="105" fill="white" transform="translate(72 34.9998)"/>
</clipPath>
<clipPath id="clip1">
<rect width="55" height="105" fill="white" transform="translate(3 34.9998)"/>
</clipPath>
</defs>
</svg>
