<svg width="223" height="135" viewBox="0 0 223 135" fill="none" xmlns="http://www.w3.org/2000/svg">
<rect x="37" y="36.9999" width="160" height="96" rx="3" fill="#1B1B1B" stroke="#414141" stroke-width="4"/>
<rect x="39" y="38.9999" width="156" height="8" fill="#525252"/>
<path fill-rule="evenodd" clip-rule="evenodd" d="M182.253 23.7321C183.249 24.7084 183.249 26.2913 182.253 27.2676L166.939 42.2859C166.539 42.6779 166.539 43.3218 166.939 43.7139L182.253 58.7321C183.249 59.7084 183.249 61.2913 182.253 62.2676C181.258 63.244 179.644 63.244 178.648 62.2676L159.728 43.7139C159.328 43.3218 159.328 42.6779 159.728 42.2859L178.648 23.7321C179.644 22.7558 181.258 22.7558 182.253 23.7321Z" fill="#A4A4A4"/>
<path fill-rule="evenodd" clip-rule="evenodd" d="M199.747 23.7321C198.751 24.7084 198.751 26.2913 199.747 27.2676L215.061 42.2859C215.461 42.6779 215.461 43.3218 215.061 43.7139L199.747 58.7321C198.751 59.7084 198.751 61.2913 199.747 62.2676C200.742 63.244 202.356 63.244 203.352 62.2676L222.272 43.7139C222.672 43.3218 222.672 42.6779 222.272 42.2859L203.352 23.7321C202.356 22.7558 200.742 22.7558 199.747 23.7321Z" fill="#A4A4A4"/>
<path d="M144.374 104.998C135.792 119.863 116.783 124.957 101.917 116.374C87.0512 107.791 81.9578 88.7826 90.5406 73.9168C99.1234 59.051 118.132 53.9576 132.998 62.5404C147.864 71.1231 152.957 90.1319 144.374 104.998Z" fill="url(#paint0_linear)"/>
<circle opacity="0.2" cx="108" cy="105" r="3" fill="url(#paint1_linear)"/>
<circle cx="134.914" cy="79.9145" r="24" fill="url(#paint2_linear)"/>
<circle r="2" transform="matrix(-1 0 0 1 45 42.9999)" fill="#FF2C2C"/>
<circle r="2" transform="matrix(-1 0 0 1 51 42.9999)" fill="#FFB82F"/>
<circle r="2" transform="matrix(-1 0 0 1 57 42.9999)" fill="#4FD620"/>
<path d="M27.7577 8.61943L36.7018 34.0151L62.8892 27.7572L37.4935 36.7013L43.7515 62.8887L34.8073 37.493L8.61995 43.751L34.0156 34.8068L27.7577 8.61943Z" fill="url(#paint3_radial)"/>
<path d="M96.5257 43.9989L97.3049 43.0999L96.268 42.7822L96.4238 42.3926L97.3948 42.8482L97.2989 41.7873H97.7664L97.6585 42.8482L98.6115 42.4166L98.7673 42.7822L97.7424 43.0939L98.4976 43.9989L98.1679 44.2567L97.5206 43.2617L96.8493 44.2627L96.5257 43.9989ZM99.5225 43.9989L100.302 43.0999L99.2648 42.7822L99.4206 42.3926L100.392 42.8482L100.296 41.7873H100.763L100.655 42.8482L101.608 42.4166L101.764 42.7822L100.739 43.0939L101.494 43.9989L101.165 44.2567L100.517 43.2617L99.8462 44.2627L99.5225 43.9989ZM102.519 43.9989L103.299 43.0999L102.262 42.7822L102.417 42.3926L103.388 42.8482L103.293 41.7873H103.76L103.652 42.8482L104.605 42.4166L104.761 42.7822L103.736 43.0939L104.491 43.9989L104.162 44.2567L103.514 43.2617L102.843 44.2627L102.519 43.9989ZM105.516 43.9989L106.295 43.0999L105.258 42.7822L105.414 42.3926L106.385 42.8482L106.289 41.7873H106.757L106.649 42.8482L107.602 42.4166L107.758 42.7822L106.733 43.0939L107.488 43.9989L107.158 44.2567L106.511 43.2617L105.84 44.2627L105.516 43.9989ZM108.513 43.9989L109.292 43.0999L108.255 42.7822L108.411 42.3926L109.382 42.8482L109.286 41.7873H109.754L109.646 42.8482L110.599 42.4166L110.755 42.7822L109.73 43.0939L110.485 43.9989L110.155 44.2567L109.508 43.2617L108.837 44.2627L108.513 43.9989ZM111.51 43.9989L112.289 43.0999L111.252 42.7822L111.408 42.3926L112.379 42.8482L112.283 41.7873H112.751L112.643 42.8482L113.596 42.4166L113.751 42.7822L112.727 43.0939L113.482 43.9989L113.152 44.2567L112.505 43.2617L111.833 44.2627L111.51 43.9989ZM114.507 43.9989L115.286 43.0999L114.249 42.7822L114.405 42.3926L115.376 42.8482L115.28 41.7873H115.747L115.639 42.8482L116.592 42.4166L116.748 42.7822L115.723 43.0939L116.479 43.9989L116.149 44.2567L115.502 43.2617L114.83 44.2627L114.507 43.9989ZM117.503 43.9989L118.283 43.0999L117.246 42.7822L117.402 42.3926L118.373 42.8482L118.277 41.7873H118.744L118.636 42.8482L119.589 42.4166L119.745 42.7822L118.72 43.0939L119.475 43.9989L119.146 44.2567L118.498 43.2617L117.827 44.2627L117.503 43.9989ZM120.5 43.9989L121.279 43.0999L120.243 42.7822L120.398 42.3926L121.369 42.8482L121.273 41.7873H121.741L121.633 42.8482L122.586 42.4166L122.742 42.7822L121.717 43.0939L122.472 43.9989L122.143 44.2567L121.495 43.2617L120.824 44.2627L120.5 43.9989ZM123.497 43.9989L124.276 43.0999L123.239 42.7822L123.395 42.3926L124.366 42.8482L124.27 41.7873H124.738L124.63 42.8482L125.583 42.4166L125.739 42.7822L124.714 43.0939L125.469 43.9989L125.139 44.2567L124.492 43.2617L123.821 44.2627L123.497 43.9989ZM126.494 43.9989L127.273 43.0999L126.236 42.7822L126.392 42.3926L127.363 42.8482L127.267 41.7873H127.735L127.627 42.8482L128.58 42.4166L128.736 42.7822L127.711 43.0939L128.466 43.9989L128.136 44.2567L127.489 43.2617L126.818 44.2627L126.494 43.9989ZM129.491 43.9989L130.27 43.0999L129.233 42.7822L129.389 42.3926L130.36 42.8482L130.264 41.7873H130.731L130.624 42.8482L131.577 42.4166L131.732 42.7822L130.707 43.0939L131.463 43.9989L131.133 44.2567L130.486 43.2617L129.814 44.2627L129.491 43.9989ZM132.488 43.9989L133.267 43.0999L132.23 42.7822L132.386 42.3926L133.357 42.8482L133.261 41.7873H133.728L133.62 42.8482L134.573 42.4166L134.729 42.7822L133.704 43.0939L134.46 43.9989L134.13 44.2567L133.483 43.2617L132.811 44.2627L132.488 43.9989ZM135.484 43.9989L136.264 43.0999L135.227 42.7822L135.383 42.3926L136.353 42.8482L136.258 41.7873H136.725L136.617 42.8482L137.57 42.4166L137.726 42.7822L136.701 43.0939L137.456 43.9989L137.127 44.2567L136.479 43.2617L135.808 44.2627L135.484 43.9989Z" fill="white"/>
<defs>
<linearGradient id="paint0_linear" x1="126.332" y1="80.5823" x2="85.8191" y2="121.096" gradientUnits="userSpaceOnUse">
<stop stop-color="#232323"/>
<stop offset="1" stop-color="#494949"/>
</linearGradient>
<linearGradient id="paint1_linear" x1="104.992" y1="108.034" x2="111.03" y2="101.996" gradientUnits="userSpaceOnUse">
<stop stop-color="#C4C4C4"/>
<stop offset="1" stop-color="#C4C4C4" stop-opacity="0"/>
</linearGradient>
<linearGradient id="paint2_linear" x1="137.422" y1="70.5531" x2="125.972" y2="113.287" gradientUnits="userSpaceOnUse">
<stop stop-color="#232323"/>
<stop offset="1" stop-color="#434343"/>
</linearGradient>
<radialGradient id="paint3_radial" cx="0" cy="0" r="1" gradientUnits="userSpaceOnUse" gradientTransform="translate(35.7546 35.7541) rotate(73.5791) scale(28.2885)">
<stop stop-color="#FFC700"/>
<stop offset="1" stop-color="#C0931F" stop-opacity="0"/>
</radialGradient>
</defs>
</svg>
