<svg width="539" height="433" fill="none" xmlns="http://www.w3.org/2000/svg"><path d="M384.189 0H145.12c-4.964 0-8.988 4.035-8.988 9.011V369.92c0 4.977 4.024 9.012 8.988 9.012h239.069c4.964 0 8.988-4.035 8.988-9.012V9.011c0-4.976-4.024-9.011-8.988-9.011z" fill="#292929"/><path d="M152.085 18.034c2.358 0 4.269-1.714 4.269-3.83 0-2.115-1.911-3.83-4.269-3.83s-4.269 1.715-4.269 3.83c0 2.116 1.911 3.83 4.269 3.83z" fill="#FF5645"/><path d="M166.24 18.034c2.234 0 4.045-1.714 4.045-3.83 0-2.115-1.811-3.83-4.045-3.83-2.233 0-4.044 1.715-4.044 3.83 0 2.116 1.811 3.83 4.044 3.83z" fill="#FFCB3D"/><path d="M179.946 18.034c2.11 0 3.82-1.714 3.82-3.83 0-2.115-1.71-3.83-3.82-3.83a3.825 3.825 0 00-3.819 3.83c0 2.116 1.71 3.83 3.819 3.83z" fill="#3ABF7C"/><path d="M244.882 10.374h39.994a1.35 1.35 0 011.349 1.352v4.957a1.35 1.35 0 01-1.349 1.351h-39.994a1.35 1.35 0 01-1.348-1.351v-4.957a1.35 1.35 0 011.348-1.352zm114.142 0h21.57a1.35 1.35 0 011.348 1.352v4.957a1.35 1.35 0 01-1.348 1.351h-21.57a1.35 1.35 0 01-1.348-1.351v-4.957a1.35 1.35 0 011.348-1.352zm-29.659 0h21.121a1.35 1.35 0 011.348 1.352v4.957a1.35 1.35 0 01-1.348 1.351h-21.121a1.35 1.35 0 01-1.348-1.351v-4.957a1.35 1.35 0 011.348-1.352zM215.672 130.364h98.863a.9.9 0 01.899.901v7.671a.9.9 0 01-.899.901h-98.863a.9.9 0 01-.899-.901v-7.671a.9.9 0 01.899-.901zm-17.975-15.337h133.915a.9.9 0 01.899.901v7.671a.9.9 0 01-.899.901H197.697a.9.9 0 01-.899-.901v-7.671a.9.9 0 01.899-.901zm-45.837 49.88c0-.993.809-1.799 1.799-1.799h222.89c.993 0 1.798.806 1.798 1.799v146.161c0 .994-.809 1.8-1.798 1.8h-222.89a1.8 1.8 0 01-1.799-1.8V164.906zm1.406 159.506h102.793c.801 0 1.092.084 1.384.241.293.157.523.387.68.681.157.294.24.585.24 1.388v30.564c0 .804-.083 1.095-.24 1.389a1.641 1.641 0 01-.68.681c-.292.157-.583.241-1.384.241H153.266c-.801 0-1.092-.084-1.385-.241a1.633 1.633 0 01-.679-.681c-.157-.294-.24-.585-.24-1.389v-30.564c0-.803.083-1.094.24-1.388.156-.294.386-.524.679-.681.293-.157.584-.241 1.385-.241zm119.984 0h102.793c.801 0 1.092.084 1.385.241.293.157.522.387.679.681.157.294.24.585.24 1.388v30.564c0 .804-.083 1.095-.24 1.389a1.639 1.639 0 01-.679.681c-.293.157-.584.241-1.385.241H273.25c-.801 0-1.092-.084-1.385-.241a1.633 1.633 0 01-.679-.681c-.157-.294-.24-.585-.24-1.389v-30.564c0-.803.083-1.094.24-1.388.156-.294.386-.524.679-.681.293-.157.584-.241 1.385-.241z" fill="#383838"/><path d="M302.83 213.613c6.561 0 11.88-5.355 11.88-11.961 0-6.605-5.319-11.961-11.88-11.961-6.561 0-11.88 5.356-11.88 11.961 0 6.606 5.319 11.961 11.88 11.961z" fill="#676767"/><path d="M264.879 103.703v-1.802c2.5 0 4.955-.327 7.323-.966l.467 1.74a29.855 29.855 0 01-7.79 1.028zm15.043-4.067l-.906-1.557a28.193 28.193 0 005.836-4.54l1.279 1.267a30.041 30.041 0 01-6.209 4.83zm10.956-11.112l-1.563-.89a28.014 28.014 0 002.769-6.865l1.741.448a29.843 29.843 0 01-2.947 7.307zm3.882-15.17l-1.797.023a28.23 28.23 0 00-1.058-7.328l1.729-.492a29.992 29.992 0 011.126 7.798zm-4.252-15.032l-1.541.929a28.246 28.246 0 00-4.604-5.793l1.247-1.298a30.05 30.05 0 014.898 6.162zm-11.222-10.839l-.868 1.578a27.853 27.853 0 00-6.881-2.686l.424-1.751a29.645 29.645 0 017.325 2.859zm-15.176-3.696l.045 1.802a27.982 27.982 0 00-7.296 1.155l-.513-1.727a29.774 29.774 0 017.764-1.23zm-14.937 4.458l.946 1.532a28.221 28.221 0 00-5.719 4.69l-1.31-1.233a30.001 30.001 0 016.083-4.99zm-10.666 11.39l1.585.85a27.995 27.995 0 00-2.589 6.935l-1.752-.403c.59-2.58 1.518-5.06 2.756-7.381zm-3.49 15.264l1.797-.068c.094 2.5.516 4.95 1.246 7.3l-1.716.536a30 30 0 01-1.327-7.768zm4.639 14.917l1.516-.968a28.294 28.294 0 004.751 5.672l-1.213 1.33a30.078 30.078 0 01-5.054-6.034zm11.496 10.546l.827-1.6a27.842 27.842 0 006.949 2.506l-.379 1.761a29.597 29.597 0 01-7.397-2.667zm32.54 185.681l-15.592.071.044-.071h-68.102c-4.218 0-5.823-2.908-3.586-6.493l46.538-74.59c2.238-3.586 5.941-3.637 8.274-.106l34.582 52.754 12.233-19.648c1.973-3.167 5.244-3.217 7.31-.108l28.322 42.635c2.065 3.107.74 5.355-2.989 5.239l-20.712.198-6.54.029.055.09h-19.837z" fill="#FFC700"/><path opacity=".177" d="M303.344 286.146H199.858c-4.219 0-5.824-2.908-3.587-6.494l46.538-74.589c2.238-3.587 5.941-3.637 8.274-.107l40.244 61.393" fill="#444"/><path d="M536.978 433h-46.061c-1.079 0-2.023-.78-2.023-1.716v-.624c0-.935.899-1.715 2.023-1.715h46.061c1.078 0 2.022.78 2.022 1.715v.624c0 .936-.899 1.716-2.022 1.716zm-105.829-4.055c1.117 0 2.022.908 2.022 2.027 0 1.12-.905 2.028-2.022 2.028h-73.248a2.026 2.026 0 01-2.023-2.028c0-1.119.906-2.027 2.023-2.027h73.248z" fill="#383838"/><path d="M537.223 428.958a2.195 2.195 0 00-.245-.013h-45.907l3.632-22.985 32.176-4.371 10.344 27.369zm-105.806.004a2.154 2.154 0 00-.268-.017h-72.93a4.595 4.595 0 01-.066-.961c.05-.314.057-.675.153-1.033.577-2.153 1.276-3.583 3.32-4.854a56.927 56.927 0 016.307-3.405c8.021-3.78 10.762-3.732 16.036-7.2 2.182-1.449 4.189-3.126 6.063-4.941 1.25-1.21 3.801-3.175 7.654-5.897l34.645.778-.914 27.53z" fill="#474961"/><path d="M480.18 152.841c3.42 6.677 12.678 27.394 20.942 69.565a2118.28 2118.28 0 011.961 10.213l.063-.077c11.326 42.789 19.187 72.744 23.585 89.865 4.516 17.585-1.747 17.311 1.678 32.105 1.975 8.529 8.59 15.388 8.533 24.269-.009 1.403.025 4.208.102 8.416.136 7.514-5.341 13.949-12.764 14.995l-29.981 4.225c-8.111 1.143-15.61-4.523-16.75-12.655l-.029-.225c-.809-6.487-1.219-10.343-1.229-11.569-.021-2.54-.053-4.853-.102-6.96l-4.976-20.412c-1.955-3.028-4.254-7.213-6.067-13.984-1.192-4.455-3.903-21.793-8.131-52.016-.081-.406-.236-1.655-.464-3.749l-5.919-21.843c-.247 2.551-.498 5.132-.753 7.736.522 36.2.508 56.537-.041 61.009-1.729 14.075-6.902 17.95-7.053 22.373-.148 4.332.508 10.646 1.757 20.136.16 1.215.29 5.091.389 11.628l.002.227a14.871 14.871 0 01-10.175 14.121c-3.718 3.394-9.704.812-25.423.919 0 0-2.418.022-5.612-.171h-3.896a14.74 14.74 0 01-6.461-1.484c-1.858-.522-3.396-1.208-4.252-2.11-.716-.774-1.167-1.653-1.167-1.653a8.367 8.367 0 01-.476-1.397 14.847 14.847 0 01-2.365-6.425c-.508-4.177-.864-6.96-1.067-8.348-1.29-8.787 4.31-16.502 5.081-25.224 1.338-15.128-4.826-13.982-2.794-32.026 1.959-17.405 5.668-37.496 11.124-60.272 3.156-35.873 7.31-76.179 11.885-89.723.077-.242 2.931-9.843 7.057-16.62.126.136.257.267.392.392a6.618 6.618 0 001.543 1.099c1.027.613 1.877.824 1.877.824s.043-.001.086.043c0 0 27.551 6.909 54.887-.96l.084-.047s.842-.24 1.847-.888a10.04 10.04 0 001.504-1.153c.626-.614 1.143-1.354 1.568-2.169z" fill="#353535"/><path opacity=".177" d="M422.286 158.499l14.385 53.18 13.947 51.468c-.242 2.504-.489 5.038-.739 7.593.522 36.2.508 56.537-.041 61.009-1.729 14.075-6.902 17.95-7.053 22.373-.148 4.332.508 10.646 1.757 20.136.16 1.215.289 5.091.389 11.628l.002.227a14.871 14.871 0 01-10.175 14.121c-3.718 3.394-9.704.812-25.423.919 0 0-2.418.022-5.612-.171h-3.896a14.74 14.74 0 01-6.461-1.484c-1.858-.522-3.396-1.208-4.252-2.11-.716-.774-1.167-1.653-1.167-1.653a8.367 8.367 0 01-.476-1.397 14.847 14.847 0 01-2.365-6.425c-.508-4.177-.864-6.96-1.067-8.348-1.29-8.787 4.31-16.502 5.081-25.224 1.338-15.128-4.826-13.982-2.794-32.026 1.959-17.405 5.668-37.496 11.124-60.272 3.156-35.873 7.31-76.179 11.885-89.723.077-.242 2.931-9.843 7.057-16.62.126.136.257.267.392.392a6.618 6.618 0 001.543 1.099c1.027.613 1.877.824 1.877.824s.043-.001.086.043c0 0 .703.177 1.996.441z" fill="#444"/><path d="M480.658 96.28c.051.517.102 1.052.151 1.604l.003.135.123 2.206c.724 24.548 1.085 35.582 1.287 39.905 0 0-.034.451.02 1.126.119 1.981.303 10.134-3.443 13.805-.5.459-1.043.874-1.504 1.153-1.004.648-1.847.888-1.847.888l-.084.047c-27.336 7.869-54.887.96-54.887.96-.466-.123-.915-.249-1.77-.677-.839-.419-1.638-1.038-1.893-1.279-3.829-3.538-3.771-11.703-3.721-13.687l-.019-1.126c.048-4.123.031-14.136-.081-35.86-10.733-.998-15.078-4.102-13.036-9.312 4.64-11.834 7.714-23.19 26.109-24.502 4.514-2.256 9.442-3.012 12.873-3.242 1.987-.125 3.469-.106 4.062-.071.254-.004.594.035 1.229.069.636.034 1.356.066 2.161.097.803-.06 1.522-.117 2.156-.173.634-.056.929-.106 1.225-.112.634-.056 2.072-.126 4.063-.07.475.015.978.038 1.506.074.265-.061.535-.122.809-.18 18.907-4.092 24.885 6.266 32.562 16.682 3.072 4.17.387 8.016-8.054 11.54z" fill="#FFCB3D"/><path opacity=".177" d="M425.781 71.665c-2.627 1.327-5.108 3.167-7.065 5.712-.869 1.141-1.982 2.873-2.828 5.367-.12.362-.242.68-.363 1.043-.282.77-.889 2.403-1.409 4.17-.557 1.993-.999 5.786-1.289 11.063l.003.135-.046 2.209.021 4.045c-10.468-1.034-14.692-4.127-12.673-9.277 4.601-11.736 7.662-23 25.649-24.467z" fill="#444"/><path d="M477.554 206.504c-.375.291-.597.421-.597.421-5.899-.993 2.536-22.9 5.05-29.1l-21.175-75.948c13.145-2.786 21.816-5.823 26.013-9.112 11.416 46.058 17.585 75.598 18.506 88.621.071.413.114.856.129 1.328.246 7.579-2.266 19.177-7.535 34.795-.042.092-13.746 6.838-23.387 1.135l2.996-12.14zM419.89 28.701l.056-.076c3.944-4.432 11.205-4.301 14.475-3.594.397.087 1.809.417 3.85.768 1.108.207 2.002.302 2.534.403 6.631.97 9.352.442 12.516 2.587.593.38 1.938 1.337 3.025 3.038 3.066 4.808 1.616 10.454 1.214 12.134-1.34 5.023-4.619 7.849-5.649 9.054-.766.912-1.83 1.93-2.865 2.848l1.002 14.542c.011.316-.113.635-.378.78a15.784 15.784 0 01-4.826 2.153c-3.698.986-6.909.467-8.724-.01a.866.866 0 01-.657-.789l-.542-9.536c-.394.103-.814.21-1.261.321-3.949 1.034-3.712.923-3.989.984-2.891.42-5.295.077-5.732-.06-1.595-.304-3.152-1.827-4.432-4.273-1.737-3.263-3.071-8.206-3.458-14.001-.094-.825-.054-1.637-.014-2.448l.662-8.04a10.211 10.211 0 011.796-5.066c.433-.68.851-1.224 1.35-1.67l.047-.049zm-19.894 71.882c1.429 2.587 5.761 4.217 12.997 4.89.079 15.198.111 24.664.106 30.392-10.791 13.326-18.012 11.247-18.012 11.247-5.029.218-8.875-2.075-10.326-2.955-12.66-7.656-36.693-50.26-40.838-57.722-5.471-.752-10.58-2.194-15.324-4.325-7.568-3.4-10.617-6.625-9.148-9.677l38.78 2.511.107-.074 33.632 35.491c3.525-3.755 5.92-6.822 8.026-9.778z" fill="#F2A98A"/><path opacity=".2" d="M400.141 100.583c1.429 2.587 5.761 4.217 12.997 4.89.079 15.198.111 24.664.106 30.392-10.791 13.326-18.012 11.247-18.012 11.247-5.029.218-8.875-2.075-10.326-2.955-12.66-7.656-36.693-50.26-40.838-57.722-5.471-.752-10.58-2.194-15.324-4.325-7.568-3.4-10.617-6.625-9.148-9.677l38.78 2.511.107-.074 33.632 35.491c3.525-3.755 5.92-6.822 8.026-9.778z" fill="#8C2A00"/><path d="M434.192 63.16l6.621-2.117-5.416 8.297-1.205-6.18zM450.33 44.948a5.988 5.988 0 00-.762-3.244c-1.218-2.166-3.782-3.568-6.002-3.077-1.25.276-2.153 1.133-2.252 1.213-1.367 1.397-1.804 2.982-1.804 2.982l-.22 1.052c-16.105-6.156-19.226-13.93-20.065-14.42.256-.29.508-.535.666-.745 3.99-4.428 11.385-4.285 14.7-3.574.442.091 1.853.42 3.94.776 1.152.212 2.046.306 2.578.407 6.765.983 9.531.458 12.739 2.607.593.38 1.983 1.341 3.07 3.041 3.389 5.159 1.843 10.84 1.255 12.138-.412.908-1.059 1.474-1.059 1.474-2.38-.357-4.599-.515-6.784-.63zm-35.443-3.665c-.444-.114-.548-.706-.217-1.004.423-.339 1.16-.661 2.057-.614 1.84.096 3.751 1.414 1.658 1.846-1.228.252-2.655-.004-3.498-.228zm9.229.798c-.445-.113-.548-.705-.173-1.002.423-.338 1.16-.66 2.102-.611 1.84.096 3.749 1.459 1.658 1.846-1.32.292-2.744-.008-3.587-.233zM418.228 44.617c-.085.763-.286 2.016-.758 2.442-.798.635-1.668-1.667-1.011-3.031.255-.573.573-.647.93-.583.534.118.867.632.839 1.172zm8.037.332c.005.768-.061 2.027-.538 2.544-.713.73-1.856-1.497-1.332-2.913.21-.575.531-.694.89-.675.538.028.964.502.98 1.044zM422.104 53.98c.318-.073 1.093-.258 1.254-.746.004-.09.056-.223.016-.315-.163-.325-.711-.173-1.521-.17-1.441.014-2.601-.182-2.601-.182s.268.916.478 1.198c.413.699 1.873.324 2.374.215zM419.525 44.776l.007-.063-.006.031-.001.032zm-.918 4.717c-.111.503.256 1.021.763 1.134l.183.026c.755.098 1.227.144 2.04.187a.45.45 0 00.047-.9 22.209 22.209 0 01-1.971-.181l-.144-.019a.277.277 0 01-.038-.064l.927-4.79.008-.063.139-2.655a.45.45 0 10-.898-.047l-.137 2.623-.919 4.749z" fill="#482D1F"/><path d="M450.304 44.263a6.542 6.542 0 01-1.034 3.826c-.874 1.372-1.974 2.055-3.351 2.524a.45.45 0 00.289.853 7.536 7.536 0 001.665-.772 6.708 6.708 0 002.151-2.115 7.44 7.44 0 001.177-4.362.45.45 0 10-.897.046zM484.641 204.252a.674.674 0 111.323.259c-.447 2.301-.852 4.078-1.796 8.026-.94 3.929-1.341 5.693-1.784 7.969a.673.673 0 11-1.323-.259c.447-2.301.852-4.078 1.796-8.025.94-3.93 1.341-5.694 1.784-7.97zm9.114-1.982a.674.674 0 111.305.34c-.642 2.474-1.096 4.404-2.074 8.709-.981 4.318-1.438 6.257-2.084 8.749a.674.674 0 11-1.305-.34c.642-2.475 1.096-4.404 2.074-8.709.981-4.319 1.438-6.257 2.084-8.749z" fill="#482D1F"/><path d="M341.948 82.572c15.883 0 28.76-13.012 28.76-29.062s-12.877-29.062-28.76-29.062c-15.884 0-28.761 13.011-28.761 29.062 0 16.05 12.877 29.062 28.761 29.062z" fill="#FFC700"/><path d="M342.026 52.831c-3.174 0-5.746-2.547-5.746-5.689s2.572-5.69 5.746-5.69c3.173 0 5.745 2.548 5.745 5.69 0 3.142-2.572 5.69-5.745 5.69zm0 2.845c5.751 0 10.413 4.617 10.413 10.312h-20.827c0-5.695 4.662-10.312 10.414-10.312z" fill="#F2F6FB"/><path d="M35.157 332.799v.084c0 1.081.943 1.983 2.022 1.983h33.929l-11.955 21.988a23872.882 23872.882 0 00-25.524 46.994l-14.066 25.863c-.494.901-.09 2.073.854 2.614l.18.09c.944.54 2.157.225 2.606-.631l52.623-96.918h35.051l52.622 96.918c.45.856 1.663 1.126 2.607.631l.179-.09c.944-.541 1.349-1.713.854-2.614l-14.065-25.863a23865.88 23865.88 0 01-25.525-46.994l-11.954-21.988h44.983c1.124 0 2.023-.902 2.023-1.983v-.225c0-1.082-.944-1.983-2.023-1.983H39.124l-3.788-30.729c-2.606-20.906-5.167-41.858-7.774-62.81l-4.269-34.604c-.135-1.216-1.168-2.117-2.292-1.982l-.224.045c-1.079.135-1.843 1.261-1.708 2.388l16.043 129.585c.011.078.026.156.045.231z" fill="#D8DEED"/><path d="M132.866 429.12a2.018 2.018 0 00-.91-.218h-24.299L63.063 395.59l16.897-23.734 27.052 19.69c1.483 5.047 3.011 10.093 4.539 15.185.809 2.658 1.618 5.271 2.427 7.885 2.516.991 4.673 1.892 6.201 2.568 2.921 1.262 5.393 2.433 8.089 4.19 0 0 2.337 1.442 3.64 3.515.404.676.764 1.442.989 2.253.09.36.09.721.134 1.036-.014.296-.08.627-.165.942zm84.169-.075a2.055 2.055 0 00-.461-.053h-72.35c-.135 0-.267.014-.395.039l-.703-28.089 33.977-.098c4.152 2.721 6.853 4.686 8.102 5.896 1.875 1.815 3.881 3.492 6.064 4.941 5.274 3.468 8.015 3.42 16.036 7.2a56.913 56.913 0 016.306 3.405c2.045 1.271 2.744 2.701 3.321 4.854.096.359.102.719.153 1.034.006.355-.013.64-.05.871z" fill="#474961"/><path d="M106.02 432.595a1.617 1.617 0 01-.131-.091l-45.118-33.702c-.898-.676-1.078-1.983-.404-2.884a2.065 2.065 0 012.876-.406l44.635 33.343h24.3c1.123 0 2.067.946 2.067 2.072 0 1.127-.944 2.073-2.067 2.073h-24.941c-.457 0-.877-.149-1.217-.405zm38.426-3.65h72.35c1.117 0 2.022.908 2.022 2.028a2.025 2.025 0 01-2.022 2.027h-72.35a2.025 2.025 0 01-2.023-2.027c0-1.12.906-2.028 2.023-2.028zM192.312 314.372c-3.348 17.647-4.718 43.512-1.434 59.794 0 0 3.41 27.98 1.021 28.16-.58.046-6.741.316-7.392.361-16.216 1.081-44.377 3.244-48.576 3.244-2.799 0-4.198-1.802-4.198-5.407l-.914-9.679v-.078a13028.01 13028.01 0 01-9.645 11.525c-4.958 1.476-12.458-.638-22.5-6.341-10.04-5.703-17.813-11.325-23.317-16.867-2.65-1.712-9.103-11.181-7.396-13.659l11.28-16.491 6.74-9.868c1.888-2.793 3.313-4.646 5.335-7.574 0-.045.362-.581.362-.626-.72 0 .1-.586-5.022-.631-5.123-.045-32.715-.631-43.276-15.905-4.212-6.094-4.538-12.842-4.853-15.861-1.168-11.744 1.922-21.263 9.27-28.554 1.969-1.45 3.418-2.31 4.346-2.58 1.483-.451 9.302-.676 10.83-.766l31.367-.406c14.926-.198 27.388-.368 37.386-.507l.007-.078-.007.078c20.203-.283 30.345-.444 30.425-.484.18-.09 19.567.721 24.779 3.74 9.985 5.865 15.235 24.348 5.382 45.46z" fill="#FFCB3D"/><path opacity=".2" d="M192.214 314.547c-3.335 17.645-4.694 43.444-1.416 59.695 0 0 3.41 27.981 1.021 28.161-.579.045-6.74.315-7.392.361-16.216 1.081-44.376 3.244-48.575 3.244-2.799 0-4.199-1.803-4.199-5.407l-.912-9.663c38.714-46.321 58.977-71.311 60.79-74.969.235-.475.463-.949.683-1.422zm-60.579-48.672l.018-.221-.018.221zm16.972-.243h-.026l-.64-.113h.073l.593.113z" fill="#8C2A00"/><path d="M112.06 300.811c-2.218 3.363-4.553 6.63-10.222 14.406-5.689 7.802-8.03 11.08-10.27 14.476a.902.902 0 00.254 1.248.897.897 0 001.245-.254c2.218-3.363 4.553-6.63 10.222-14.406 5.689-7.803 8.031-11.08 10.27-14.476a.903.903 0 00-.254-1.249.897.897 0 00-1.245.255z" fill="#482D1F"/><path d="M187.33 185.285c1.499 1.173 1.743 3.367.546 4.901a3.39 3.39 0 01-.056.069l-18.636 22.7c-.957 1.165-2.646 1.37-3.807.461-1.162-.908-1.372-2.599-.474-3.81l17.491-23.595c1.159-1.563 3.338-1.912 4.866-.779l.07.053z" fill="#474961"/><path d="M183.358 190.083c3.867 3.021 9.455 2.33 12.482-1.545 1.455-1.862-.501-5.69.055-11.404.13-1.335 1.074-3.501 2.832-6.497a.445.445 0 00-.155-.614.442.442 0 00-.345-.041c-8.985 2.592-14.448 5.13-16.39 7.616-3.026 3.874-2.346 9.463 1.521 12.485z" fill="#F2F6FB"/><path d="M187.625 184.664c.912.712 3.947-1.19 4.377-.216 1.441 3.265 1.349 7.701 3.804 4.559 1.531-1.96-.447-5.927.202-11.893.153-1.398 1.164-3.677 3.035-6.838a.447.447 0 00-.153-.616.446.446 0 00-.352-.04c-9.358 2.82-15.061 5.539-17.107 8.157-1.833 2.346-.395 3.538 2.357 3.889.962.123 1.626-1.024 2.987-1.302 1.514-.308-.038 3.606.85 4.3z" fill="#FFC700"/><path d="M100.199 185.455c10.982 3.742 17.843 15.074 15.658 27.154l-9.803 52.782-51.214 1.46c-2.926-.5-4.98-1.715-6.162-3.645-1.774-2.896-1.244-6.594-.983-8.02l9.783-52.189c2.422-13.243 14.88-22.272 27.957-20.317l.94-4.258a.908.908 0 011.06-.7l12.981 2.652a.874.874 0 01.672 1.053l-.889 4.028z" fill="#FF5645"/><mask id="a" maskUnits="userSpaceOnUse" x="53" y="155" width="124" height="110"><path d="M168.896 189.121c-5.097 8.31-7.648 12.525-7.651 12.644-.004.122-3.761-1.592-11.27-5.144l1.683-3.431-.601-.176c-3.897-1.082-3.638-1.053-3.904-1.145-2.685-1.117-4.551-2.632-4.873-2.941-2.777-2.516-1.928-10.685 2.719-19.811.364-.755.833-1.428 1.267-2.128l4.733-6.635c1.05-1.488 2.451-2.703 4.097-3.437.701-.319 1.373-.601 1.997-.749 7.476-2.125 13.437 3.976 14.517 5.05.141.11.253.255.393.365 1.08 1.363 2.468 2.044 3.759 2.994.56.438.652 1.26.239 1.861l-6.994 9.313c-.638.888 3.325.753 4.328 1.421 1.795 1.171 1.605 5.293.864 7.542-.783 2.448-2.857 3.945-4.924 4.351a7.717 7.717 0 01-.379.056zm-71.999 46.594c-.557-.83-1.11-1.66-1.662-2.49a1214.974 1214.974 0 01-12.723-19.588c-1.5-2.308-2.104-3.352-3.134-5.072-3.34-5.62-15.795-26.927-16.132-28.292-2.053-3.65 8.372-13.289 11.446-17.364 3.357 6.105 8.133 14.283 14.33 24.535 1.08 2.293 1.449 4.492 1.603 6.21 1.423 1.254 11.883 12.496 21.578 22.778l-.796-.85a38.12 38.12 0 0112.01-9.993 25.668 25.668 0 00-6.147 7.735l-2.82 5.488c5.678 6.005 10.812 11.365 13.32 13.754.502-.342 5.813-4.841 15.935-13.497l16.592 22.041c-2.736 2.616-7.508 6.518-14.317 11.706-10.213 7.782-16.841 14.346-25.716 11.048-2.07-.767-4.201-2.494-8.157-7.355-3.723-4.576-7.036-9.02-10.136-13.41l-9.537 18.563.015.011-.046.042-38.57-29.911c-2.009-1.615 1.473-1.246 10.444 1.107a232.6 232.6 0 0126.361 8.617l5.534-6.892c.24.36.483.72.725 1.079zm75.627-1.202c-6.946-1.618-12.191-5.147-15.734-10.586-3.543-5.439-3.028-11.274 1.547-17.503 5.256 1.881 9.454 5.607 12.594 11.177 3.141 5.57 3.672 11.207 1.593 16.912z" fill="#fff"/></mask><g mask="url(#a)"><path d="M90.903 201.375l.04-3.623a.7.7 0 01.695-.682.665.665 0 01.68.668l-.038 3.623a.7.7 0 01-.696.682.665.665 0 01-.68-.668z" fill="#482D1F"/><path opacity=".2" d="M116.511 203.529c.746 1.557 1.475 3.583 2.188 6.079.714 2.496 1.108 5.438 1.185 8.827l-4.356.761c.418-2.171.707-3.726.868-4.665.304-1.769.63-3.333.643-4.558a34.536 34.536 0 00-.528-6.444zm-5.903 42.167l9.729-3.314.179 8.674c15.784 4.615 26.835 8.475 33.152 11.579 1.273.626 2.062 1.074 2.369 1.346.129.121.23.225.304.314.18.217-.005.444-.582.491-.386.031-16.696.421-48.931 1.168l3.78-20.258z" fill="#8C2A00"/></g><path fill-rule="evenodd" clip-rule="evenodd" d="M121.883 241.765c-.949.329-1.9.655-2.855.98l1.241-.421.271 8.75a238.18 238.18 0 0126.498 8.887c8.665 3.484 11.697 5.267 9.095 5.348l-49.294.688-.011-.06.019-.001 3.599-20.371c-5.169 1.627-10.544 3.169-16.33 4.572-6.145 1.49-8.914 1.587-11.05.96-8.065-2.357-10.078-9.724-12.834-19.804-.375-1.372-.764-2.794-1.183-4.26-2.335-8.162-3.81-14.093-4.425-17.793l26.784-7.556c2.898 12.88 4.445 19.605 4.641 20.175 3.475-.396 10.875-1.579 19.106-2.948l1.064-6.022c.577-3.36.458-6.671-.253-9.784a37.11 37.11 0 013.606 15.063l-.759.13-.399.068c4.023-.674 8.144-1.374 12.023-2.032 9.688-1.644 17.866-3.032 19.23-3.136 1.17-1.267 2.804-2.788 5.071-3.958 11.231-4.421 20.056-8.047 26.476-10.878 0 1.259.158 3.063.335 5.088.534 6.106 1.244 14.222-1.666 15.473-1.102.879-24.104 10.319-30.216 12.776l-.721.288a115.623 115.623 0 01-4.891 1.858 1245.066 1245.066 0 01-22.172 7.92zm-43.98-44.033c-6.166 2.193-12.541 1.861-19.127-.998 1.794-5.753 5.651-9.897 11.571-12.434 5.92-2.536 11.57-2.983 16.953-1.34-.1 7.655-3.232 12.579-9.397 14.772z" fill="#DB9E75"/><path d="M89.31 162.977c-.944 9.613-1.451 14.467-1.52 14.564-.072.099 4 .98 12.215 2.644l.73-3.718.591.219c3.801 1.466 3.574 1.334 3.845 1.42 2.844.716 5.27.629 5.718.576 3.77-.337 8.053-7.306 9.857-17.297.165-.814.196-1.626.272-2.438l.219-8.071c.059-1.803-.332-3.599-1.213-5.161-.372-.669-.742-1.294-1.155-1.782-4.736-6.136-13.253-4.86-14.778-4.654-.18.004-.359.052-.538.055-1.701.435-3.234.147-4.852.13-.719.013-1.293.608-1.325 1.33l-.024 11.537c-.026 1.082-3.14-1.386-4.354-1.455-2.16-.142-4.514 3.232-5.285 5.454-.857 2.403-.095 4.824 1.325 6.376.09.094.18.185.272.271z" fill="#DB9E75"/><path d="M115.911 160.113l-.007-.065.006.032.001.033zm.866 4.706l.007.05c.034.491-.269.97-.752 1.086a3.721 3.721 0 01-.188.028c-.472.065-.812.093-2.034.179a.45.45 0 01-.062-.899c1.199-.084 1.53-.112 1.975-.173l.139-.019c-.01 0 .024-.054.025-.121l-.867-4.74-.007-.065-.095-2.658a.45.45 0 11.898-.032l.094 2.625.867 4.739zM118.216 159.575c.052-.546.472-.982 1.01-1.02.359-.025.685.133.864.753.414 1.416-.832 3.581-1.471 2.813-.486-.508-.439-1.776-.403-2.546zm-7.998.29c.052-.546.472-.982 1.01-1.02.359-.025.685.133.863.753.414 1.416-.831 3.581-1.47 2.813-.486-.508-.484-1.773-.403-2.546zM121.337 155.878c.442-.121.584-.673.248-.965-.429-.332-1.132-.734-2.032-.716-1.844.039-3.786 1.259-1.77 1.75 1.286.361 2.712.126 3.554-.069zm-8.697.61c.442-.121.584-.673.203-.963-.428-.331-1.132-.733-2.076-.712-1.845.039-3.784 1.304-1.77 1.75 1.331.358 2.756.123 3.643-.075zm-23.304 13.135c1.663-1.116 2.792-2.869 3.389-5.259-.82-.233-2.083-.736-3.107-1.893-1.375-1.553-2.136-3.928-1.277-6.241.77-2.222 2.987-3.973 5.147-3.831 1.214.069 2.17.728 2.306.816 1.502 1.1 2.157 2.531 2.157 2.531l.971 2.473c1.545-1.089 4.655-5.218 9.328-12.387 2.596-.313 4.601-.53 6.014-.651 2.12-.182 4.394.032 5.25-.312l-.184.459c.152-.267.23-.415.23-.415.043-.136-.688-.799-.69-.889-4.462-5.916-12.677-5.366-14.202-5.159-.18.003-.359.051-.539.009-2.512.314-4.623.396-6.06.467-6.827.254-9.493-.6-12.923 1.172-.624.326-2.093 1.118-3.369 2.718a11.544 11.544 0 00-1.703 2.809c-3.917-.128-6.699 1.824-8.344 5.857-2.198 5.386 1.172 10.263 5.368 12.257 1.77 4.42 6.621 7.603 10.53 6.331.703-.229 1.273-.516 1.708-.862zM113.093 168.787c-.321-.068-1.101-.284-1.27-.769-.007-.09-.061-.222-.022-.315.16-.282.752-.188 1.566-.155 1.443.034 2.6-.182 2.6-.182s-.296.924-.505 1.164c-.398.751-1.867.357-2.369.257zM100.037 179.915l-3.782-5.413 4.483 1.967-.701 3.446z" fill="#482D1F"/></svg>