<svg width="466" height="433" fill="none" xmlns="http://www.w3.org/2000/svg"><path d="M411.833 60.166H206.824c-6.071 0-10.992 4.942-10.992 11.04v46.917c0 6.097 4.921 11.04 10.992 11.04h205.009c6.071 0 10.992-4.943 10.992-11.04V71.205c0-6.097-4.921-11.04-10.992-11.04z" fill="#323232"/><path d="M388.446 114.945c-10.955 0-19.836-8.926-19.836-19.938 0-11.011 8.881-19.938 19.836-19.938 10.956 0 19.837 8.927 19.837 19.938 0 11.012-8.881 19.938-19.837 19.938zm-.01-20.207c2.701 0 4.891-2.172 4.891-4.85 0-2.678-2.19-4.85-4.891-4.85s-4.891 2.172-4.891 4.85c0 2.678 2.19 4.85 4.891 4.85zm0 2.425c-4.896 0-8.865 3.935-8.865 8.79h17.73c0-4.855-3.969-8.79-8.865-8.79zm-171.467-4.15h114.836c.607 0 1.099.495 1.099 1.104v5.768c0 .609-.492 1.104-1.099 1.104H216.969a1.102 1.102 0 01-1.099-1.104v-5.768c0-.61.492-1.104 1.099-1.104zm0 12.96h124.754c.608 0 1.1.494 1.1 1.104v5.767c0 .61-.492 1.104-1.1 1.104H216.969a1.101 1.101 0 01-1.099-1.104v-5.767c0-.61.492-1.104 1.099-1.104z" fill="#6F6F6F"/><path d="M343.707 80.054H216.969c-.607 0-1.099.494-1.099 1.104v5.767c0 .61.492 1.104 1.099 1.104h126.738c.607 0 1.099-.494 1.099-1.104v-5.767c0-.61-.492-1.104-1.099-1.104z" fill="#7E7E7E"/><path d="M345.879 0H140.87c-6.071 0-10.992 4.943-10.992 11.04v46.918c0 6.097 4.921 11.04 10.992 11.04h205.009c6.071 0 10.992-4.943 10.992-11.04V11.04c0-6.097-4.921-11.04-10.992-11.04z" fill="#6E6E6E"/><path d="M169.752 54.452c-10.955 0-19.836-8.927-19.836-19.938 0-11.012 8.881-19.938 19.836-19.938 10.956 0 19.837 8.926 19.837 19.938 0 11.011-8.881 19.938-19.837 19.938zm-.01-20.208c2.701 0 4.891-2.171 4.891-4.85 0-2.678-2.19-4.85-4.891-4.85s-4.891 2.172-4.891 4.85c0 2.679 2.19 4.85 4.891 4.85zm0 2.425c-4.896 0-8.865 3.936-8.865 8.79h17.73c0-4.854-3.969-8.79-8.865-8.79zm30.864-6.143h114.836c.607 0 1.099.494 1.099 1.104v5.768c0 .61-.492 1.103-1.099 1.103H200.606a1.101 1.101 0 01-1.099-1.103V31.63c0-.61.492-1.104 1.099-1.104zm0 12.96h134.672c.607 0 1.099.494 1.099 1.104v5.767c0 .61-.492 1.104-1.099 1.104H200.606a1.101 1.101 0 01-1.099-1.104V44.59c0-.61.492-1.104 1.099-1.104z" fill="#323232"/><path d="M287.671 17.566h-87.064c-.608 0-1.1.495-1.1 1.104v5.768c0 .61.492 1.104 1.1 1.104h87.064c.608 0 1.1-.495 1.1-1.104V18.67c0-.61-.492-1.104-1.1-1.104z" fill="#282828"/><path d="M313.139 379.458H78.451c-6.07 0-10.992 4.943-10.992 11.04v31.462c0 6.097 4.921 11.04 10.992 11.04H313.14c6.071 0 10.993-4.943 10.993-11.04v-31.462c0-6.097-4.922-11.04-10.993-11.04z" fill="#323232"/><path d="M265.873 398.778h32.977c1.756 0 3.318.393 4.621 1.114a7.718 7.718 0 013.063 3.077c.718 1.308 1.11 2.877 1.11 4.641 0 1.763-.392 3.332-1.11 4.64a7.718 7.718 0 01-3.063 3.077c-1.303.721-2.865 1.114-4.621 1.114h-32.977c-1.756 0-3.319-.393-4.622-1.114a7.725 7.725 0 01-3.063-3.077c-.718-1.308-1.109-2.877-1.109-4.64 0-1.764.391-3.333 1.109-4.641a7.725 7.725 0 013.063-3.077c1.303-.721 2.866-1.114 4.622-1.114z" fill="#FFC700"/><path d="M236.743 398.778h-146.2a2.203 2.203 0 00-2.198 2.208v13.247c0 1.22.984 2.208 2.199 2.208h146.199a2.203 2.203 0 002.198-2.208v-13.247c0-1.22-.984-2.208-2.198-2.208z" fill="#7E7E7E"/><path d="M330.489 163.132H132.626c-6.071 0-10.993 4.942-10.993 11.039v142.41c0 6.097 4.922 11.04 10.993 11.04h197.863c6.071 0 10.993-4.943 10.993-11.04v-142.41c0-6.097-4.922-11.039-10.993-11.039z" fill="#323232"/><path d="M156.562 229.299c-10.955 0-19.836-8.927-19.836-19.939 0-11.011 8.881-19.938 19.836-19.938 10.956 0 19.837 8.927 19.837 19.938 0 11.012-8.881 19.939-19.837 19.939zm-.01-20.208c2.702 0 4.891-2.171 4.891-4.85 0-2.678-2.189-4.85-4.891-4.85-2.701 0-4.891 2.172-4.891 4.85 0 2.679 2.19 4.85 4.891 4.85zm0 2.425c-4.896 0-8.865 3.936-8.865 8.79h17.73c0-4.854-3.969-8.79-8.865-8.79zm.01 91.554c-10.955 0-19.836-8.927-19.836-19.938 0-11.012 8.881-19.939 19.836-19.939 10.956 0 19.837 8.927 19.837 19.939 0 11.011-8.881 19.938-19.837 19.938zm-.01-20.208c2.702 0 4.891-2.171 4.891-4.85 0-2.678-2.189-4.85-4.891-4.85-2.701 0-4.891 2.172-4.891 4.85 0 2.679 2.19 4.85 4.891 4.85zm0 2.425c-4.896 0-8.865 3.936-8.865 8.79h17.73c0-4.854-3.969-8.79-8.865-8.79zm30.864-6.143h104.918c.607 0 1.099.494 1.099 1.104v5.767c0 .61-.492 1.104-1.099 1.104H187.416a1.101 1.101 0 01-1.099-1.104v-5.767c0-.61.492-1.104 1.099-1.104zm0 12.96h95c.607 0 1.099.494 1.099 1.104v5.767c0 .61-.492 1.104-1.099 1.104h-95a1.101 1.101 0 01-1.099-1.104v-5.767c0-.61.492-1.104 1.099-1.104z" fill="#595959"/><path d="M295.141 189.422H188.515a2.204 2.204 0 00-2.199 2.208v55.399c0 1.219.985 2.208 2.199 2.208h106.626a2.203 2.203 0 002.199-2.208V191.63a2.203 2.203 0 00-2.199-2.208z" fill="#3ABF7C"/><path fill-rule="evenodd" clip-rule="evenodd" d="M242.72 229.248l-1.042.013.009-.013h-13.645c-.609 0-.845-.416-.523-.936l9.48-15.299c.32-.516.852-.52 1.186-.012l6.948 10.674 2.498-4.041c.321-.518.856-.535 1.205-.026l5.792 8.455c.345.504.137.927-.476.946l-4.826.151-.796.01.046.078h-5.856zm5.72-14.201c-1.277 0-2.313-1.049-2.313-2.345 0-1.295 1.036-2.345 2.313-2.345 1.278 0 2.313 1.05 2.313 2.345 0 1.296-1.035 2.345-2.313 2.345z" fill="#fff"/><path d="M304.235 266.184H187.416c-.607 0-1.1.494-1.1 1.104v5.767c0 .61.493 1.104 1.1 1.104h116.819c.607 0 1.099-.494 1.099-1.104v-5.767c0-.61-.492-1.104-1.099-1.104z" fill="#7E7E7E"/><g clip-path="url(#clip0)" fill="#FFC700"><path d="M48.271 260.672c-10.526 3.335-26.122-15.384-29.638-26.348-5.745-17.909 6.383-26.155 11.54-27.822 2.326-.751 5.102-.637 7.551-.534 1.713.071 3.483.143 4.364-.141.527-.171 1.61-1.069 2.567-1.859 2.04-1.69 4.577-3.792 7.966-4.888l.02-.006c2.53-.818 10.383-2.74 17.226 2.723l1.603 1.281-1.177 1.68c-1.682 2.401-4.751 6.78-2.8 12.86 2.309 7.201 7.788 8.486 10.42 9.106 1.163.273 2.365.553 2.79 1.879.278.866-.643 21.678-10.639 24.909-2.446.79-4.411.611-6.145.453-1.754-.161-3.268-.298-5.467.413-1.115.36-2.355 1.345-3.667 2.389-1.795 1.423-3.825 3.037-6.445 3.883l-.069.022zM48.444 182.413c3.282 9.338-1.334 18.043-8.17 19.8-3.517-7.162 1.716-17.714 8.17-19.8z"/></g><g clip-path="url(#clip1)" fill="#FFC700"><path d="M435.063 217.959l-31.509-9.899a1.65 1.65 0 00-2.069 1.087l-7.89 25.301a8.313 8.313 0 003.886 9.729l-2.515 8.065c-.816 2.615.641 5.41 3.247 6.229 2.606.818 5.39-.644 6.205-3.259l2.466-7.907 3.151.99-2.466 7.907c-.815 2.615.641 5.41 3.247 6.228 2.606.819 5.39-.643 6.206-3.259l2.515-8.065a8.265 8.265 0 008.718-5.768l7.89-25.302a1.657 1.657 0 00-1.082-2.077zM433.805 195.558l4.596-5.386a1.66 1.66 0 00-.182-2.336 1.642 1.642 0 00-2.327.183l-4.597 5.39a18.046 18.046 0 00-5.08-2.537 18.013 18.013 0 00-5.614-.823l-.721-7.061c-.089-.913-.908-1.584-1.808-1.481a1.652 1.652 0 00-1.473 1.815l.717 7.056c-6.33 1.248-11.801 5.846-13.858 12.443a1.659 1.659 0 001.082 2.076l31.51 9.9a1.65 1.65 0 002.068-1.087c2.058-6.597.174-13.505-4.313-18.152zm-17.839 5.984a1.66 1.66 0 01-1.083-2.077 1.65 1.65 0 113.151.99 1.65 1.65 0 01-2.068 1.087zm12.603 3.959a1.659 1.659 0 01-1.082-2.076 1.65 1.65 0 012.069-1.087 1.66 1.66 0 011.082 2.077 1.65 1.65 0 01-2.069 1.086zM444.516 220.929c-2.605-.818-5.39.644-6.205 3.259l-4.932 15.814c-.815 2.616.642 5.41 3.247 6.229 2.606.819 5.391-.644 6.206-3.259l4.931-15.814c.816-2.615-.641-5.41-3.247-6.229zM394.101 205.09c-2.605-.818-5.39.644-6.205 3.26l-4.932 15.813c-.815 2.616.642 5.41 3.247 6.229 2.606.819 5.391-.643 6.206-3.259l4.931-15.814c.816-2.615-.641-5.41-3.247-6.229z"/></g><defs><clipPath id="clip0"><path transform="rotate(-17.908 628.53 99.033) skewX(-.125)" fill="#fff" d="M0 0h74.189v74.415H0z"/></clipPath><clipPath id="clip1"><path transform="rotate(17.441 -367.633 1358.824) skewX(.122)" fill="#fff" d="M0 0h79.272v79.515H0z"/></clipPath></defs></svg>