<svg width="391" height="433" viewBox="0 0 391 433" fill="none" xmlns="http://www.w3.org/2000/svg">
<path d="M49.1333 340.213H15.3884C14.3645 340.213 13.4687 339.359 13.4687 338.334V338.121C13.4687 337.096 14.3645 336.242 15.4737 336.242H46.7437C65.6849 336.242 84.626 336.242 103.525 336.242H132.534C133.557 336.242 134.453 337.096 134.453 338.121V338.334C134.453 339.359 133.6 340.213 132.534 340.213H91.3657L102.714 361.049C110.777 375.908 118.84 390.724 126.945 405.583L140.298 430.091C140.767 430.945 140.383 432.055 139.487 432.568L139.316 432.653C138.421 433.123 137.269 432.867 136.842 432.055L86.887 340.213H53.612L3.65681 432.055C3.23021 432.867 2.07838 433.165 1.18251 432.653L1.01187 432.568C0.116008 432.055 -0.267935 430.945 0.201328 430.091L13.554 405.583C21.6168 390.724 29.6796 375.908 37.785 361.049L49.1333 340.213ZM13.5967 323.481V298.655C13.5967 279.721 13.5967 260.831 13.5967 241.94V219.379C13.5967 215.842 16.4616 212.975 19.9957 212.975H89.6173C93.1514 212.975 96.0163 215.842 96.0163 219.379V323.554C96.0163 327.092 93.1514 329.959 89.6173 329.959C89.615 329.959 89.6128 329.959 89.6105 329.959L19.989 329.886C16.4575 329.882 13.5967 327.016 13.5967 323.481Z" fill="#575757"/>
<path d="M341.867 340.213H375.612C376.635 340.213 377.531 339.359 377.531 338.334V338.121C377.531 337.096 376.635 336.242 375.526 336.242H344.256C325.315 336.242 306.374 336.242 287.475 336.242H258.466C257.443 336.242 256.547 337.096 256.547 338.121V338.334C256.547 339.359 257.4 340.213 258.466 340.213H299.634L288.286 361.049C280.223 375.908 272.16 390.724 264.055 405.583L250.702 430.091C250.233 430.945 250.617 432.055 251.513 432.568L251.684 432.653C252.579 433.123 253.731 432.867 254.158 432.055L304.113 340.213H337.388L387.343 432.055C387.77 432.867 388.922 433.165 389.817 432.653L389.988 432.568C390.884 432.055 391.268 430.945 390.799 430.091L377.446 405.583C369.383 390.724 361.32 375.908 353.215 361.049L341.867 340.213ZM377.403 323.481V298.655C377.403 279.721 377.403 260.831 377.403 241.94V219.379C377.403 215.842 374.538 212.975 371.004 212.975H301.383C297.849 212.975 294.984 215.842 294.984 219.379V323.554C294.984 327.092 297.849 329.959 301.383 329.959C301.385 329.959 301.387 329.959 301.389 329.959L371.011 329.886C374.543 329.882 377.403 327.016 377.403 323.481Z" fill="#575757"/>
<path d="M203.819 23.4835H45.5489C44.1352 23.4835 42.9893 24.6305 42.9893 26.0454V146.452C42.9893 147.867 44.1352 149.014 45.5489 149.014H203.819C205.232 149.014 206.378 147.867 206.378 146.452V26.0454C206.378 24.6305 205.232 23.4835 203.819 23.4835Z" fill="#212121"/>
<mask id="mask0" mask-type="alpha" maskUnits="userSpaceOnUse" x="148" y="52" width="29" height="86">
<path d="M154.464 52.2037H170.939C172.841 52.2037 173.531 52.4019 174.226 52.774C174.921 53.1462 175.467 53.6922 175.838 54.388C176.21 55.0838 176.408 55.774 176.408 57.6773V132.133C176.408 134.036 176.21 134.726 175.838 135.422C175.467 136.118 174.921 136.664 174.226 137.036C173.531 137.408 172.841 137.606 170.939 137.606H154.464C152.562 137.606 151.873 137.408 151.178 137.036C150.482 136.664 149.937 136.118 149.565 135.422C149.193 134.726 148.995 134.036 148.995 132.133V57.6773C148.995 55.774 149.193 55.0838 149.565 54.388C149.937 53.6922 150.482 53.1462 151.178 52.774C151.873 52.4019 152.562 52.2037 154.464 52.2037Z" fill="white"/>
</mask>
<g mask="url(#mask0)">
<path d="M154.464 52.2037H170.939C172.841 52.2037 173.531 52.4019 174.226 52.774C174.921 53.1462 175.467 53.6922 175.838 54.388C176.21 55.0838 176.408 55.774 176.408 57.6773V132.133C176.408 134.036 176.21 134.726 175.838 135.422C175.467 136.118 174.921 136.664 174.226 137.036C173.531 137.408 172.841 137.606 170.939 137.606H154.464C152.562 137.606 151.873 137.408 151.178 137.036C150.482 136.664 149.937 136.118 149.565 135.422C149.193 134.726 148.995 134.036 148.995 132.133V57.6773C148.995 55.774 149.193 55.0838 149.565 54.388C149.937 53.6922 150.482 53.1462 151.178 52.774C151.873 52.4019 152.562 52.2037 154.464 52.2037Z" fill="#7A7A7A"/>
<path d="M150.217 100.57H175.186C175.611 100.57 175.765 100.614 175.92 100.697C176.076 100.78 176.198 100.902 176.281 101.058C176.364 101.213 176.408 101.367 176.408 101.793V137.606H148.995V101.793C148.995 101.367 149.039 101.213 149.122 101.058C149.206 100.902 149.327 100.78 149.483 100.697C149.638 100.614 149.792 100.57 150.217 100.57Z" fill="#515151"/>
</g>
<mask id="mask1" mask-type="alpha" maskUnits="userSpaceOnUse" x="111" y="52" width="28" height="86">
<path d="M116.608 52.2037H133.084C134.985 52.2037 135.675 52.4019 136.37 52.774C137.065 53.1462 137.611 53.6922 137.983 54.388C138.355 55.0838 138.553 55.774 138.553 57.6773V132.133C138.553 134.036 138.355 134.726 137.983 135.422C137.611 136.118 137.065 136.664 136.37 137.036C135.675 137.408 134.985 137.606 133.084 137.606H116.608C114.707 137.606 114.017 137.408 113.322 137.036C112.627 136.664 112.081 136.118 111.709 135.422C111.338 134.726 111.14 134.036 111.14 132.133V57.6773C111.14 55.774 111.338 55.0838 111.709 54.388C112.081 53.6922 112.627 53.1462 113.322 52.774C114.017 52.4019 114.707 52.2037 116.608 52.2037Z" fill="white"/>
</mask>
<g mask="url(#mask1)">
<path d="M116.608 52.2037H133.084C134.985 52.2037 135.675 52.4019 136.37 52.774C137.065 53.1462 137.611 53.6922 137.983 54.388C138.355 55.0838 138.553 55.774 138.553 57.6773V132.133C138.553 134.036 138.355 134.726 137.983 135.422C137.611 136.118 137.065 136.664 136.37 137.036C135.675 137.408 134.985 137.606 133.084 137.606H116.608C114.707 137.606 114.017 137.408 113.322 137.036C112.627 136.664 112.081 136.118 111.709 135.422C111.338 134.726 111.14 134.036 111.14 132.133V57.6773C111.14 55.774 111.338 55.0838 111.709 54.388C112.081 53.6922 112.627 53.1462 113.322 52.774C114.017 52.4019 114.707 52.2037 116.608 52.2037Z" fill="#7A7A7A"/>
<path d="M112.362 70.9402H137.331C137.756 70.9402 137.91 70.9845 138.065 71.0676C138.22 71.1508 138.342 71.2728 138.425 71.4283C138.508 71.5838 138.553 71.738 138.553 72.1633V137.606H111.14V72.1633C111.14 71.738 111.184 71.5838 111.267 71.4283C111.35 71.2728 111.472 71.1508 111.627 71.0676C111.783 70.9845 111.937 70.9402 112.362 70.9402Z" fill="#515151"/>
</g>
<mask id="mask2" mask-type="alpha" maskUnits="userSpaceOnUse" x="73" y="52" width="28" height="86">
<path d="M78.752 52.2037H95.2274C97.129 52.2037 97.8186 52.4019 98.5138 52.774C99.209 53.1462 99.7546 53.6922 100.126 54.388C100.498 55.0838 100.696 55.774 100.696 57.6773V132.133C100.696 134.036 100.498 134.726 100.126 135.422C99.7546 136.118 99.209 136.664 98.5138 137.036C97.8186 137.408 97.129 137.606 95.2274 137.606H78.752C76.8504 137.606 76.1608 137.408 75.4656 137.036C74.7704 136.664 74.2248 136.118 73.853 135.422C73.4812 134.726 73.2832 134.036 73.2832 132.133V57.6773C73.2832 55.774 73.4812 55.0838 73.853 54.388C74.2248 53.6922 74.7704 53.1462 75.4656 52.774C76.1608 52.4019 76.8504 52.2037 78.752 52.2037Z" fill="white"/>
</mask>
<g mask="url(#mask2)">
<path d="M78.752 52.2037H95.2274C97.129 52.2037 97.8186 52.4019 98.5138 52.774C99.209 53.1462 99.7546 53.6922 100.126 54.388C100.498 55.0838 100.696 55.774 100.696 57.6773V132.133C100.696 134.036 100.498 134.726 100.126 135.422C99.7546 136.118 99.209 136.664 98.5138 137.036C97.8186 137.408 97.129 137.606 95.2274 137.606H78.752C76.8504 137.606 76.1608 137.408 75.4656 137.036C74.7704 136.664 74.2248 136.118 73.853 135.422C73.4812 134.726 73.2832 134.036 73.2832 132.133V57.6773C73.2832 55.774 73.4812 55.0838 73.853 54.388C74.2248 53.6922 74.7704 53.1462 75.4656 52.774C76.1608 52.4019 76.8504 52.2037 78.752 52.2037Z" fill="#7A7A7A"/>
<path d="M74.5053 85.7549H99.4741C99.8991 85.7549 100.053 85.7992 100.209 85.8823C100.364 85.9655 100.486 86.0875 100.569 86.243C100.652 86.3985 100.696 86.5527 100.696 86.978V137.606H73.2832V86.978C73.2832 86.5527 73.3274 86.3985 73.4105 86.243C73.4936 86.0875 73.6155 85.9655 73.7709 85.8823C73.9262 85.7992 74.0803 85.7549 74.5053 85.7549Z" fill="#515151"/>
</g>
<path d="M42.9893 30.5829C42.9893 26.662 46.1616 23.4835 50.082 23.4835H199.285C203.203 23.4835 206.378 26.6612 206.378 30.5829V37.6823H42.9893V30.5829Z" fill="#383838"/>
<path d="M352.703 0H196.993C192.281 0 188.461 3.82326 188.461 8.53949V121.261C188.461 125.977 192.281 129.8 196.993 129.8H352.703C357.415 129.8 361.235 125.977 361.235 121.261V8.53949C361.235 3.82326 357.415 0 352.703 0Z" fill="#292929"/>
<path d="M276.798 36.8136L304.189 45.2373L333.119 61.2706L335.04 57.9251L305.751 41.6926L276.311 32.639L246.624 49.7781L217.007 59.7985L218.28 63.4303L248.267 53.2847L276.798 36.8136Z" fill="#7A7A7A"/>
<path d="M216.489 66.6852C213.807 66.6852 211.633 64.5579 211.633 61.9337C211.633 59.3095 213.807 57.1822 216.489 57.1822C219.17 57.1822 221.344 59.3095 221.344 61.9337C221.344 64.5579 219.17 66.6852 216.489 66.6852ZM245.623 55.8246C242.941 55.8246 240.767 53.6973 240.767 51.0731C240.767 48.4489 242.941 46.3216 245.623 46.3216C248.304 46.3216 250.478 48.4489 250.478 51.0731C250.478 53.6973 248.304 55.8246 245.623 55.8246ZM274.757 39.5337C272.075 39.5337 269.901 37.4063 269.901 34.7822C269.901 32.158 272.075 30.0306 274.757 30.0306C277.439 30.0306 279.613 32.158 279.613 34.7822C279.613 37.4063 277.439 39.5337 274.757 39.5337ZM303.891 47.6791C301.209 47.6791 299.035 45.5518 299.035 42.9276C299.035 40.3034 301.209 38.1761 303.891 38.1761C306.573 38.1761 308.747 40.3034 308.747 42.9276C308.747 45.5518 306.573 47.6791 303.891 47.6791ZM333.025 65.3276C330.344 65.3276 328.17 63.2003 328.17 60.5761C328.17 57.9519 330.344 55.8246 333.025 55.8246C335.707 55.8246 337.881 57.9519 337.881 60.5761C337.881 63.2003 335.707 65.3276 333.025 65.3276Z" fill="#FFCB3D"/>
<path d="M288.412 85.998V108.473C288.412 109.377 287.679 110.113 286.774 110.113H285.891C284.987 110.113 284.253 109.379 284.253 108.473V85.998C284.253 85.0937 284.986 84.3575 285.891 84.3575H286.774C287.678 84.3575 288.412 85.092 288.412 85.998ZM280.093 90.0633V108.474C280.093 109.379 279.359 110.113 278.455 110.113H277.571C276.667 110.113 275.933 109.379 275.933 108.474V90.0633C275.933 89.1583 276.666 88.4242 277.571 88.4242H278.455C279.359 88.4242 280.093 89.1581 280.093 90.0633ZM271.773 77.8644V108.473C271.773 109.382 271.04 110.113 270.135 110.113H269.251C268.347 110.113 267.613 109.379 267.613 108.473V77.8644C267.613 76.9556 268.347 76.2242 269.251 76.2242H270.135C271.039 76.2242 271.773 76.9585 271.773 77.8644ZM263.453 85.998V108.473C263.453 109.377 262.72 110.113 261.815 110.113H260.932C260.028 110.113 259.294 109.379 259.294 108.473V85.998C259.294 85.0937 260.027 84.3575 260.932 84.3575H261.815C262.719 84.3575 263.453 85.092 263.453 85.998ZM255.134 73.8006V108.47C255.134 109.38 254.4 110.113 253.496 110.113H252.612C251.708 110.113 250.974 109.378 250.974 108.47V73.8006C250.974 72.8902 251.707 72.1575 252.612 72.1575H253.496C254.4 72.1575 255.134 72.8931 255.134 73.8006ZM246.814 77.8644V108.473C246.814 109.382 246.081 110.113 245.176 110.113H244.292C243.388 110.113 242.654 109.379 242.654 108.473V77.8644C242.654 76.9556 243.388 76.2242 244.292 76.2242H245.176C246.08 76.2242 246.814 76.9585 246.814 77.8644ZM238.494 71.0909V108.469C238.494 109.381 237.761 110.113 236.856 110.113H235.973C235.069 110.113 234.335 109.377 234.335 108.469V71.0909C234.335 70.1782 235.068 69.4463 235.973 69.4463H236.856C237.76 69.4463 238.494 70.1826 238.494 71.0909ZM230.175 68.3762V108.472C230.175 109.378 229.441 110.113 228.537 110.113H227.653C226.749 110.113 226.015 109.379 226.015 108.472V68.3762C226.015 67.4699 226.748 66.7352 227.653 66.7352H228.537C229.441 66.7352 230.175 67.4699 230.175 68.3762ZM221.855 77.8644V108.473C221.855 109.382 221.122 110.113 220.217 110.113H219.333C218.429 110.113 217.695 109.379 217.695 108.473V77.8644C217.695 76.9556 218.429 76.2242 219.333 76.2242H220.217C221.121 76.2242 221.855 76.9585 221.855 77.8644ZM338.33 85.998V108.473C338.33 109.377 337.597 110.113 336.692 110.113H335.809C334.905 110.113 334.171 109.379 334.171 108.473V85.998C334.171 85.0937 334.904 84.3575 335.809 84.3575H336.692C337.596 84.3575 338.33 85.092 338.33 85.998ZM330.011 73.8006V108.47C330.011 109.38 329.277 110.113 328.373 110.113H327.489C326.585 110.113 325.851 109.378 325.851 108.47V73.8006C325.851 72.8902 326.584 72.1575 327.489 72.1575H328.373C329.277 72.1575 330.011 72.8931 330.011 73.8006ZM321.691 77.8644V108.473C321.691 109.382 320.958 110.113 320.053 110.113H319.169C318.265 110.113 317.531 109.379 317.531 108.473V77.8644C317.531 76.9556 318.265 76.2242 319.169 76.2242H320.053C320.957 76.2242 321.691 76.9585 321.691 77.8644ZM313.371 71.0909V108.469C313.371 109.381 312.638 110.113 311.733 110.113H310.85C309.946 110.113 309.212 109.377 309.212 108.469V71.0909C309.212 70.1782 309.945 69.4463 310.85 69.4463H311.733C312.637 69.4463 313.371 70.1826 313.371 71.0909ZM305.052 68.3762V108.472C305.052 109.378 304.318 110.113 303.414 110.113H302.53C301.626 110.113 300.892 109.379 300.892 108.472V68.3762C300.892 67.4699 301.625 66.7352 302.53 66.7352H303.414C304.318 66.7352 305.052 67.4699 305.052 68.3762ZM296.732 77.8644V108.473C296.732 109.382 295.999 110.113 295.094 110.113H294.21C293.306 110.113 292.572 109.379 292.572 108.473V77.8644C292.572 76.9556 293.306 76.2242 294.21 76.2242H295.094C295.998 76.2242 296.732 76.9585 296.732 77.8644Z" fill="#7A7A7A"/>
<path d="M188.461 7.34089C188.461 3.28663 191.749 0 195.795 0H353.901C357.951 0 361.235 3.28574 361.235 7.34089V14.6818H188.461V7.34089Z" fill="#383838"/>
<path d="M198.514 10.6775C200.302 10.6775 201.751 9.25828 201.751 7.50757C201.751 5.75687 200.302 4.33765 198.514 4.33765C196.726 4.33765 195.276 5.75687 195.276 7.50757C195.276 9.25828 196.726 10.6775 198.514 10.6775Z" fill="#FF5645"/>
<path d="M209.077 10.6775C210.865 10.6775 212.315 9.25828 212.315 7.50757C212.315 5.75687 210.865 4.33765 209.077 4.33765C207.289 4.33765 205.84 5.75687 205.84 7.50757C205.84 9.25828 207.289 10.6775 209.077 10.6775Z" fill="#FFCB3D"/>
<path d="M219.982 10.6775C221.769 10.6775 223.219 9.25828 223.219 7.50757C223.219 5.75687 221.769 4.33765 219.982 4.33765C218.194 4.33765 216.744 5.75687 216.744 7.50757C216.744 9.25828 218.194 10.6775 219.982 10.6775Z" fill="#3ABF7C"/>
<path d="M284.308 429.069L326.681 397.473C327.534 396.833 328.771 397.004 329.411 397.858C330.051 398.712 329.88 399.95 329.027 400.59L286.196 432.528C285.343 433.168 284.106 432.998 283.466 432.144C282.826 431.29 282.996 430.051 283.85 429.411L284.308 429.069H284.916C285.983 429.069 286.879 429.947 286.879 430.991C286.836 432.077 285.983 432.912 284.916 432.912H261.24C260.173 432.912 259.277 432.035 259.277 430.991C259.277 429.947 260.173 429.069 261.24 429.069H284.308ZM359.486 433H315.717C314.693 433 313.797 432.261 313.797 431.374V430.783C313.797 429.896 314.65 429.157 315.717 429.157H359.444C360.468 429.157 361.363 429.896 361.363 430.783V431.374C361.449 432.261 360.553 433 359.486 433Z" fill="#FF5645"/>
<path d="M319.545 407.66C320.181 407.923 330.629 407.53 350.89 406.479L358.178 429.157H315.716C315.704 429.157 315.692 429.157 315.679 429.157C318.448 415.355 319.747 408.181 319.577 407.636L319.545 407.66ZM326.519 397.593L284.307 429.069H261.239C260.979 429.069 260.73 429.121 260.5 429.215C260.463 429.032 260.437 428.851 260.429 428.682C260.471 428.383 260.471 428.041 260.557 427.7C260.77 426.931 261.111 426.205 261.495 425.565C262.732 423.601 264.951 422.234 264.951 422.234C267.51 420.569 269.857 419.459 272.63 418.264C274.08 417.623 276.128 416.769 278.517 415.83C279.285 413.353 280.052 410.877 280.82 408.358C282.271 403.533 283.721 398.751 285.129 393.969L310.81 375.31L326.519 397.593Z" fill="#252525"/>
<path d="M319.073 387.109C316.221 388.853 311.268 390.15 303.494 392.778C289.212 397.617 283.503 400.79 279.297 397.55C277.89 396.513 277.226 395.283 276.965 394.695C270.403 379.423 245.095 336.378 231.891 304.484C231.873 304.402 231.822 304.37 231.804 304.288C227.567 294.008 232.396 282.516 242.572 279.028C245.936 277.871 249.309 276.755 252.673 275.598C255.721 274.573 258.893 274.374 261.934 274.899L261.766 274.618L363.376 271.715C365.125 272.579 366.258 276.106 368.251 281.645C370.244 287.183 370.876 296.835 370.705 297.935C370.705 306.536 369.169 314.431 366.61 320.518C364.818 324.721 362.6 328.059 360.04 330.18C359.6 330.551 359.152 330.883 358.697 331.177C358.696 331.769 358.696 332.366 358.696 332.97C358.696 355.304 357.928 387.215 357.672 397.824C357.63 399.228 357.8 403.025 355.241 405.42C354.515 406.122 353.79 406.411 352.425 407.03C351.358 407.525 346.581 409.011 337.025 409.837C336.427 409.878 335.787 409.92 335.148 409.878C325.566 409.517 323.002 408.883 319.377 407.785L329.026 400.591C329.879 399.95 330.05 398.712 329.41 397.858C328.77 397.004 327.533 396.833 326.68 397.474L326.483 397.621L319.073 387.109ZM309.563 352.485C309.287 349.26 309.042 345.675 308.826 341.681L308.084 329.522L296.425 325.218C300.831 334.178 305.23 343.295 309.563 352.485Z" fill="#353535"/>
<path opacity="0.176986" d="M358.697 331.018C358.702 323.235 358.745 316.57 358.824 312.173C358.909 308.416 359.549 287.776 351.273 283.482C350.548 283.111 349.823 282.822 348.372 282.285C347.22 281.872 341.248 279.726 333.569 280.056C328.578 280.262 321.069 280.592 314.884 285.753C306.352 292.894 306.565 304.164 306.65 305.981L308.077 329.349L296.357 325.006C289.659 311.387 282.947 298.131 276.431 285.533C273.211 279.32 267.213 275.376 260.781 274.662L363.376 271.556C365.125 272.42 366.258 275.947 368.251 281.485C370.244 287.024 370.876 296.676 370.705 297.775C370.705 306.377 369.169 314.271 366.61 320.359C364.818 324.561 362.6 327.9 360.04 330.021C359.6 330.391 359.152 330.724 358.697 331.018Z" fill="#444444"/>
<path d="M319.855 387.443C321.757 386.139 323.179 384.645 323.557 383.163C324.11 381.099 323.732 379.16 322.878 377.249C318.205 366.796 314.968 359.864 313.161 356.439C312.996 356.126 312.609 356.007 312.296 356.172C311.984 356.337 311.864 356.725 312.029 357.037C313.819 360.429 317.048 367.345 321.709 377.772C322.455 379.44 322.781 381.114 322.319 382.839C322.038 383.941 320.797 385.245 319.132 386.386C318.84 386.586 318.766 386.985 318.965 387.277C319.165 387.569 319.563 387.643 319.855 387.443Z" fill="#575757"/>
<mask id="mask3" mask-type="alpha" maskUnits="userSpaceOnUse" x="273" y="184" width="113" height="90">
<path d="M364.585 244.383C365.581 253.389 365.606 260.902 364.858 265.857C364.858 265.986 364.818 266.158 364.778 266.288C364.58 267.622 364.302 268.741 363.945 269.645C363.905 269.731 363.866 269.817 363.826 269.903C361.802 273.174 345.809 272.012 342.039 272.141C335.848 272.357 297.057 273.452 296.144 272.849C295.707 272.548 295.191 269.215 294.755 268.741C293.27 267.211 293.904 257.851 295.311 246.633L273.854 244.811C275.352 233.489 276.357 227.089 276.869 225.609C278.362 221.381 282.655 213.372 283.636 209.615C286.366 198.983 289.736 195.013 290.888 193.86C292.211 192.493 293.49 191.554 294.344 190.956C300.103 186.985 306.203 186.388 309.317 186.302C309.361 186.281 312.551 186.061 315.691 185.849C318.214 185.053 321.459 184.808 326.364 184.808C329.953 184.808 333.017 185.024 335.545 185.325C334.83 184.451 334.688 184.224 336.364 184.295L351.508 184.936C351.594 184.936 351.679 184.936 351.764 184.979C354.879 185.064 360.979 185.662 366.738 189.633C367.591 190.23 368.871 191.17 370.194 192.536C371.345 193.689 374.716 197.66 377.446 208.291C378.427 212.049 382.67 218.96 384.163 223.187C385.159 226.005 385.721 232.056 385.85 241.339C379.525 242.617 372.436 243.632 364.585 244.383V244.383Z" fill="white"/>
</mask>
<g mask="url(#mask3)">
<path d="M364.585 244.383C365.581 253.389 365.606 260.902 364.858 265.857C364.858 265.986 364.818 266.158 364.778 266.288C364.58 267.622 364.302 268.741 363.945 269.645C363.905 269.731 363.866 269.817 363.826 269.903C361.802 273.174 345.809 272.012 342.039 272.141C335.848 272.357 297.057 273.452 296.144 272.849C295.707 272.548 295.191 269.215 294.755 268.741C293.27 267.211 293.904 257.851 295.311 246.633L273.854 244.811C275.352 233.489 276.357 227.089 276.869 225.609C278.362 221.381 282.655 213.372 283.636 209.615C286.366 198.983 289.736 195.013 290.888 193.86C292.211 192.493 293.49 191.554 294.344 190.956C300.103 186.985 306.203 186.388 309.317 186.302C309.361 186.281 312.551 186.061 315.691 185.849C318.214 185.053 321.459 184.808 326.364 184.808C329.953 184.808 333.017 185.024 335.545 185.325C334.83 184.451 334.688 184.224 336.364 184.295L351.508 184.936C351.594 184.936 351.679 184.936 351.764 184.979C354.879 185.064 360.979 185.662 366.738 189.633C367.591 190.23 368.871 191.17 370.194 192.536C371.345 193.689 374.716 197.66 377.446 208.291C378.427 212.049 382.67 218.96 384.163 223.187C385.159 226.005 385.721 232.056 385.85 241.339C379.525 242.617 372.436 243.632 364.585 244.383V244.383Z" fill="#FF5645"/>
<path d="M318.053 185.378C314.586 186.375 312.412 189.851 311.531 195.808C310.651 201.764 309.586 219.27 308.336 248.327L327.873 254.385L348.298 248.926C347.035 217.913 345.989 200.083 345.16 195.434C343.915 188.461 342.734 187.082 338.664 185.378C334.594 183.673 330.726 183.912 326.209 184.324C323.198 184.598 320.479 184.949 318.053 185.378Z" fill="#FFCB3D"/>
</g>
<path d="M336.066 172.519L336.535 186.302C336.535 186.601 336.407 186.9 336.151 187.028C335.042 187.711 333.463 188.48 331.501 188.907C327.96 189.718 324.931 189.12 323.225 188.608C322.883 188.523 322.627 188.181 322.627 187.84L322.464 180.407C320.248 181.231 320.372 181.149 320.153 181.221C317.466 181.905 315.162 181.819 314.735 181.734C313.2 181.606 311.578 180.325 310.128 178.147C308.166 175.244 306.417 170.718 305.478 165.295C305.307 164.527 305.265 163.758 305.222 162.99L305.051 155.347C305.009 153.639 305.435 151.974 306.246 150.394C306.587 149.711 306.928 149.156 307.355 148.686C307.369 148.668 307.383 148.65 307.397 148.633C307.412 148.608 307.426 148.583 307.44 148.558C310.725 143.989 317.594 143.391 320.75 143.733C321.134 143.776 322.5 143.947 324.462 144.075C325.528 144.16 326.382 144.16 326.894 144.203C333.25 144.459 335.767 143.69 338.966 145.398C339.564 145.697 340.929 146.466 342.123 147.96C345.493 152.187 344.511 157.652 344.297 159.275C343.53 164.142 340.886 167.131 340.033 168.369C339.138 169.69 337.46 171.293 336.066 172.519ZM277.543 265.796C274.254 261.233 274.19 253.217 275.057 244.853C276.006 244.853 282.749 245.337 295.288 246.305C297.86 246.518 302.216 247.037 308.355 247.862L330.94 253.045L357.481 246.548L357.353 245.34C361.025 244.866 363.701 244.51 365.38 244.27C369.893 243.625 376.506 242.655 385.218 241.359C386.326 254.485 384.425 269.037 371.857 273.192H318.77L272.895 274.544C272.188 274.565 271.599 274.008 271.578 273.301C271.569 273.021 271.653 272.745 271.817 272.517C273.741 269.832 275.649 267.592 277.543 265.796Z" fill="#DB9E75"/>
<path opacity="0.2" d="M277.577 265.841C274.255 261.286 274.188 253.245 275.058 244.852C276.007 244.852 280.87 245.185 289.649 245.849C292.696 245.968 298.931 246.639 308.356 247.862C317.303 249.915 324.894 251.657 331.13 253.088L306.935 259.01C306.289 258.789 305.626 258.588 304.943 258.411C293.681 255.491 284.722 260.769 281.565 262.734C280.106 263.643 278.778 264.71 277.577 265.841Z" fill="#8C2A00"/>
<path d="M343.822 161.321C341.935 160.847 339.856 160.276 337.71 159.655C337.558 159.066 337.302 158.494 336.92 157.962C335.555 156.041 332.823 154.962 330.776 155.646C329.784 155.976 329.077 156.687 328.845 156.933C323.657 155.259 319.072 153.641 316.927 152.749C314.425 151.708 312.76 150.715 311.934 149.769C308.954 151.529 306.665 152.702 305.066 153.288C305.251 152.233 305.609 151.202 306.121 150.204C306.462 149.521 306.804 148.966 307.23 148.497C307.244 148.479 307.258 148.461 307.272 148.443C307.287 148.418 307.301 148.393 307.316 148.368C310.6 143.8 317.469 143.202 320.626 143.544C321.009 143.586 322.375 143.757 324.337 143.885C325.403 143.971 326.257 143.971 326.769 144.013C333.125 144.269 335.642 143.501 338.841 145.209C339.439 145.508 340.804 146.276 341.998 147.771C345.368 151.998 344.558 157.463 344.345 159.085C344.219 159.881 344.039 160.625 343.822 161.321ZM306.545 160.598C306.118 160.513 305.99 159.958 306.289 159.659C306.673 159.317 307.355 158.976 308.208 158.976C309.958 158.976 311.835 160.129 309.872 160.641C308.72 160.983 307.355 160.769 306.545 160.598ZM315.333 160.897C314.906 160.812 314.778 160.257 315.119 159.958C315.503 159.616 316.186 159.275 317.082 159.275C318.831 159.275 320.708 160.47 318.746 160.94C317.508 161.282 316.186 161.068 315.333 160.897Z" fill="#482D1F"/>
<path d="M322.371 180.309L327.215 177.79L322.67 184.807L322.371 180.309Z" fill="#482D1F"/>
<path d="M309.872 163.587C309.829 164.313 309.701 165.508 309.275 165.935C308.55 166.576 307.611 164.441 308.166 163.117C308.379 162.562 308.678 162.477 309.019 162.519C309.531 162.605 309.872 163.075 309.872 163.587ZM317.508 163.502C317.551 164.227 317.551 165.423 317.124 165.935C316.484 166.661 315.29 164.612 315.717 163.245C315.887 162.69 316.186 162.562 316.527 162.562C317.039 162.562 317.466 162.989 317.508 163.502Z" fill="#482D1F"/>
<path d="M314.852 173.432C315.305 173.261 316.407 172.834 316.602 171.894C316.602 171.723 316.667 171.466 316.602 171.295C316.343 170.697 315.565 171.039 314.398 171.124C312.323 171.295 310.638 171.039 310.638 171.039C310.638 171.039 311.091 172.748 311.416 173.261C312.129 174.544 314.203 173.689 314.852 173.432Z" fill="#482D1F"/>
<path d="M310.474 168.182C310.393 168.663 310.766 169.136 311.253 169.217C311.359 169.227 311.359 169.227 311.428 169.233C312.148 169.288 312.598 169.309 313.371 169.309C313.606 169.309 313.797 169.117 313.797 168.882C313.797 168.646 313.606 168.455 313.371 168.455C312.622 168.455 312.193 168.435 311.494 168.381L311.356 168.371C311.354 168.369 311.316 168.32 311.317 168.311L311.959 163.732L311.963 163.673V161.153C311.963 160.918 311.772 160.726 311.536 160.726C311.301 160.726 311.11 160.918 311.11 161.153V163.643L310.474 168.182Z" fill="#482D1F"/>
<path d="M337.691 159.754C337.886 161.005 337.661 162.367 337.094 163.463C336.404 164.843 335.433 165.596 334.18 166.175C333.966 166.274 333.872 166.527 333.971 166.741C334.07 166.956 334.323 167.049 334.537 166.95C335.088 166.696 335.526 166.45 336.033 166.057C336.779 165.478 337.404 164.752 337.854 163.85C338.502 162.6 338.757 161.054 338.534 159.622C338.498 159.389 338.279 159.23 338.047 159.266C337.814 159.303 337.655 159.521 337.691 159.754Z" fill="#482D1F"/>
<path d="M298.726 246.27C299.556 230.609 299.925 223.642 300.383 214.909C300.428 214.056 301.707 214.124 301.662 214.977L300.004 246.338C299.959 247.191 298.681 247.123 298.726 246.27ZM358.183 244.941C358.432 245.75 357.226 246.133 356.963 245.328L351.034 227.139C350.774 226.343 351.951 225.933 352.242 226.718C353.074 228.962 356.961 240.964 358.183 244.941Z" fill="#482D1F"/>
<path d="M41.2396 432.951C40.1304 432.951 39.2772 432.212 39.3199 431.326V430.734C39.3199 429.848 40.2158 429.109 41.2396 429.109H84.9664C86.0329 429.109 86.8861 429.848 86.8861 430.734V431.326C86.8861 432.212 85.9902 432.951 84.9664 432.951H41.2396ZM98.2337 429.109H166.064C167.124 429.109 167.983 429.969 167.983 431.03C167.983 432.091 167.124 432.951 166.064 432.951H98.2337C97.1735 432.951 96.314 432.091 96.314 431.03C96.314 429.969 97.1735 429.109 98.2337 429.109Z" fill="#DB9E75"/>
<path d="M95.7526 328.575L92.108 330.509L92.0548 332.191C91.952 336.508 91.7879 340.302 91.5653 343.648C91.4026 346.279 89.1749 376.099 88.3683 387.042C88.2003 389.523 86.4416 391.684 83.9501 392.445C80.1929 393.624 77.784 394.307 67.9475 394.982C67.3093 395.042 66.6685 395.026 66.0703 395.009C56.4936 394.588 51.6706 393.403 50.5888 392.99C49.2046 392.475 48.4705 392.238 47.7231 391.626C45.0878 389.541 45.136 386.088 45.0481 384.816C44.5265 376.423 43.0927 353.326 42.2575 334.111C41.4919 333.838 40.7714 333.448 40.1495 332.891C37.5947 330.587 34.0524 327.928 32.1135 323.397C26.6271 310.579 26.0413 296.27 30.3561 280.472C33.7341 273.161 36.0051 269.192 37.1689 268.567L126.518 274.675C127.341 274.657 128.165 274.639 128.992 274.621C139.785 274.427 148.53 282.858 148.274 293.153C148.274 293.231 148.274 293.27 148.274 293.348C147.592 325.284 139.614 370.779 139.06 386.164C139.017 386.747 138.847 388.029 137.951 389.389C135.178 393.546 128.693 392.614 113.549 392.963C100.666 393.274 95.461 394.207 92.8161 390.788C91.3656 388.923 91.4083 386.786 91.451 385.815C92.4881 366.648 93.9901 347.303 95.7526 328.575Z" fill="#DCA614"/>
<path opacity="0.176986" d="M95.9054 328.56L92.2645 330.492L93.2391 299.712C93.2218 298.025 93.0731 287.828 84.3587 281.638C78.0104 277.168 70.4961 277.126 65.5013 277.11C62.6741 277.096 52.5888 276.916 48.6076 281.638C41.767 289.753 41.1664 304.969 41.2969 307.122C41.5352 311.427 41.816 318.132 42.0928 325.924C42.1855 328.534 42.296 331.287 42.4195 334.124C41.6398 333.85 40.9057 333.457 40.2735 332.891C37.7187 330.586 34.1764 327.927 32.2375 323.397C26.7511 310.578 26.1653 296.27 30.4801 280.471C33.8581 273.16 36.1291 269.192 37.2929 268.566L125.836 274.619C123.373 274.673 120.918 274.727 118.442 274.78C108.844 275.013 100.866 281.968 99.8426 291.059C98.4513 303.097 97.1167 315.683 95.9054 328.56Z" fill="#444444"/>
<path d="M85.817 429.297C85.548 429.175 85.2402 429.105 84.9123 429.105H41.709L51.7638 402.892L81.689 404.492L85.817 429.297ZM97.4485 429.249L97.223 401.782L129.491 402.252L137.084 407.973C138.833 409.767 140.71 411.346 142.758 412.755C147.707 416.128 150.309 416.086 157.86 419.843C159.95 420.825 161.87 421.935 163.79 423.174C164.728 424.07 166.349 425.778 166.861 427.828C166.946 428.126 166.947 428.468 166.989 428.81C166.989 429.046 166.981 429.225 166.965 429.359C166.683 429.198 166.357 429.105 166.009 429.105H98.1797C97.9208 429.105 97.6738 429.156 97.4485 429.249Z" fill="#252525"/>
<path d="M98.1818 227.402C97.4679 241.944 95.8565 261.942 94.3965 265.825C92.1839 271.709 49.7404 267.52 44.0888 266.233C40.5557 265.433 37.261 255.902 36.6515 252.71C36.1342 250.141 33.264 247.271 39.5244 224.436C36.7828 223.724 34.5364 223.124 33.3177 222.812C28.3791 221.55 30.5528 215.776 31.4282 211.808C33.935 200.485 37.0785 196.339 38.1528 195.091C39.3864 193.664 40.5801 192.639 41.3759 192.015C46.7476 187.824 52.4377 187.2 55.3424 187.156C55.422 187.111 55.5016 187.111 55.5812 187.111L69.7069 186.933C69.6592 187.315 69.6084 187.722 69.5547 188.153C70.1447 188.176 70.7246 188.202 71.2889 188.232C71.3084 187.801 71.3267 187.395 71.3437 187.015L85.2252 189.638C85.3035 189.652 85.3819 189.665 85.4529 189.721C88.3061 190.268 93.806 191.846 98.3998 196.732C99.0798 197.459 100.085 198.634 101.063 200.194C101.913 201.558 104.32 206.015 104.907 217.131C105.11 221.025 106.305 226.853 101.232 227.186C100.522 227.233 99.4718 227.309 98.1818 227.402Z" fill="#EC8840"/>
<path opacity="0.176986" d="M98.238 227.398C98.7102 217.654 98.1992 210.595 97.7676 207.787C97.461 205.778 96.9613 203.919 96.9613 203.919C96.7259 202.599 96.2263 200.74 95.0088 198.779C91.2291 192.497 83.6661 190.501 78.57 189.097C77.4543 188.798 74.6444 188.492 71.2852 188.314C71.306 187.853 71.3255 187.419 71.3436 187.015L85.2251 189.638C85.3035 189.652 85.3818 189.666 85.4528 189.721C88.306 190.268 93.8059 191.846 98.3997 196.732C99.0797 197.459 100.085 198.634 101.063 200.194C101.913 201.558 104.32 206.015 104.907 217.131C105.11 221.025 106.305 226.853 101.231 227.186C100.532 227.232 99.5023 227.307 98.238 227.398V227.398Z" fill="#444444"/>
<path d="M118.726 213.263C121.949 210.131 127.771 205.376 136.193 198.998C138.777 199.3 138.589 201.351 135.629 205.149L118.726 213.263ZM62.7738 229.412C62.6329 229.737 62.2559 229.885 61.9318 229.744C61.6077 229.603 61.4592 229.226 61.6001 228.902C62.426 227 62.758 225.938 63.3978 223.163C63.4773 222.819 63.8209 222.604 64.1652 222.683C64.5096 222.763 64.7243 223.107 64.6449 223.451C63.9886 226.297 63.6338 227.432 62.7738 229.412Z" fill="#482D1F"/>
<path d="M53.7504 393.735C56.2845 394.212 60.3563 394.752 66.1953 395.009C66.7935 395.026 67.4344 395.042 68.0725 394.982C75.5689 394.468 78.7514 393.949 81.5043 393.209L81.6898 404.493L51.7645 402.893L53.7504 393.735ZM97.1552 393.042C100.456 393.605 105.531 393.16 113.674 392.963C118.045 392.863 121.695 392.868 124.742 392.828L129.475 402.252L97.2238 401.783L97.1552 393.042ZM95.3575 258.896L98.1556 227.398C98.7628 227.35 99.2284 227.314 99.5524 227.29C100.205 227.242 100.878 227.216 101.653 227.061C102.651 226.861 103.325 226.613 103.674 226.316L104.914 234.783L117.001 215.012C117.596 214.039 118.44 213.243 119.445 212.705L140.894 201.242C144.181 198.156 146.546 196.369 147.989 195.882C149.432 195.395 150.937 195.876 152.503 197.324L133.805 216.935C131.457 223.736 128.871 230.525 126.049 237.3C123.228 244.072 118.843 254.001 112.892 267.089C121.017 271.451 125.91 274.905 125.91 274.905C125.91 274.905 65.4249 273.88 41.4325 272.41C20.0873 271.101 30.3799 231.431 32.9109 222.693C33.0408 222.737 33.1764 222.776 33.3178 222.812C37.7363 223.942 55.6614 228.926 61.7242 229.267L55.9041 249.609C70.2027 250.369 83.9165 254.328 95.3575 258.896ZM79.039 188.066C80.0976 188.358 81.1979 188.708 82.3399 189.114C81.3903 191.438 80.0694 192.799 78.3771 193.198C75.8386 193.797 69.7633 193.797 65.7689 192.08C63.106 190.934 61.1013 189.265 59.7549 187.071C61.3016 187.042 62.7543 187.017 64.1129 186.998V171.155C63.0394 169.895 62.0995 168.694 61.5466 167.579C60.6144 165.732 60.745 161.072 61.1503 158.851C61.2847 157.939 67.8499 151.465 71.6506 157.816L71.2938 146.875C71.2768 146.19 71.7809 145.589 72.5071 145.568C73.9982 145.481 75.4819 145.308 77.0671 144.826C77.2371 144.811 77.4034 144.754 77.5734 144.739C79.0071 144.485 87.0908 143.391 91.7836 149.067C92.2107 149.544 92.599 150.067 92.9559 150.721C93.731 152.239 94.1772 153.915 94.1984 155.627L94.2653 163.25C94.2472 164.024 94.1866 164.8 94.0798 165.538C93.3159 171.006 91.7014 175.562 89.8182 178.512C88.428 180.734 86.8322 182.074 85.3485 182.247C84.9272 182.327 82.6286 182.485 79.8806 181.911C79.7013 181.869 79.7489 181.906 78.6285 181.53L79.039 188.066Z" fill="#DB9E75"/>
<path d="M56.3243 249.793C56.6762 249.759 56.9883 250.018 57.0215 250.37C57.0547 250.722 56.7964 251.035 56.4445 251.068C56.3614 251.076 56.1988 251.094 55.9681 251.125C55.5799 251.177 55.1464 251.245 54.6791 251.333C53.3455 251.581 52.0128 251.928 50.7746 252.387C50.0438 252.658 49.3678 252.961 48.758 253.297C48.4483 253.468 48.0592 253.354 47.8889 253.044C47.7186 252.735 47.8315 252.345 48.1412 252.175C48.8096 251.807 49.5427 251.478 50.33 251.186C51.6434 250.699 53.0445 250.335 54.4446 250.073C54.9342 249.982 55.3892 249.91 55.7984 249.855C55.9423 249.836 56.0706 249.82 56.1817 249.808C56.2497 249.8 56.2977 249.795 56.3243 249.793ZM104.253 234.402C104.447 234.106 104.844 234.024 105.139 234.218C105.434 234.412 105.516 234.809 105.322 235.105C105.305 235.132 105.305 235.132 105.221 235.26C105.138 235.387 105.041 235.534 104.933 235.699C104.623 236.173 104.278 236.701 103.907 237.27C102.847 238.897 101.791 240.529 100.81 242.059C100.709 242.217 100.709 242.217 100.608 242.375C99.1136 244.707 99.3948 244.05 98.6848 245.243C98.5039 245.547 98.1112 245.646 97.8075 245.465C97.5039 245.284 97.4044 244.891 97.5852 244.587C98.3044 243.379 98.029 244.027 99.5301 241.683C99.6313 241.525 99.6313 241.525 99.7326 241.367C100.716 239.835 101.774 238.2 102.835 236.571C103.207 236.001 103.552 235.472 103.862 234.998C103.971 234.832 104.067 234.684 104.15 234.557C104.235 234.429 104.235 234.429 104.253 234.402Z" fill="#482D1F"/>
<path d="M78.6468 181.539L72.3262 179.273L78.9344 186.421L78.6468 181.539Z" fill="#482D1F"/>
<path d="M72.1584 161.74L72.0525 160.952C72.0525 160.952 71.7487 159.436 70.5524 157.997C70.4599 157.92 69.6557 157.047 68.5098 156.676C66.4455 156.085 63.8887 157.209 62.6036 159.165C61.2373 161.17 61.4567 163.68 62.4315 165.523C63.4062 167.367 65.0567 168.122 65.6315 168.329L68.1768 168.895C66.3347 172.366 64.7017 175.468 64.319 175.468C63.6173 175.468 60.8754 172.217 59.0762 169.76C58.1997 168.551 55.2084 165.684 54.3133 160.834C54.1239 159.703 53.5764 156.665 54.4255 153.444C49.015 150.088 45.1976 144.309 44.6002 137.474C43.594 125.964 52.1015 115.816 63.6023 114.809C75.1031 113.802 85.242 122.317 86.2482 133.827C86.5798 137.622 85.8777 141.268 84.3754 144.488C87.3655 145.174 90.5505 146.704 92.3089 149.662C91.4591 150.268 90.433 150.77 89.2616 151.087C86.0764 151.881 83.2582 151.484 81.5488 151.034C78.5866 154.379 75.5783 157.686 72.6161 161.031C72.4698 161.249 72.3168 161.486 72.1584 161.74Z" fill="#482D1F"/>
<path d="M92.2188 164.774C92.3017 164.252 92.7782 163.825 93.2956 163.865C93.6393 163.878 93.9166 164.111 94.0961 164.695C94.3538 166.173 92.9025 168.186 92.3569 167.333C91.9686 166.81 92.1157 165.554 92.2188 164.774Z" fill="#482D1F"/>
<path d="M82.8477 164.422C82.9306 163.9 83.4071 163.472 83.9245 163.513C84.2682 163.526 84.5455 163.759 84.725 164.343C84.9827 165.82 83.5314 167.833 82.9858 166.981C82.5975 166.458 82.7446 165.202 82.8477 164.422Z" fill="#482D1F"/>
<path d="M89.0553 165.382L89.4696 169.632C89.4709 169.648 89.4119 169.718 89.3916 169.72C89.1592 169.741 88.9202 169.746 88.5462 169.743C88.4736 169.742 88.3977 169.741 88.2882 169.739C88.1504 169.738 88.0749 169.736 88.0026 169.735C87.7551 169.732 87.5501 169.731 87.3313 169.731L87.3298 169.731C87.0957 169.731 86.9048 169.922 86.9049 170.158C86.905 170.394 87.0961 170.585 87.3317 170.585L87.3333 170.585C87.5462 170.585 87.7475 170.586 87.9914 170.589C88.0632 170.59 88.1381 170.591 88.2763 170.593C88.3869 170.595 88.4641 170.596 88.5384 170.597C88.9374 170.6 89.2006 170.594 89.466 170.571C89.9557 170.528 90.362 170.043 90.3191 169.553L89.9044 165.299C89.8815 165.065 89.6729 164.893 89.4384 164.916C89.2039 164.939 89.0324 165.147 89.0553 165.382Z" fill="#482D1F"/>
<path d="M85.8133 176.084C85.3803 175.942 84.0639 174.445 83.9521 173.853C83.9417 173.734 83.8664 173.56 83.9805 173.49C84.2525 173.165 85.2551 174.51 86.3544 174.714C88.3041 175.024 89.8647 175.008 89.8647 175.008C89.8647 175.008 89.3519 176.015 89.0151 176.285C88.3622 177.064 86.4356 176.33 85.8133 176.084Z" fill="#482D1F"/>
<path d="M76.2138 163.387L73.6565 162.841C73.3108 162.767 73.0905 162.426 73.1642 162.08C73.238 161.735 73.578 161.514 73.9236 161.588L76.6734 162.175C77.5894 160.371 79.3867 159.067 81.5491 158.877C84.882 158.586 87.8202 161.053 88.1118 164.389C88.1188 164.469 88.1242 164.548 88.128 164.627L89.426 164.673C89.7676 161.892 92.0109 159.633 94.911 159.379C98.2439 159.087 101.182 161.555 101.474 164.89C101.765 168.226 99.2998 171.167 95.9669 171.459C92.6362 171.751 89.6995 169.286 89.4048 165.954L88.0552 165.906C87.6165 168.574 85.4202 170.711 82.6051 170.957C79.2722 171.249 76.334 168.782 76.0424 165.446C75.9802 164.734 76.0434 164.041 76.2138 163.387ZM77.5856 163.283C77.354 163.919 77.2545 164.615 77.3173 165.334C77.5473 167.965 79.8648 169.911 82.4935 169.681C85.1223 169.451 87.0669 167.132 86.8369 164.501C86.6069 161.87 84.2894 159.923 81.6607 160.153C79.8558 160.312 78.3734 161.455 77.6959 163.007C77.694 163.02 77.6916 163.034 77.6887 163.047C77.67 163.135 77.6342 163.214 77.5856 163.283ZM90.6611 165.472C90.6625 165.592 90.6685 165.714 90.6792 165.836C90.9092 168.467 93.2266 170.413 95.8554 170.183C98.4841 169.953 100.429 167.633 100.199 165.002C99.9687 162.371 97.6513 160.425 95.0225 160.655C92.6025 160.867 90.7623 162.85 90.6648 165.216C90.6734 165.262 90.6771 165.309 90.6754 165.357C90.674 165.396 90.6692 165.435 90.6611 165.472Z" fill="#482D1F"/>
<path opacity="0.2" d="M98.1556 227.398L95.3555 258.918C99.3244 260.549 102.292 261.829 104.259 262.755C106.226 263.682 109.101 265.134 112.882 267.112C118.838 254.013 123.227 244.075 126.049 237.3C128.871 230.525 131.457 223.736 133.805 216.935L152.503 197.324C150.937 195.875 149.432 195.394 147.989 195.881C146.546 196.368 144.181 198.155 140.894 201.242L119.445 212.705C118.44 213.243 117.596 214.039 117.001 215.012L104.914 234.783L103.674 226.316C103.395 226.613 102.757 226.861 101.76 227.061C100.984 227.216 100.312 227.242 99.6586 227.29C99.3346 227.314 98.8336 227.35 98.1556 227.398Z" fill="#8C2A00"/>
<path d="M374.461 269.421H32.7518C31.1026 269.421 29.7656 270.759 29.7656 272.409C29.7656 274.06 31.1026 275.398 32.7518 275.398H374.461C376.11 275.398 377.447 274.06 377.447 272.409C377.447 270.759 376.11 269.421 374.461 269.421Z" fill="#575757"/>
<path d="M42.9895 46.9672C55.9479 46.9672 66.4527 36.4532 66.4527 23.4836C66.4527 10.514 55.9479 0 42.9895 0C30.0312 0 19.5264 10.514 19.5264 23.4836C19.5264 36.4532 30.0312 46.9672 42.9895 46.9672Z" fill="#DCA614"/>
<path d="M51.4768 17.6454L46.2851 18.4695C46.0246 17.8084 45.7897 17.3497 45.5803 17.0936C45.371 16.8376 45.0244 16.5791 44.5406 16.3184V20.3553C47.369 21.1096 49.2578 21.9058 50.2068 22.7439C51.4629 23.8707 52.0909 25.3001 52.0909 27.0322C52.0909 28.0472 51.8653 28.9784 51.414 29.8258C50.9628 30.6733 50.3859 31.381 49.6834 31.949C48.981 32.5171 48.2343 32.9292 47.4435 33.1852C46.6526 33.4413 45.685 33.5927 44.5406 33.6392V36.2792H42.503V33.6392C41.1352 33.5182 40.0257 33.297 39.1744 32.9757C38.3231 32.6544 37.588 32.2098 36.9693 31.6417C36.3506 31.0737 35.8737 30.4614 35.5388 29.8049C35.2038 29.1484 34.9526 28.3545 34.7852 27.4233L40.4235 26.7668C40.591 27.6887 40.8166 28.3545 41.1004 28.7642C41.3841 29.174 41.8517 29.5372 42.503 29.8538V24.9229C40.6235 24.4014 39.2907 23.9498 38.5045 23.568C37.7183 23.1862 37.0368 22.5739 36.4599 21.7312C35.883 20.8884 35.5946 19.8617 35.5946 18.6511C35.5946 16.9935 36.1738 15.6083 37.3322 14.4955C38.4905 13.3827 40.2141 12.7658 42.503 12.6447V11.2618H44.5406V12.6447C46.6247 12.7751 48.218 13.2686 49.3206 14.1254C50.4231 14.9821 51.1419 16.1554 51.4768 17.6454ZM42.503 16.2486C41.9075 16.4441 41.4935 16.6862 41.2609 16.9749C41.0282 17.2636 40.9119 17.6035 40.9119 17.9946C40.9119 18.4044 41.0306 18.7605 41.2678 19.0632C41.5051 19.3658 41.9168 19.6196 42.503 19.8245V16.2486ZM44.5406 29.9935C45.3314 29.8165 45.9106 29.5255 46.2781 29.1204C46.6456 28.7154 46.8294 28.2614 46.8294 27.7585C46.8294 27.3208 46.6736 26.9181 46.3619 26.5503C46.0502 26.1824 45.4431 25.8402 44.5406 25.5236V29.9935Z" fill="#F2F6FB"/>
<path d="M193.697 263.444L197.8 246.877H167.004C163.804 246.877 161.159 244.443 161.159 241.497V194.572C161.117 191.584 163.719 189.15 166.961 189.15H260.686C263.885 189.15 266.53 191.584 266.53 194.53V241.497C266.53 244.443 263.885 246.877 260.686 246.877H223.155L221.462 263.444H232.573C234.279 263.444 235.602 264.811 235.602 266.476C235.602 268.184 234.237 269.507 232.573 269.507H185.007C183.3 269.507 181.978 268.141 181.978 266.476C181.893 264.811 183.3 263.444 185.007 263.444H193.697Z" fill="#373841"/>
<path fill-rule="evenodd" clip-rule="evenodd" d="M224.426 234.801L224.553 263.487H221.494L224.426 234.801Z" fill="#505050"/>
</svg>
