<svg width="497" height="385" fill="none" xmlns="http://www.w3.org/2000/svg"><path d="M489.24 39.177h-104.4c-3.977 0-7.2 3.23-7.2 7.216v76.858c0 3.986 3.223 7.217 7.2 7.217h104.4c3.976 0 7.2-3.231 7.2-7.217V46.393c0-3.985-3.224-7.216-7.2-7.216z" fill="#212121"/><path d="M445.048 105.262v3.485c0 .359-.037.49-.107.621a.727.727 0 01-.304.305c-.132.07-.262.108-.62.108h-40.219v-5.553h40.219c.358 0 .488.038.62.108.131.07.234.173.304.305.07.131.107.262.107.621zM485.981 94.157v3.485c0 .36-.037.49-.107.621a.734.734 0 01-.305.305c-.131.07-.261.108-.619.108h-81.152v-5.552h81.152c.358 0 .488.037.619.107.132.07.234.174.305.305.07.131.107.262.107.621zM475.193 83.052v3.485c0 .36-.038.49-.108.621a.731.731 0 01-.304.305c-.131.07-.261.108-.62.108h-70.363v-5.552h70.363c.359 0 .489.037.62.107s.234.174.304.305c.07.132.108.262.108.621zM450.76 71.948v3.485c0 .36-.038.49-.108.62a.731.731 0 01-.304.306c-.131.07-.261.107-.62.107h-45.93v-5.552h45.93c.359 0 .489.037.62.108.131.07.234.173.304.305.07.131.108.261.108.62zM462.817 60.843v3.485c0 .36-.037.49-.107.621a.732.732 0 01-.304.305c-.131.07-.261.108-.62.108h-57.988v-5.553h57.988c.359 0 .489.038.62.108s.234.173.304.305c.07.131.107.262.107.621z" fill="#7A7A7A"/><path d="M236.33 27.269H115.92c-3.976 0-7.2 3.23-7.2 7.216v88.765c0 3.986 3.224 7.217 7.2 7.217h120.41c3.976 0 7.2-3.231 7.2-7.217V34.485c0-3.985-3.224-7.216-7.2-7.216z" fill="#212121"/><path d="M178.299 108.19c15.09-8.735 20.267-28.07 11.562-43.186-8.704-15.117-27.993-20.29-43.083-11.554-15.091 8.735-20.267 28.07-11.563 43.186 8.705 15.116 27.994 20.289 43.084 11.554zm-7.712-13.393c-7.706 4.461-17.557 1.82-22.002-5.9-4.445-7.72-1.802-17.594 5.905-22.055 7.706-4.46 17.556-1.819 22.002 5.9 4.445 7.72 1.801 17.594-5.905 22.055z" fill="#7A7A7A"/><mask id="a" maskUnits="userSpaceOnUse" x="123" y="46" width="79" height="74"><path d="M142.883 46.81c-18.657 10.8-25.058 34.703-14.298 53.389 10.76 18.687 34.607 25.08 53.263 14.28 18.657-10.8 25.058-34.703 14.298-53.389l-13.28 7.688c6.53 11.34 2.645 25.846-8.677 32.4-11.322 6.554-25.794 2.674-32.324-8.666-6.53-11.34-2.645-25.846 8.677-32.4l-7.659-13.302z" fill="#fff"/></mask><g mask="url(#a)"><path d="M142.882 46.811c-18.657 10.8-25.058 34.703-14.298 53.39 10.76 18.686 34.607 25.079 53.263 14.279 18.657-10.8 25.058-34.703 14.298-53.39l-13.28 7.689c6.53 11.34 2.645 25.846-8.677 32.4-11.322 6.554-25.794 2.674-32.324-8.666-6.529-11.34-2.645-25.846 8.677-32.4l-7.659-13.302z" fill="#fff"/><path d="M143.559 46.709c-20.677 7.056-27.515 35.728-16.753 54.418 10.762 18.689 43.557 25.194 55.726 13.262l-7.569-14.156c-11.374 6.584-25.981 3.58-32.512-7.762-6.532-11.342-2.605-25.874 8.769-32.459l-7.661-13.303z" fill="#FFC700"/></g><path d="M221.621 63.053h-8.359a.72.72 0 00-.72.721v8.26a.72.72 0 00.72.722h8.359a.72.72 0 00.72-.722v-8.26a.72.72 0 00-.72-.721z" fill="#FFC700"/><path d="M221.621 77.261h-8.359a.72.72 0 00-.72.722v8.26a.72.72 0 00.72.722h8.359a.72.72 0 00.72-.722v-8.26a.72.72 0 00-.72-.722z" fill="#fff"/><path d="M221.621 91.47h-8.359a.72.72 0 00-.72.721v8.261a.72.72 0 00.72.721h8.359a.72.72 0 00.72-.721v-8.26a.72.72 0 00-.72-.722z" fill="#7A7A7A"/><path d="M108.72 33.105c0-3.223 2.607-5.836 5.824-5.836h122.632A5.83 5.83 0 01243 33.105v5.836H108.72v-5.836z" fill="#383838"/><path d="M379.08.568H241.92c-3.976 0-7.2 3.23-7.2 7.216v98.937c0 3.986 3.224 7.217 7.2 7.217h137.16c3.976 0 7.2-3.231 7.2-7.217V7.784c0-3.985-3.224-7.216-7.2-7.216z" fill="#292929"/><mask id="b" maskUnits="userSpaceOnUse" x="237" y="19" width="147" height="95"><path d="M237.348 19.852h146.304v92.532c0 .797-.645 1.443-1.442 1.443H238.79a1.441 1.441 0 01-1.442-1.443V19.852z" fill="#fff"/></mask><g mask="url(#b)"><path d="M318.214 109.428v7.998h7.448v4.266h-30.324v-4.266h7.448v-7.998H268.05a1.44 1.44 0 01-1.441-1.443v-9.22h87.782v9.22c0 .797-.644 1.443-1.441 1.443h-34.736z" fill="#212121"/><path fill-rule="evenodd" clip-rule="evenodd" d="M266.609 50.62c0-.796.644-1.442 1.441-1.442h84.9c.796 0 1.441.647 1.441 1.442v49.744h-87.782V50.62z" fill="#2D2D2D"/><path d="M311.316 80.224l-.571.008.005-.008h-7.459c-.319 0-.442-.22-.273-.494l5.19-8.451c.168-.273.444-.28.618-.011l3.802 5.893 1.377-2.247c.166-.271.446-.276.624-.014l3.19 4.698c.179.263.065.485-.253.495l-2.674.084-.413.005.025.042h-3.188zm3.114-7.807c-.696 0-1.26-.577-1.26-1.289s.564-1.29 1.26-1.29c.696 0 1.261.578 1.261 1.29 0 .712-.565 1.29-1.261 1.29z" fill="#212121"/></g><path d="M326.566 37.255h-31.847a.72.72 0 00-.72.722v3.872a.72.72 0 00.72.722h31.847a.72.72 0 00.72-.722v-3.872a.72.72 0 00-.72-.722zM343.21 28.618h-65.135a.721.721 0 00-.72.722v3.872c0 .398.323.721.72.721h65.135a.72.72 0 00.72-.721V29.34a.72.72 0 00-.72-.722z" fill="#444"/><path d="M234.72 6.996c0-3.55 2.871-6.428 6.416-6.428h138.728c3.544 0 6.416 2.877 6.416 6.428v6.428H234.72V6.996z" fill="#383838"/><path d="M243.335 9.918a2.775 2.775 0 10-.002-5.553 2.775 2.775 0 00.002 5.553z" fill="#FF5645"/><path d="M252.387 9.918a2.775 2.775 0 100-5.55 2.775 2.775 0 000 5.55z" fill="#FFCB3D"/><path d="M261.732 9.918a2.775 2.775 0 10-.002-5.553 2.775 2.775 0 00.002 5.553z" fill="#3ABF7C"/><path d="M308.016 292.338v-25.944-71.193c0-.866-14.94-1.587-32.904-1.587h-3.744c-17.928 0-32.904.721-32.904 1.587v97.209c0 .866 14.94 1.587 32.904 1.587h3.744c17.928.036 32.904-.721 32.904-1.659zM201.78 378.649l.144.072c.756.397 1.728.181 2.088-.505l42.156-77.615c.396-.722.072-1.624-.684-2.021l-.144-.072c-.756-.397-1.728-.181-2.088.505l-10.44 19.196a19331.517 19331.517 0 01-20.448 37.635l-11.268 20.712c-.396.722-.072 1.66.684 2.093z" fill="#575757"/><path d="M306.432 297.245h-98.784c-.864 0-1.62.721-1.62 1.587v.181c0 .866.72 1.587 1.62 1.587h98.856c.864 0 1.62-.721 1.62-1.587v-.181c0-.866-.756-1.587-1.692-1.587z" fill="#575757"/><path d="M319.32 376.556l-11.268-20.712a19331.517 19331.517 0 00-20.448-37.635l-10.44-19.196c-.36-.686-1.332-.938-2.088-.505l-.144.072c-.756.397-1.08 1.335-.684 2.021l42.156 77.615c.36.686 1.332.938 2.088.505l.144-.072c.756-.433 1.08-1.371.684-2.093z" fill="#575757"/><path d="M191.079 381.247a1.639 1.639 0 01-1.621-1.624c0-.902.72-1.623 1.621-1.623h57.238c.9 0 1.621.721 1.621 1.623s-.721 1.624-1.621 1.624h-57.238zm105.186 0h-36.104c-.844 0-1.583-.624-1.583-1.374v-.5c0-.749.703-1.373 1.583-1.373h36.069c.844 0 1.583.624 1.583 1.373v.5c.07.75-.669 1.374-1.548 1.374z" fill="#FF5645"/><path d="M248.94 378.122a1.632 1.632 0 00-.623-.122h-57.238c-.147 0-.289.019-.424.055a1.862 1.862 0 01-.189-.516v-.036c0-.18-.036-.361 0-.541.036-.217.036-.397.108-.614.468-1.623 1.728-2.994 2.556-3.752.108-.108.18-.145.288-.217 1.584-.974 3.204-1.876 4.896-2.634 3.312-1.515 10.656-4.618 12.852-5.737 2.844-1.443 6.768-3.897 10.872-8.299l.504-.253 24.84-1.335s.468 1.083.468 1.119l1.26 22.119c0 .274-.061.532-.17.763zm47.709-.071a1.767 1.767 0 00-.419-.051h-36.069c-.195 0-.382.03-.554.087l3.327-19.275 23.717-4.523 9.998 23.762z" fill="#252525"/><path d="M283.319 297.454c3.771 16.95 7.406 34.485 10.632 51.913.165.86.453 2.865-.516 4.741-1.787 3.435-6.279 3.215-17.053 4.388-12.685 1.426-18.001 3.014-20.815-.499a6.186 6.186 0 01-1.352-2.845c-.83-4.919-2.87-13.131-5.368-22.987 1.066 4.942 2.104 9.892 3.11 14.834.18.857.503 2.858-.431 4.751-1.727 3.466-6.221 3.323-16.973 4.681-12.658 1.643-17.944 3.322-20.821-.143a6.203 6.203 0 01-1.402-2.823c-2.625-14.041-15.642-54.877-20.713-84.174 0-.072-.036-.107-.036-.179-1.618-9.468 4.459-18.328 13.485-19.543l8.954-1.179a15.437 15.437 0 011.639-.124l-.005-.012 43.751-4.097 42.562-.451c.108 4.814 1.088 23.117.728 29.989-.567 10.861-3.012 21.298-15.107 23.683a47.164 47.164 0 01-4.269.076z" fill="#353535"/><path opacity=".177" d="M283.306 297.516a1887.815 1887.815 0 00-8.055-34.643c-2.01-8.286-9.501-13.772-17.537-12.873l-8.974 1.025c-9.046 1.06-15.28 9.812-13.83 19.302-.002.072.034.108.032.179.443 2.859.959 5.828 1.532 8.872a1934.84 1934.84 0 00-4.753-18.575c-1.848-7.07-7.681-12.016-14.357-12.637l42.125-3.945 42.562-.451c.108 4.814 1.087 23.117.728 29.989-.568 10.86-3.013 21.298-15.107 23.682a47.833 47.833 0 01-4.366.075z" fill="#444"/><path d="M234.237 272.207l17.068 73.53a.54.54 0 101.052-.245l-17.068-73.53a.54.54 0 10-1.052.245z" fill="#482D1F"/><path d="M270.166 171.292c5.557-4.339 11.756-6.568 18.597-6.687 10.963-.192 11.977 3.276 10.059 10.052a2.932 2.932 0 01-.094.283l.199.135c.72.506 1.8 1.299 2.916 2.454.972.974 2.815 1.51 5.119 10.494.828 3.176 1.829 11.105 5.357 16.46 3.528 5.356 5.496 11.354 0 15.327-4.291 3.102-8.093 3.431-14.953 4.525.592 6.289.532 11.544-.059 15.179.617 2.646.817 4.222.601 4.727-11.921.289-19.021.469-21.301.541-5.616.181-20.992 1.618-35.309.578-3.6-3.428-3.427-15.047-3.427-15.047.064-1.821.128-3.571.191-5.251-9.418-2.428-14.582-4.728-15.491-6.9-1.449-3.462 1.224-10.684 1.872-12.56 1.26-3.572 4.057-9.867 4.719-13.104 2.049-10.024 4.785-12.876 5.757-13.85 1.116-1.155 5.78-5.187 12.859-6.188 2.192-.31 7.338-.737 15.436-1.282.083-.003.118.092.104.287 2.256-.163 4.555-.3 6.848-.173z" fill="#FF5241"/><path opacity=".177" d="M270.173 171.523c5.584-4.392 11.818-6.648 18.7-6.769 10.964-.191 11.978 3.277 10.06 10.053a3.166 3.166 0 01-.129.37c-4.803-3.237-9.849-3.729-12.442-3.801-.072-.036-.144-.036-.216-.036l-12.78-.18c-1.474-.063-1.309-.126-.623.622a25.856 25.856 0 00-2.57-.259zm-18.162 41.427a2.884 2.884 0 012.879-2.802h16.618l.04.001a2.884 2.884 0 012.84 2.927c-.037 2.568.396 4.521 1.297 5.859.982 1.457 2.477 2.494 4.485 3.109a2.164 2.164 0 011.529 2.07v10.575l-38.979 1.375.349-11.392a2.165 2.165 0 011.466-1.984c3.165-1.075 5.208-2.285 6.131-3.629.812-1.184 1.26-3.22 1.345-6.109z" fill="#444"/><path d="M276.017 158.884l-2.502 15.165c-.049.248-.203.476-.435.54-1.029.388-2.46.771-4.154.809-3.064.101-5.477-.884-6.808-1.584a.694.694 0 01-.371-.734l1.06-6.192c-1.968.326-1.852.277-2.045.302-2.336.133-4.231-.309-4.57-.449-1.252-.354-2.389-1.678-3.24-3.719-1.158-2.725-1.879-6.762-1.784-11.412-.018-.665.07-1.309.159-1.954l1.088-6.368c.239-1.423.861-2.736 1.786-3.916.393-.511.765-.917 1.194-1.237 4.68-4.088 11.257-2.071 12.424-1.66.134.063.276.09.41.153 1.239.609 2.455.957 3.685 1.233 1.23.276 8.754 14.204 8.751 14.975.012.993-2.185 3.473-4.648 6.048zm-52.519 78.847l1.701-13.222.556-3.645 12.355 4.142-.202 6.619c4.726-.655 10.555-.723 17.159.598.135.026.267.054.397.081 10.87-2.349 25.552-5.343 35.366-6.641l-4.704-17.572c.858 2.539 1.422 4.125 1.518 4.14.468.072 2.952 13.347 3.24 13.275 11.34-2.31 16.033-1.733 21.528-5.706.793-.573 1.431-1.188 1.931-1.838 2.351 11.035 3.471 25.78-11.655 28.476l-58.696-.815-23.939 2.222c-.2-3.882 1.422-7.5 3.445-10.114z" fill="#DB9E75"/><path d="M291.497 224.859a.541.541 0 11-1.039.294c-1.33-4.711-5.573-18.981-6.471-21.622a.54.54 0 111.022-.35c.907 2.665 5.153 16.948 6.488 21.678zm-52.851.215a.54.54 0 11-1.071-.136l2.568-20.387a.54.54 0 111.072.136l-2.569 20.387zM262.809 166.873l2.708-.524-3.326 4.145.618-3.621zM272.362 157.737l.119.084c.965.066 1.615.058 1.948-.024.501-.124 1.968-.499 3.047-1.906 1.08-1.407 1.591-3.477.741-5.333-.822-1.814-2.77-3.113-4.576-2.877-1.016.133-1.797.753-1.881.81a6.114 6.114 0 00-.69.699l-18.885-4.886c.628-4.139 2.688-6.84 6.18-8.105.992-.359 3.701-.887 6.052-.581 3.628.471 6.897 1.721 7.877 1.986.799.23 7.199.524 10.823 3.318a7.377 7.377 0 011.933 2.582c1.991 4.284.449 8.725-.07 9.727-.178.343-1.938 3.716-4.325 6.631-2.492 3.042-5.612 5.624-5.612 5.624-1.911-.472-2.805-3.055-2.681-7.749zm-19.555-9.851c-.34-.14-.357-.621-.061-.82.373-.222.993-.395 1.7-.257 1.449.282 2.818 1.541 1.11 1.65-1.009.097-2.112-.265-2.749-.573zm7.231 1.666c-.339-.139-.356-.62-.025-.813.373-.222.993-.395 1.735-.25 1.449.282 2.812 1.577 1.111 1.65-1.087.119-2.141-.307-2.821-.587z" fill="#482D1F"/><path d="M255.075 150.938c-.152.595-.45 1.566-.872 1.852-.704.414-1.138-1.508-.466-2.517.266-.426.528-.449.803-.358.411.153.618.598.535 1.023zm6.347 1.126c-.082.609-.274 1.601-.71 1.957-.647.499-1.307-1.394-.733-2.459.23-.432.498-.491.781-.435.424.082.709.505.662.937zM257.109 158.796c.261-.023.896-.083 1.078-.452.013-.07.069-.17.048-.248-.094-.275-.545-.216-1.188-.304-1.145-.15-2.043-.435-2.043-.435s.11.756.246 1.003c.285.607 1.485.474 1.859.436zM254.835 154.847c-.144.387.088.839.478.985l.143.041c.587.162.957.252 1.597.376a.36.36 0 00.137-.708c-.62-.121-.972-.207-1.543-.364l-.112-.031c-.001-.002-.025-.049-.023-.055l1.268-3.696.013-.049.406-2.089a.36.36 0 00-.707-.138l-.401 2.065-1.256 3.663z" fill="#482D1F"/><path opacity=".2" d="M223.55 237.701a25.03 25.03 0 017.553-4.193c2.787-.976 5.043-1.601 6.767-1.875l.24-6.627-12.356-4.142-2.204 16.837z" fill="#8C2A00"/><path d="M304.38 377.979h55.8c.895 0 1.62.727 1.62 1.624 0 .897-.725 1.624-1.62 1.624h-55.8c-.895 0-1.62-.727-1.62-1.624 0-.897.725-1.624 1.62-1.624zm109.345.006l35.214-26.313c.255-.176.509-.28.797-.275a1.588 1.588 0 011.322.6l.104.183c.53.622.369 1.594-.288 2.088l-35.826 26.909-21.1.063a1.546 1.546 0 01-1.522-1.506l.003-.216c.051-.829.711-1.504 1.539-1.489l19.757-.044z" fill="#FFCB3D"/><path d="M360.8 378.006a1.617 1.617 0 00-.62-.123h-55.8c-.171 0-.336.026-.491.076.013-.114.03-.23.059-.345.432-1.732.972-2.887 2.592-3.933a45.436 45.436 0 015.004-2.815c6.372-3.139 8.568-3.139 12.744-5.99 1.728-1.191 3.312-2.562 4.788-4.041.984-.986 3.12-2.598 6.408-4.835l30.067.999-4.751 21.007zm88.772-26.697a1.443 1.443 0 00-.633.266l-35.214 26.314-19.757.044a.662.662 0 00-.063 0 1.971 1.971 0 01-.104-.673c.04-.252.045-.541.122-.829.458-1.727 1.222-2.829 2.848-3.849 1.625-1.02 3.077-1.975 4.805-2.776 3.399-1.646 5.618-2.389 7.574-3.155.289-.502.566-1.019.833-1.578.334-.717 1.806-4.452 2.455-7.276.432-1.883 1.053-4.107 1.861-6.673l.507-2.016 22.104-16.036 12.662 18.237z" fill="#252525"/><path d="M378.747 247.619h1.449l48.6-.108c20.608-.105 31.403-.109 32.387-.013 1.044.253 8.113 4.149 10.129 10.982 1.078 3.656 1.944 8.552 1.584 14.614-.216 2.417-.54 7.685-3.6 12.737-3.168 5.268-7.56 8.804-14.076 11.042-5.544 1.876-10.98 1.01-17.676.397h-.072c-.252-.037-.756-.145-1.368-.253l-1.224-.217a23.515 23.515 0 00-1.584-.288h-.072c-6.192-1.119-11.7-2.129-17.208-3.176l-.252-.036-.911-.178a320.156 320.156 0 012.714 3.788 506.91 506.91 0 016.912 10.031l9.036 12.81c1.368 1.912.756 4.583-1.368 5.918l-11.124 6.928-10.08 6.711-1.98 1.263c-1.98 1.227-4.572.83-5.904-.938-3.42-4.547-5.94-7.974-10.296-13.567-2.741-3.548-1.034-1.095-9.739-10.185-3.357 9.478-7.716 22.039-10.748 27.142-.756 1.299-2.232 1.985-3.744 1.768l-28.584-4.258c-2.448-.36-3.888-2.995-2.844-5.268 5.292-11.655 14.683-44.515 15.979-47.474a49.66 49.66 0 001.249-3.149c-3.347-4.393-4.993-6.874-6.389-10.248-1.26-3.031-2.412-5.809-2.34-9.562.108-5.557 2.88-11.871 8.424-15.263 3.096-1.912 6.05-1.822 7.85-1.967 1.608-.048 7.227-.048 16.857 0l.013.017z" fill="#353535"/><path opacity=".177" d="M378.749 247.568h-.799c-2.556 0-3.026.577-5.294 1.732a38.76 38.76 0 00-5.472 3.247c-2.592 1.804-4.572 4.366-5.796 7.253a1.724 1.724 0 00-.108.253c-2.281 5.493-4.091 16.109-7.069 24.43-3.266-4.294-4.888-6.756-6.268-10.089-1.26-3.031-2.412-5.809-2.34-9.562.108-5.557 2.88-11.871 8.424-15.263 3.096-1.912 6.099-1.858 7.899-2.003 1.608-.048 7.215-.048 16.822 0l.001.002zm36.088 45.53a337.68 337.68 0 012.73 3.812 504.021 504.021 0 016.912 10.032l9.036 12.809c1.368 1.913.756 4.583-1.368 5.918l-11.124 6.928-10.08 6.711-1.98 1.263c-1.98 1.227-4.572.83-5.904-.938-3.42-4.546-5.94-7.974-10.296-13.567-2.754-3.565-1.017-1.07-9.869-10.321 1.97-5.561 3.59-10.046 4.389-11.313 1.764-2.814 3.517-8.116 5.065-10.172.828-1.119 1.98-2.671 3.42-4.475 1.62.217 3.24.433 4.86.686 2.232.397 4.464.83 6.732 1.227 2.513.458 4.997.916 7.477 1.4z" fill="#444"/><path d="M388.908 282.187c1.965 2.621 2.572 3.357 3.204 3.977.583.571 1.161 1.272 3.096 3.853a.54.54 0 00.864-.65c-1.966-2.622-2.573-3.358-3.205-3.977-.583-.572-1.161-1.273-3.095-3.854a.54.54 0 10-.864.651z" fill="#482D1F"/><path d="M458.251 216.129l10.643-3.345c.729-.899 6.959-12.966-5.637-18.887a48.668 48.668 0 00-2.937-4.606c-3.24-4.546-5.904-8.226-10.656-10.428a18.646 18.646 0 00-5.311-1.529 18.752 18.752 0 00-7.757-1.177l-8.28.505c-10.512.578-18.468 9.526-17.82 19.954l.036.65 1.046 19.538.92 18.725.518 3.594c0 .288.036.541.072.829.036.325.072.614.108.939.108.83 2.52 6.314 2.664 6.639l45.324.072-2.933-31.473z" fill="#FFCB3D"/><path d="M408.882 340.521l1.901-1.213 10.08-6.712 10.979-6.837 5.785 8.38-22.509 15.312-6.236-8.93zm-68.204.145l27.694 4.125c.107.015.214.026.321.033l-3.142 12.175-30.067-1 5.194-15.333zm96.39-177.915l-.55 4.236-.226 3.239-.428 6.142-7.607.464a19.096 19.096 0 00-3.167.439l.395-5.364-.466.074c-3.213.534-3.028.475-3.246.496-2.354.124-4.235-.333-4.587-.467-2.899-.854-5.176-7.018-5.006-15.145.009-.65.09-1.295.172-1.941l1.093-6.362a8.19 8.19 0 011.749-3.856c.394-.479.783-.886 1.203-1.218 4.688-4.084 11.26-2.068 12.422-1.661l.424.138a16.63 16.63 0 003.703 1.236c.569.112.927.68.815 1.251l-1.788 9.062c-.168.857 6.807-2.816 6.928 4.682.283 1.844-.599 3.54-1.833 4.555zm-24.672 67.237c.814-.137 1.736-.287 2.782-.451a1401.4 1401.4 0 0129.169-4.239l-.007-.003c-.351-.639-1.146-2.316-2.143-4.467.248.013.501.021.759.026l25.614-8.051c.225.606.452 1.222.682 1.847 4.267 11.668 6.607 17.938 6.101 22.309l.087.013c-.031.027-.068.111-.121.244-.021.15-.046.297-.075.442l-.083-.034c-.581 1.475-2.276 5.178-8.217 8.767-4.964 2.998-26.852 3.402-65.664 1.211l-.115-.088c-4.121-.329-8.623-1.197-13.505-2.604 1.376.4 2.726.758 4.051 1.074l-18.933-2.505c-3.205-.843-12.278-3.314-19.144-5.163-2.204-.575-4.379-1.143-6.307-1.648-3.996-1.046-6.948-1.84-6.948-1.84.216-4.33 7.056-3.248 10.116-2.526 3.744.181 7.488.397 11.268.578a27.74 27.74 0 012.048-.466c-2.801-1.936.38-3.49 9.544-4.662 4.759-.609 8.384.027 12.08 1.073l19.69-3.662-.029-.026 5.998-17.09.567 9.574.036.36.699 12.007z" fill="#F2A98A"/><path d="M436.884 162.78c-.95.693-1.976.911-2.63.973-.4.045-.779.308-.912.66l-2.415 6.161s-.113.064-.369.119c-.628.209-2.174.643-5.531 1.167-3.213.535-3.028.475-3.246.496-2.354.125-4.235-.333-4.587-.466-2.899-.854-5.176-7.018-5.006-15.145.009-.65.09-1.296.172-1.941l1.093-6.362a8.186 8.186 0 011.749-3.856c.394-.479.783-.886 1.203-1.218 4.688-4.085 11.26-2.069 12.422-1.662l.424.139c1.257.594 2.458.968 3.703 1.236.569.112.926.68.814 1.251l-1.787 9.062c-.168.856 6.807-2.816 6.927 4.681.298 1.938-.692 3.714-2.024 4.705z" fill="#F2A98A"/><path d="M425.181 174.776l4.156-3.883-4.156.928v2.955zM412.429 162.119c-1.172 1.492-1.808 2.975-1.435 4.22.473 1.573 1.963 2.321 3.485 3.074l.038.018c-.974-1.753-1.719-4.28-2.088-7.312zm20.891 1.374c-.507 1.865-1.33 4.311-2.471 7.337 4.391 1.851 7.83 1.851 10.317 0 1.027-.76 3.222-8.537 4.65-12.452.452-1.306 2.023-5.718-.148-9.776a8.673 8.673 0 00-2.233-2.653c-2.426-1.942-4.645-1.7-9.969-2.977a53.392 53.392 0 01-4.672-1.304c-.144-.01-.285-.056-.426-.102-1.163-.407-7.607-2.142-12.033 1.816a8.978 8.978 0 00-.586.58c.911.746 1.67 1.249 2.278 1.509 2.559 1.083 4.936 1.142 6.424 1.029.224.92.582 1.994 1.12 3.081 1.509 3.145 3.903 5.089 5.394 6.117.326-.322 1.083-1.004 2.077-1.47.113-.065.966-.403 1.931-.263 1.716.229 3.183 1.959 3.45 3.823.298 1.938-.656 3.716-1.988 4.708-1.201.894-2.522.986-3.115.997zM448.535 228.271a.54.54 0 00.733-.215.543.543 0 00-.215-.735l-4.5-2.461a.542.542 0 00-.518.95l4.5 2.461zm-12.233-22.264a.54.54 0 10-1.006-.392c-.089.228-.15.394-.239.672a14.38 14.38 0 00-.373 1.399c-.703 3.27-.368 6.561 1.607 9.428 1.628 2.353 3.801 3.694 6.047 4.406a.542.542 0 00.326-1.032c-2.039-.646-4.015-1.866-5.485-3.991-1.78-2.583-2.085-5.579-1.44-8.583.101-.468.218-.9.345-1.294.082-.254.137-.403.218-.613z" fill="#482D1F"/><path opacity=".2" d="M412.221 230.053l-.703-12.072-.036-.36-.567-9.574-5.998 17.09.029.026-19.784 3.68c1.324.371 2.655.796 4.048 1.236 1.914.606 4.501 1.623 7.762 3.052 3.246-.709 5.421-1.139 7.003-1.362 2.335-.328 1.033-.503 8.246-1.716zm-48.571 2.357c-.783.145-1.479.315-2.066.47-3.78-.181-7.524-.397-11.268-.578-3.06-.721-9.9-1.804-10.116 2.526 0 0 2.952.794 6.948 1.84 1.928.505 4.104 1.073 6.308 1.648 6.865 1.849 15.938 4.32 19.144 5.163l18.932 2.505a86.263 86.263 0 01-4.051-1.074c-5.353-1.557-11.959-5.127-19.819-10.709-1.86-.629-3.198-1.226-4.012-1.791z" fill="#8C2A00"/><path d="M379.643 241.505c-3.481-1.804-7.308-4.182-11.482-7.135l-38.438-10.381a2.065 2.065 0 00-2.52 1.479 2.055 2.055 0 001.476 2.526l49.968 13.495c.34.088.679.089.996.016z" fill="#474961"/><path d="M414.683 155.201c-.066.679-.145 1.779-.543 2.195-.646.671-1.569-1.374-1.081-2.58.221-.492.527-.658.824-.594a.92.92 0 01.8.979zm7.897.944c-.067.679-.145 1.78-.543 2.195-.647.671-1.57-1.374-1.081-2.579.22-.492.527-.658.823-.595a.92.92 0 01.801.979zM416.461 155.84l-1.043 3.355c-.093.432.15.9.562.988.239.071.395.104 1.025.226.281.055.474.093.7.141a.361.361 0 00.15-.706 46.223 46.223 0 00-.714-.144c-.604-.117-.75-.148-.985-.217-.016-.004-.05-.069-.042-.106l1.034-3.322a.36.36 0 10-.687-.215zM417.775 162.792c.251-.027.879-.175 1.028-.547.016-.077.074-.186.049-.232-.094-.222-.563-.16-1.191-.173a12.803 12.803 0 01-2.021-.229s.163.721.29.95c.271.542 1.443.307 1.845.231z" fill="#482D1F"/><path d="M418.261 155.325a5.04 5.04 0 015.976-3.88 5.046 5.046 0 013.88 3.875l.018.175-.018-.175.033.171 2.797-.825a.542.542 0 01.305 1.038l-2.926.863a.521.521 0 01-.1.02 5.04 5.04 0 01-6.085 4.74 5.051 5.051 0 01-3.991-4.787l.011-.137-1.229-.092-.023.142A5.039 5.039 0 01411 160.06a5.051 5.051 0 01-3.882-5.991 5.04 5.04 0 015.978-3.891 5.051 5.051 0 013.992 5.06l1.173.087zm4.104 4.943a3.96 3.96 0 004.697-3.057 3.97 3.97 0 00-3.05-4.708 3.961 3.961 0 00-4.697 3.058 3.97 3.97 0 003.05 4.707zm-11.14-1.267a3.96 3.96 0 004.697-3.057 3.969 3.969 0 00-3.051-4.707 3.959 3.959 0 00-4.696 3.057 3.967 3.967 0 003.05 4.707z" fill="#482D1F"/><path d="M372.24 377.879l.144.073c.756.397 1.728.18 2.088-.506l42.156-77.615c.396-.721.072-1.624-.684-2.021l-.144-.072c-.756-.397-1.728-.18-2.088.506l-10.44 19.196a19331.517 19331.517 0 01-20.448 37.635l-11.268 20.712c-.396.721-.072 1.659.684 2.092z" fill="#575757"/><path d="M475.832 296.475H390.842c-.744 0-1.394.722-1.394 1.588v.18c0 .866.619 1.588 1.394 1.588h85.052c.743 0 1.394-.722 1.394-1.588v-.18c0-.866-.651-1.588-1.456-1.588z" fill="#575757"/><path d="M489.78 375.787l-11.268-20.712a19331.517 19331.517 0 00-20.448-37.635l-10.44-19.197c-.36-.685-1.332-.938-2.088-.505l-.144.072c-.756.397-1.08 1.336-.684 2.021l42.156 77.615c.36.686 1.332.939 2.088.506l.144-.073c.756-.433 1.08-1.371.684-2.092zM486.563 194.343l-3.42 27.712c-2.088 16.779-4.14 33.558-6.228 50.3l-3.168 25.692c-.108.902.504 1.804 1.368 1.912l.18.036c.864.108 1.656-.541 1.8-1.515l12.852-103.776c.108-.902-.504-1.804-1.368-1.913l-.18-.036c-.9-.108-1.728.614-1.836 1.588zM470.52 243.409H192.24a2.523 2.523 0 00-2.52 2.526 2.522 2.522 0 002.52 2.525h278.28c1.392 0 2.52-1.13 2.52-2.525a2.523 2.523 0 00-2.52-2.526z" fill="#575757"/><path d="M7.717 384.855c-.936 0-1.656-.625-1.62-1.374v-.5c0-.749.756-1.374 1.62-1.374h36.9c.9 0 1.62.625 1.62 1.374v.5c0 .749-.756 1.374-1.62 1.374h-36.9zm82.234-3.248h57.24c.894 0 1.62.727 1.62 1.624 0 .897-.726 1.624-1.62 1.624h-57.24c-.895 0-1.62-.727-1.62-1.624 0-.897.725-1.624 1.62-1.624z" fill="#EC8840"/><path d="M64.219 258.778c-.954 20.104-2.585 49.399-4.893 87.884a4.326 4.326 0 01-3.979 4.058l-17.066 1.322c-2.896-.059-5.828-.116-8.916-.318-1.233-.049-2.509-.174-3.784-.3-8.315-1.729-14.12-3.305-22.436-5.035-1.622-.374-4.08-3.785-2.512-9.408 1.568-5.622 6.389-38.052 10.267-61.856-.328-3.844-.294-7.68.25-11.481.602-4.366 11.132-77.448 12.362-84.625.962-13.443 7.505-19.309 15.038-21.791 2.015-.664 3.538-3.018 6.581-4.033 2.752-.917 8.71-1.483 17.876-1.699 2.971-.674 10.3-.443 15.375 2.491 2.01 1.162 4.664 3.729 7.898 9.844 3.234 6.114 22.113 64.333 22.509 75.095a527.673 527.673 0 017.956 24.878c1.512 5.16 1.512 9.288 1.656 10.504 3.996 31.954 20.052 60.664 12.564 67.667-1.152 1.069-7.308 2.285-19.62 4.754-.792.148-1.512.295-1.512.295-3.06.59-5.94 1.032-8.82 1.438 0 0-13.608 2.653-29.052 1.474-2.49-.198-5.07-30.584-7.742-91.158z" fill="#FF5645"/><path opacity=".177" d="M78.382 153.86c2.01 1.162 4.665 3.729 7.898 9.843 3.234 6.115 22.113 64.334 22.509 75.096a527.673 527.673 0 017.956 24.878c1.512 5.16 1.512 9.287 1.656 10.504 3.996 31.954 20.052 60.664 12.564 67.667-1.152 1.069-7.308 2.285-19.62 4.754-.792.148-1.512.295-1.512.295-3.06.59-5.94 1.032-8.82 1.438 0 0-13.608 2.653-29.052 1.474-2.508-.199-5.11-31.046-7.803-92.54.626-13.355.939-22.463.939-27.324 1.105-8.643 2.17-17.323 3.276-25.966.973-19.633 1.167-32.949.581-39.949-.068-.81-.504-5.022-1.308-12.634l10.736 2.464z" fill="#444"/><path d="M44.632 381.608H8.118l10.975-21.198 19.944 2.418 5.595 18.78zm103.283.159a1.613 1.613 0 00-.701-.159h-57.24c-.12 0-.239.013-.352.038l3.875-22.066 22.558-.705 6.48 4.727c1.512 1.443 3.096 2.814 4.86 3.969 4.212 2.779 6.408 2.742 12.816 5.81a45.347 45.347 0 015.04 2.742c.792.722 2.196 2.165 2.664 3.897.072.289.072.577.108.83.009.326-.033.632-.108.917z" fill="#252525"/><path d="M35.856 182.808s10.908 23.31 5.436 24.428c0 0-3.276-1.768-5.652-7.397" fill="#482D1F"/><path d="M8.205 188.676l-4.68 31.357a1.816 1.816 0 001.476 2.056l41.724 6.279a1.813 1.813 0 002.052-1.48l4.68-31.356a1.817 1.817 0 00-1.476-2.057l-41.724-6.278c-1.008-.145-1.908.541-2.052 1.479z" fill="#212121"/><path d="M48.953 199.471l-3.564 22.985c-.18.975.504 1.877 1.476 2.057l3.348.541c.972.181 1.872-.505 2.052-1.479l3.564-22.985c.18-.974-.504-1.877-1.476-2.057l-3.348-.541c-.972-.181-1.872.505-2.052 1.479z" fill="#FFC700"/><path d="M68.854 99.858c2.555-1.033 6.457-1.832 10.458.412 3.407 1.873 2.659 4.445 8.523 10.286 2.907 2.889 5.453 4.672 5.271 6.95-.113 1.308-1.035 2.223-1.766 2.807a3819.23 3819.23 0 01-9.896 3.952l.129 11.103.006.336.217 6.196v2.132c0 7.027-5.433 12.85-12.427 13.322l-22.97 1.546c-4.762.321-8.88-3.287-9.2-8.059a8.723 8.723 0 01-.02-.548l-.077-20.217c-3.721.253-7.442.504-11.163.752-1.17-.217-2.707-.697-3.389-1.944-1.215-2.222 1.221-5.231 3.645-9.622 4.848-8.783 2.834-10.994 6.287-14.604 4.785-5.01 11.142-5.682 14.656-5.649.8-.01 1.617.126 2.39.33l.089.047a18.577 18.577 0 015.29-.805l7.985-.038c2.073-.023 4.08.456 5.962 1.315z" fill="#EC8840"/><path d="M40.876 351.684l-1.839 11.144-19.908-2.418c.089-3.94.156-7.43.2-10.468 1.928.438 3.938.881 6.12 1.336 1.276.125 2.552.25 3.785.299 3.089.202 6.02.259 8.917.318l2.725-.211zm74.285-5.893l.894 13.084-22.558.705s-.883-4.79-1.93-10.031c5.665-.522 9.315-1.234 9.315-1.234 2.88-.406 5.76-.848 8.82-1.437 0 0 .72-.148 1.512-.295l3.947-.792zM56.585 92.327l-1.727-6.314c-.131-.376-1.531-.905-2.317-1.527-1.396-1.138-1.712-3.067-1.449-4.993.394-1.846 2.02-3.516 3.766-3.655.654-.052 1.283.088 1.912.377l.043.026c.218.132.48.14.698.124.603-.114 1.031-.63.953-1.243l-1.286-9.347c-.113-.604.28-1.111.882-1.225 1.319-.218 2.576-.532 3.825-1.03l.454-.113c1.25-.35 8.034-2.008 12.59 2.432.41.455.81.875 1.151 1.348.846 1.165 1.378 2.556 1.56 4.036l.738 6.546c.052.657.07 1.322.052 1.996-.311 8.296-2.97 14.464-5.982 15.18-1.555.314-3.161.418-4.733.215-.212-.047-.07-.002-2.421-.512l-.03 3.702c3.92.757 5.51 2.211 5.51 2.211-.151.951-.5 1.627-.935 2.128-2.67 3.117-10.718 1.547-20.052-3.442a53.797 53.797 0 015.578-1.02c.407-1.964.823-3.73 1.22-5.9zM81.7 144.57c.01-.207.014-.415.014-.624v-2.133l-.217-6.195-.006-.337-.13-11.2c3.393-1.351 6.782-2.702 10.163-4.059.187-.149.386-.32.582-.514l9.09 12.028c2.382-1.983 13.519-10.461 20.482-15.743 9.59-8.598 28.097-25.017 28.097-25.017 2.345 1.712.675 7.038-2.124 12.789 1.184.781 2.455 2.314 3.813 4.598a5.42 5.42 0 01-1.086 6.846l-11.014 9.647c-11.089 13.244-30.278 32.662-35.832 34.604-5.994 2.096-13.77-4.235-21.832-14.69zm-55.148-13.934c8.152-.542 16.306-1.104 24.458-1.655L36.026 192.36l-.025.002 6.657 27.688a1.443 1.443 0 01-.766 1.633c-2.073 1.021-4.745 1.513-8.016 1.476-5.753-.066-9.72-2.271-9.72-2.304-4.404-9.786-6.906-17.375-7.505-22.766a13.088 13.088 0 01-.021-2.431l-.07-.025 9.993-64.997z" fill="#BF865F"/><path opacity=".177" d="M68.433 100.077c2.484-1.122 6.552-2.234 10.88.193 3.406 1.873 2.658 4.445 8.522 10.286 2.907 2.889 5.296 4.567 5.296 6.852 0 1.28-.817 2.096-1.605 2.614a994.88 994.88 0 01-10.163 4.033l-.241-7.247c.025-4.363-1.213-8.3-3.714-11.812-1.934-2.715-4.925-4.354-8.975-4.919z" fill="#444"/><path opacity=".2" d="M81.7 144.57c.01-.207.015-.415.015-.624v-2.133l-.217-6.195-.006-.337-.13-11.2a3953.86 3953.86 0 0010.163-4.059c.187-.149.386-.32.582-.513l9.09 12.027c2.382-1.983 13.519-10.461 20.482-15.743 9.59-8.598 28.097-25.017 28.097-25.017 2.345 1.712.676 7.038-2.124 12.789 1.184.782 2.455 2.314 3.813 4.598a5.42 5.42 0 01-1.086 6.846l-11.014 9.647c-11.089 13.244-30.278 32.662-35.832 34.604-5.994 2.096-13.77-4.235-21.832-14.69z" fill="#8C2A00"/><path d="M33.347 209.979a.54.54 0 011.053-.244c.417 1.807.8 3.207 1.7 6.327.906 3.138 1.293 4.552 1.716 6.384a.54.54 0 11-1.052.244c-.417-1.807-.8-3.207-1.701-6.327-.906-3.139-1.293-4.552-1.716-6.384zm-7.335-1.266a.54.54 0 111.035-.309c.587 1.976.994 3.473 1.861 6.775.865 3.291 1.27 4.78 1.853 6.742a.54.54 0 11-1.035.309c-.588-1.977-.994-3.474-1.862-6.775-.865-3.291-1.27-4.78-1.852-6.742zm24.208-79.398a.541.541 0 01.55-.531 3.446 3.446 0 00.442-.041c.317-.052.632-.147.922-.294.947-.48 1.451-1.396 1.292-3.003a25.885 25.885 0 00-.521-3.277 13.547 13.547 0 00-.48-1.643 4.482 4.482 0 00-.198-.472.542.542 0 01.223-.732.539.539 0 01.73.223c.057.106.146.305.257.602.178.48.356 1.07.52 1.776.229.985.415 2.12.544 3.416.203 2.053-.535 3.395-1.88 4.076a4.237 4.237 0 01-1.235.396 3.86 3.86 0 01-.628.056h-.009a.54.54 0 01-.529-.552zM43.708 80.488c-6.146 4.293-13.034 4.108-16.532.854-2.661-2.495-3.157-6.574-3.226-7.152-.704-5.811 4.065-7.672 4.466-7.847 0 0 5.88-5.15 15.706 3.624l.093.084c.582-1.015 1.407-1.855 2.336-2.55 2.603-1.915 4.873-1.59 10.453-2.724 1.135-.21 2.89-.702 4.97-1.296l.453-.114c1.25-.349 7.947-1.968 12.501 2.472-.008.11-3.903 13.771-14.257 15.429l-1.798-3.161a5.683 5.683 0 00-2.042-1.795c-.629-.29-1.258-.43-1.912-.378-1.747.139-3.372 1.81-3.766 3.656-.359 1.837.303 3.754 1.77 4.876a5.088 5.088 0 003.262 1.183c.193 2.883.425 6.887.425 6.887h-.864c-.265 0-9.104-2.636-12.038-12.048zm29.206-3.211c-.682.244-1.834.532-2.83.41-1.72-.203-.226-1.358 1.276-1.584.707-.14 1.292.123 1.685.36.28.228.21.691-.132.814zm6.749-1.222c-.664.315-1.747.734-2.804.664-1.755-.045-.41-1.348 1.102-1.689.777-.157 1.335.001 1.763.229.306.184.27.639-.061.796zM77.106 80.781c-.357-.394-.348-1.4-.321-2.039 0-.446.393-.805.795-.83.262.008.585.113.707.603.365 1.173-.675 2.958-1.18 2.266zm-5.94.72c-.394-.385-.35-1.4-.323-2.04 0-.446.394-.804.795-.83.262.009.585.114.707.604.366 1.173-.639 2.95-1.18 2.266zM76.74 83.585l-.328-3.839.097-2.12a.36.36 0 10-.72-.033l-.097 2.144v.047l.33 3.86c.001.014-.024.04-.089.047l-.037.006a6.72 6.72 0 01-1.37.12.36.36 0 000 .722c.576 0 1.076-.043 1.502-.132.427-.054.745-.404.712-.822z" fill="#482D1F"/><path d="M45.859 71.281s.844 4.289-1.622 10.483l6.026-2.324-.103-3.544-4.301-4.615zM65.437 94.651l-3.073-.72 2.834 6.173.239-5.453zM74.31 87.441c-.263-.009-2.475-.623-2.65-1.025-.017-.07-.078-.167-.06-.245.061-.202 2.789.246 2.789.246 1.458-.104 1.833-.235 1.955-.042.062.096.061.245-.183.603-.254.622-1.441.472-1.852.463z" fill="#482D1F"/></svg>