<svg width="1033" height="707" viewBox="0 0 1033 707" fill="none" xmlns="http://www.w3.org/2000/svg">
<g opacity="0.5">
<g filter="url(#filter0_f)">
<circle cx="496.347" cy="348.898" r="306.765" fill="white"/>
</g>
<path d="M843.947 568.554C739.536 749.399 508.291 811.36 327.447 706.95C146.603 602.539 84.6411 371.295 189.052 190.451C293.462 9.60627 524.707 -52.3555 705.551 52.0549C886.395 156.465 948.357 387.71 843.947 568.554Z" fill="url(#paint0_linear)"/>
<circle opacity="0.2" cx="403.822" cy="575.646" r="40.064" fill="url(#paint1_linear)"/>
<circle cx="721.897" cy="265.897" r="292.897" fill="url(#paint2_linear)"/>
<path d="M846.604 0.432956C863.431 -11.698 876.907 -16.1011 885.549 -11.1115C917.559 7.36925 871.134 147.706 781.856 302.34C692.578 456.974 594.255 567.348 562.246 548.867C552.847 543.441 550.211 527.511 553.434 503.799" stroke="url(#paint3_linear)" stroke-width="1.11561"/>
</g>
<defs>
<filter id="filter0_f" x="156.802" y="9.35294" width="679.09" height="679.09" filterUnits="userSpaceOnUse" color-interpolation-filters="sRGB">
<feFlood flood-opacity="0" result="BackgroundImageFix"/>
<feBlend mode="normal" in="SourceGraphic" in2="BackgroundImageFix" result="shape"/>
<feGaussianBlur stdDeviation="16.39" result="effect1_foregroundBlur"/>
</filter>
<linearGradient id="paint0_linear" x1="624.464" y1="271.538" x2="131.613" y2="764.388" gradientUnits="userSpaceOnUse">
<stop stop-color="#141414"/>
<stop offset="1" stop-color="#2D2D2D"/>
</linearGradient>
<linearGradient id="paint1_linear" x1="363.651" y1="616.165" x2="444.293" y2="535.523" gradientUnits="userSpaceOnUse">
<stop stop-color="#C4C4C4"/>
<stop offset="1" stop-color="#C4C4C4" stop-opacity="0"/>
</linearGradient>
<linearGradient id="paint2_linear" x1="429" y1="558.795" x2="867.331" y2="112.346" gradientUnits="userSpaceOnUse">
<stop stop-color="#343434"/>
<stop offset="1" stop-color="#141414"/>
</linearGradient>
<linearGradient id="paint3_linear" x1="919.014" y1="-7.66798" x2="578.163" y2="558.057" gradientUnits="userSpaceOnUse">
<stop stop-color="#444444"/>
<stop offset="1" stop-color="#2C2C2C"/>
</linearGradient>
</defs>
</svg>
