<svg width="191" height="159" viewBox="0 0 191 159" fill="none" xmlns="http://www.w3.org/2000/svg">
<path d="M13.5014 97.8937H8.79508L12.1231 94.5657C14.7536 91.9351 16.3946 88.5147 16.8355 84.8096L16.892 84.3345L16.492 84.072C10.0685 79.8566 5.40016 74.3304 2.90643 68.0224L2.18887 68.3061L2.90643 68.0224C0.413481 61.7167 0.0960134 54.7677 2.00282 47.9175L1.25816 47.7103L2.00283 47.9175C4.29151 39.6951 9.66754 32.1773 17.161 26.7658C25.3007 20.8877 35.4518 17.7671 46.5334 17.7671C60.5324 17.7671 72.2512 21.7878 80.4864 29.3155C87.9066 36.0985 91.9838 45.2349 91.9838 55.0495C91.9838 59.8191 91.013 64.4585 89.0974 68.8427C87.1153 73.3787 84.2124 77.4198 80.4641 80.8548L80.9569 81.3925L80.4641 80.8548C72.2171 88.4128 60.5057 92.4488 46.5332 92.4488C41.3566 92.4488 35.9538 91.7572 31.1371 90.4907L30.7014 90.3761L30.387 90.6987C25.9073 95.2941 19.8427 97.8937 13.5014 97.8937ZM5.75887 48.9631L6.50353 49.1704L5.75887 48.9631C2.15516 61.9099 7.50203 74.1295 19.9055 81.6146L20.877 82.2009L20.8471 83.3351C20.7673 86.3601 20.0463 89.2706 18.7578 91.8998L17.9405 93.5673L19.6996 92.9721C23.0917 91.8244 26.1656 89.7451 28.5703 86.9041L27.9803 86.4047L28.5703 86.9041L29.3945 85.9303L30.6168 86.2959C35.4835 87.7515 41.1323 88.5499 46.5334 88.5499C60.702 88.5499 71.0959 84.2572 77.9551 77.8908C84.81 71.5285 88.0849 63.1392 88.0849 55.0495C88.0849 46.3364 84.4453 38.2168 77.8556 32.1933C70.2881 25.2758 59.4322 21.666 46.5334 21.666C23.6855 21.666 9.55875 35.3121 5.75887 48.9631Z" fill="white" stroke="#1D1D1D" stroke-width="1.54595"/>
<g filter="url(#filter0_d)">
<path d="M42.8655 64.0868C42.8655 61.8648 43.1353 60.0951 43.6749 58.7778C44.2146 57.4605 45.1986 56.167 46.627 54.8973C48.0713 53.6117 49.0315 52.5721 49.5077 51.7785C49.9838 50.9691 50.2219 50.12 50.2219 49.2312C50.2219 46.5489 48.9839 45.2078 46.508 45.2078C45.3335 45.2078 44.3891 45.5728 43.6749 46.3029C42.9766 47.0171 42.6116 48.0091 42.5798 49.2788H35.6758C35.7075 46.2474 36.6836 43.8746 38.604 42.1605C40.5403 40.4464 43.175 39.5894 46.508 39.5894C49.8727 39.5894 52.4835 40.4067 54.3405 42.0415C56.1974 43.6604 57.1259 45.9538 57.1259 48.9217C57.1259 50.2708 56.8243 51.5484 56.2212 52.7546C55.6181 53.945 54.5627 55.2702 53.0549 56.7304L51.1265 58.5635C49.9203 59.7221 49.2299 61.0791 49.0553 62.6345L48.9601 64.0868H42.8655ZM42.1751 71.3955C42.1751 70.3321 42.5322 69.4592 43.2464 68.7767C43.9765 68.0784 44.905 67.7292 46.0318 67.7292C47.1587 67.7292 48.0792 68.0784 48.7934 68.7767C49.5235 69.4592 49.8886 70.3321 49.8886 71.3955C49.8886 72.443 49.5315 73.308 48.8172 73.9905C48.1189 74.6729 47.1904 75.0142 46.0318 75.0142C44.8732 75.0142 43.9368 74.6729 43.2226 73.9905C42.5243 73.308 42.1751 72.443 42.1751 71.3955Z" fill="white"/>
</g>
<path d="M166.066 147.84H170.772L167.444 144.512C164.814 141.882 163.173 138.461 162.732 134.756L162.675 134.281L163.075 134.019C169.499 129.803 174.167 124.277 176.661 117.969L177.379 118.253L176.661 117.969C179.154 111.663 179.471 104.714 177.565 97.8641L178.309 97.6568L177.565 97.8641C175.276 89.6417 169.9 82.1239 162.406 76.7123C154.267 70.8342 144.116 67.7136 133.034 67.7136C119.035 67.7136 107.316 71.7344 99.081 79.2621C91.6607 86.045 87.5836 95.1815 87.5836 104.996C87.5836 109.766 88.5544 114.405 90.47 118.789C92.4521 123.325 95.355 127.366 99.1033 130.801L98.6105 131.339L99.1033 130.801C107.35 138.359 119.062 142.395 133.034 142.395C138.211 142.395 143.614 141.704 148.43 140.437L148.866 140.323L149.18 140.645C153.66 145.241 159.725 147.84 166.066 147.84ZM173.809 98.9096L173.064 99.1169L173.809 98.9096C177.412 111.856 172.065 124.076 159.662 131.561L158.69 132.147L158.72 133.282C158.8 136.307 159.521 139.217 160.81 141.846L161.627 143.514L159.868 142.919C156.476 141.771 153.402 139.692 150.997 136.851L151.587 136.351L150.997 136.851L150.173 135.877L148.951 136.242C144.084 137.698 138.435 138.496 133.034 138.496C118.865 138.496 108.472 134.204 101.612 127.837C94.7574 121.475 91.4825 113.086 91.4825 104.996C91.4825 96.2829 95.1221 88.1633 101.712 82.1398C109.279 75.2223 120.135 71.6125 133.034 71.6125C155.882 71.6125 170.009 85.2586 173.809 98.9096Z" fill="white" stroke="#1D1D1D" stroke-width="1.54595"/>
<g filter="url(#filter1_d)">
<path d="M128.739 93.1025H137.944L136.512 111.102H130.171L128.739 93.1025ZM133.342 122.914C131.842 122.914 130.648 122.488 129.762 121.636C128.876 120.784 128.433 119.778 128.433 118.619C128.433 117.426 128.876 116.42 129.762 115.602C130.648 114.784 131.842 114.375 133.342 114.375C134.807 114.375 135.984 114.801 136.87 115.653C137.79 116.471 138.251 117.46 138.251 118.619C138.251 119.778 137.79 120.784 136.87 121.636C135.984 122.488 134.807 122.914 133.342 122.914Z" fill="white"/>
</g>
<g opacity="0.9" clip-path="url(#clip0)">
<path d="M161.807 14.8618C160.897 14.6111 160.362 13.6693 160.613 12.7596L161.798 8.45933C162.049 7.5496 162.99 7.01471 163.9 7.26537C164.81 7.51602 165.345 8.45778 165.094 9.3675L163.909 13.6678C163.658 14.5775 162.717 15.1124 161.807 14.8618Z" fill="#FCC501"/>
<path d="M174.598 24.8217C174.176 24.7054 173.799 24.4288 173.567 24.0174C173.1 23.1961 173.388 22.1524 174.209 21.6859L178.088 19.4827C178.91 19.0162 179.953 19.3038 180.42 20.125C180.886 20.9463 180.599 21.99 179.777 22.4565L175.898 24.6597C175.487 24.8916 175.02 24.9379 174.598 24.8217Z" fill="#FCC501"/>
<path d="M180.901 42.0937L176.6 40.9089C175.691 40.6582 175.156 39.7165 175.406 38.8067C175.657 37.897 176.599 37.3621 177.508 37.6128L181.809 38.7976C182.718 39.0483 183.253 39.99 183.003 40.8998C182.752 41.8095 181.81 42.3444 180.901 42.0937Z" fill="#FCC501"/>
<path d="M168.844 57.5786C168.423 57.4623 168.045 57.1857 167.813 56.7742L165.61 52.8951C165.143 52.0739 165.431 51.0301 166.252 50.5637C167.073 50.0972 168.117 50.3848 168.584 51.2061L170.787 55.0852C171.253 55.9064 170.966 56.9502 170.144 57.4166C169.732 57.6506 169.266 57.6948 168.844 57.5786Z" fill="#FCC501"/>
<path d="M133.883 47.9462C133.461 47.8299 133.084 47.5533 132.852 47.1419C132.385 46.3206 132.673 45.2769 133.494 44.8104L137.373 42.6072C138.195 42.1407 139.238 42.4283 139.705 43.2496C140.171 44.0708 139.884 45.1146 139.062 45.581L135.183 47.7843C134.771 48.0183 134.305 48.0624 133.883 47.9462Z" fill="#FCC501"/>
<path d="M135.76 29.6562L131.46 28.4714C130.55 28.2207 130.015 27.279 130.266 26.3692C130.516 25.4595 131.458 24.9246 132.368 25.1753L136.668 26.3601C137.578 26.6108 138.113 27.5525 137.862 28.4623C137.611 29.372 136.67 29.9069 135.76 29.6562Z" fill="#FCC501"/>
<path d="M145.719 16.8647C145.298 16.7484 144.92 16.4718 144.688 16.0604L142.485 12.1812C142.018 11.36 142.306 10.3163 143.127 9.84981C143.948 9.38337 144.992 9.67096 145.459 10.4922L147.662 14.3713C148.128 15.1926 147.841 16.2363 147.019 16.7028C146.606 16.934 146.141 16.9809 145.719 16.8647Z" fill="#FCC501"/>
<path d="M157.777 55.2274L157.02 57.9742C156.439 60.0837 154.225 61.3413 152.115 60.7601L146.622 59.2464C144.776 58.7379 143.164 56.7806 144.012 53.7042L144.593 51.5947L157.777 55.2274Z" fill="#FCC501"/>
<path d="M169.619 24.3505C166.82 20.435 162.389 17.9846 157.48 17.6959C151.324 17.3 145.291 20.7447 142.478 26.2348C139.601 31.8727 140.208 38.4232 143.999 43.3688C145.029 44.6928 145.518 46.4353 145.348 48.256L145.342 48.278C145.392 48.2681 145.458 48.2863 145.502 48.2984L158.686 51.9311C158.73 51.9432 158.752 51.9492 158.79 51.9833L158.796 51.9613C159.564 50.3761 160.976 49.1104 162.819 48.3415C167.344 46.4202 170.709 42.6188 172.016 37.8724C173.3 33.2139 172.433 28.294 169.619 24.3505ZM164.572 37.0034C163.671 36.7552 163.13 35.8022 163.378 34.9013C164.298 31.5612 162.34 28.1137 159 27.1934C158.099 26.9452 157.558 25.9922 157.806 25.0913C158.055 24.1904 159.008 23.6491 159.908 23.8974C165.05 25.3141 168.091 30.6675 166.674 35.8094C166.426 36.7104 165.473 37.2516 164.572 37.0034Z" fill="#FCC501"/>
<path d="M145.347 48.2556L145.5 48.298C145.457 48.2859 145.391 48.2677 145.341 48.2776L145.347 48.2556Z" fill="#FCC501"/>
<path d="M158.795 51.9614L158.789 51.9834C158.751 51.9493 158.729 51.9433 158.686 51.9312L158.795 51.9614Z" fill="#FCC501"/>
</g>
<defs>
<filter id="filter0_d" x="0.000114441" y="3.91369" width="92.8014" height="106.776" filterUnits="userSpaceOnUse" color-interpolation-filters="sRGB">
<feFlood flood-opacity="0" result="BackgroundImageFix"/>
<feColorMatrix in="SourceAlpha" type="matrix" values="0 0 0 0 0 0 0 0 0 0 0 0 0 0 0 0 0 0 127 0"/>
<feOffset/>
<feGaussianBlur stdDeviation="17.8378"/>
<feColorMatrix type="matrix" values="0 0 0 0 0.988235 0 0 0 0 0.772549 0 0 0 0 0.00392157 0 0 0 0.25 0"/>
<feBlend mode="normal" in2="BackgroundImageFix" result="effect1_dropShadow"/>
<feBlend mode="normal" in="SourceGraphic" in2="effect1_dropShadow" result="shape"/>
</filter>
<filter id="filter1_d" x="92.757" y="57.4269" width="81.1693" height="101.163" filterUnits="userSpaceOnUse" color-interpolation-filters="sRGB">
<feFlood flood-opacity="0" result="BackgroundImageFix"/>
<feColorMatrix in="SourceAlpha" type="matrix" values="0 0 0 0 0 0 0 0 0 0 0 0 0 0 0 0 0 0 127 0"/>
<feOffset/>
<feGaussianBlur stdDeviation="17.8378"/>
<feColorMatrix type="matrix" values="0 0 0 0 0.988235 0 0 0 0 0.772549 0 0 0 0 0.00392157 0 0 0 0.25 0"/>
<feBlend mode="normal" in2="BackgroundImageFix" result="effect1_dropShadow"/>
<feBlend mode="normal" in="SourceGraphic" in2="effect1_dropShadow" result="shape"/>
</filter>
<clipPath id="clip0">
<rect width="54.7027" height="54.7027" fill="white" transform="translate(137.531) rotate(15.4045)"/>
</clipPath>
</defs>
</svg>
