<svg width="48" height="48" viewBox="0 0 48 48" fill="none" xmlns="http://www.w3.org/2000/svg">
<path d="M17.0023 15.8585L14.1557 13C14.0541 13.603 14.0007 14.2225 14.0007 14.8541C14.0007 15.4085 14.4487 15.8585 15.0008 15.8585H17.0023Z" fill="#AEAEAE"/>
<path d="M19.0011 17.8674L36 34.9425C36 37.3692 34.2798 39.3982 31.9997 39.8642V44.9867C31.9997 46.6481 30.6532 48 28.9994 48C27.3456 48 25.9991 46.6481 25.9991 44.9867V39.9647H24.0003V44.9867C24.0003 46.6481 22.6538 48 21 48C19.3449 48 17.9997 46.6481 17.9997 44.9867V39.8642C15.7196 39.3961 13.9994 37.3692 13.9994 34.9425V18.8718C13.9994 18.3174 14.4473 17.8674 14.9995 17.8674H19.0011Z" fill="#AEAEAE"/>
<path d="M6 20.8806C6 19.2193 7.34647 17.8674 9.00026 17.8674C10.654 17.8674 12.0005 19.2193 12.0005 20.8806V30.9248C12.0005 32.5861 10.654 33.938 9.00026 33.938C7.34647 33.938 6 32.5861 6 30.9248V20.8806Z" fill="#AEAEAE"/>
<path d="M14 10.472C15.5597 9.79183 17.0451 9.55185 18.0235 9.55185C19.3805 9.55185 20.8296 10.0831 22.1076 10.5531C23.0013 10.881 23.9256 11.2195 24.4397 11.2195C24.743 11.2195 25.4518 10.9398 26.0852 10.6898L26.1127 10.6789C27.478 10.1371 29.1769 9.46376 31.1553 9.46376H31.1671C32.6443 9.46376 37.1234 9.78693 39.8163 13.818L40.4471 14.7629L39.5392 15.4457C38.2422 16.4212 35.876 18.2009 35.876 21.7251C35.876 25.8977 38.5536 27.5035 39.8417 28.276L39.8465 28.2789C40.4138 28.6191 41 28.9706 41 29.7379C41 29.9717 40.128 32.4351 38.6066 35L14 10.472Z" fill="#AEAEAE"/>
<path d="M31.7735 0C31.9254 5.46174 28.0069 9.25084 24.093 9.0132C23.4481 4.65454 28.0064 0 31.7735 0Z" fill="#AEAEAE"/>
</svg>
