<svg width="129" height="42" viewBox="0 0 129 42" fill="none" xmlns="http://www.w3.org/2000/svg">
<path d="M129 36.3237C129 39.4581 126.447 42 123.299 42H5.70245C2.55362 42.0003 0 39.4583 0 36.3237V5.67578C0 2.54167 2.55362 0 5.70245 0H123.299C126.447 0 129 2.54167 129 5.67578V36.3237H129Z" fill="#FCC501"/>
<path d="M5.24035 0H123.76C126.651 0 129 2.2596 129 5.04V36.96C129 39.7404 126.651 42 123.76 42H5.24035C2.34942 42 0 39.7404 0 36.96V5.04C0 2.2596 2.34942 0 5.24035 0Z" fill="#FCC501"/>
<path d="M9.67578 8.08594V36.5283L24.0855 22.3073L9.67578 8.08594Z" fill="url(#paint0_linear)"/>
<path d="M27.9557 18.4873L22.139 15.1448L9.67578 7.98242V8.08585L24.0855 22.3072L27.9557 18.4873Z" fill="url(#paint1_linear)"/>
<path d="M9.67578 36.528V36.6314L22.139 29.4688L27.9554 26.1263L24.0855 22.3069L9.67578 36.528Z" fill="url(#paint2_linear)"/>
<path d="M27.9561 18.4871L24.0859 22.307L27.9558 26.1264L34.6032 22.3067L27.9561 18.4871Z" fill="url(#paint3_linear)"/>
<path d="M100.394 27.8671C99.8527 27.8671 99.3589 27.7677 98.9117 27.5691C98.4645 27.3703 98.0888 27.0645 97.7853 26.6523H97.6946C97.7551 27.1353 97.7853 27.5932 97.7853 28.0257V31.4294H96.5273V19.4445H97.5508L97.7248 20.5767H97.7853C98.1091 20.1236 98.486 19.797 98.9155 19.5956C99.345 19.3943 99.838 19.2937 100.394 19.2937C101.496 19.2937 102.347 19.6687 102.945 20.4183C103.544 21.1678 103.844 22.2197 103.844 23.5727C103.844 24.9313 103.539 25.9864 102.931 26.7392C102.322 27.4913 101.476 27.8671 100.394 27.8671ZM100.212 20.3578C99.3627 20.3578 98.7485 20.592 98.3694 21.0597C97.9904 21.5276 97.7957 22.2724 97.7853 23.2938V23.5727C97.7853 24.7352 97.98 25.5666 98.3694 26.0675C98.7589 26.5683 99.3833 26.818 100.242 26.818C100.96 26.818 101.523 26.5291 101.93 25.9505C102.336 25.3721 102.54 24.5746 102.54 23.5577C102.54 22.5267 102.336 21.7349 101.93 21.1842C101.523 20.6329 100.95 20.3578 100.212 20.3578ZM106.758 27.716H105.5V15.9728H106.758V27.716ZM113.995 27.716L113.745 26.5387H113.684C113.269 27.0573 112.856 27.4084 112.444 27.5914C112.032 27.7755 111.518 27.8671 110.901 27.8671C110.078 27.8671 109.432 27.6557 108.964 27.2332C108.496 26.8108 108.263 26.2098 108.263 25.4296C108.263 23.7595 109.605 22.8839 112.289 22.8031L113.7 22.7576V22.2445C113.7 21.5953 113.559 21.1159 113.279 20.8069C112.998 20.4971 112.549 20.3425 111.933 20.3425C111.24 20.3425 110.456 20.5538 109.582 20.9763L109.195 20.0179C109.605 19.7965 110.053 19.623 110.542 19.4972C111.029 19.3715 111.518 19.3085 112.009 19.3085C112.999 19.3085 113.734 19.5271 114.211 19.9649C114.689 20.4027 114.928 21.1046 114.928 22.0708V27.7157H113.995V27.716H113.995ZM111.152 26.8333C111.935 26.8333 112.55 26.6194 112.998 26.192C113.445 25.7644 113.669 25.1655 113.669 24.3953V23.6483L112.41 23.7007C111.409 23.7366 110.688 23.8908 110.245 24.1656C109.803 24.4398 109.582 24.8663 109.582 25.4449C109.582 25.8975 109.719 26.2424 109.995 26.4784C110.271 26.7151 110.656 26.8333 111.152 26.8333ZM115.658 19.4445H117.008L118.828 24.1616C119.227 25.2385 119.475 26.0157 119.571 26.4939H119.632C119.698 26.2369 119.835 25.7983 120.045 25.1763C120.255 24.5547 120.941 22.6446 122.103 19.4445H123.454L119.882 28.8634C119.528 29.7942 119.115 30.4547 118.642 30.8453C118.169 31.2349 117.589 31.4294 116.902 31.4294C116.518 31.4294 116.139 31.3868 115.764 31.3014V30.2978C116.042 30.358 116.353 30.3884 116.697 30.3884C117.562 30.3884 118.178 29.9054 118.547 28.9392L119.01 27.7621L115.658 19.4445ZM77.0774 20.2132C77.477 20.5423 78.3113 21.2336 78.3113 22.5493C78.3113 23.8288 77.5811 24.4355 76.851 25.0056C76.625 25.2302 76.3642 25.4732 76.3642 25.8543C76.3642 26.2341 76.6247 26.442 76.8167 26.5979L77.4427 27.0813C78.2074 27.7217 78.9019 28.3104 78.9019 29.5045C78.9019 31.1307 77.3201 32.7737 74.3309 32.7737C71.8101 32.7737 70.5939 31.5803 70.5939 30.2993C70.5939 29.6767 70.9054 28.7949 71.9324 28.1886C73.0093 27.5312 74.4704 27.4456 75.2522 27.3924C75.0081 27.0814 74.7307 26.7525 74.7307 26.2171C74.7307 25.9234 74.8179 25.7501 74.9045 25.5415C74.7125 25.5591 74.5216 25.5764 74.3476 25.5764C72.5057 25.5764 71.4628 24.2096 71.4628 22.8608C71.4628 22.0648 71.8283 21.1819 72.5748 20.5425C73.566 19.7295 74.7478 19.5906 75.6873 19.5906H79.2672L78.1547 20.2134H77.0775V20.2132H77.0774ZM75.8429 27.8952C75.7039 27.8771 75.6166 27.8771 75.4436 27.8771C75.2873 27.8771 74.3473 27.9125 73.6182 28.1553C73.2358 28.2926 72.123 28.7078 72.123 29.9368C72.123 31.1646 73.3231 32.0483 75.1831 32.0483C76.8507 32.0483 77.7382 31.2507 77.7382 30.1791C77.7382 29.2949 77.1645 28.8298 75.8429 27.8952ZM76.3473 24.6075C76.7465 24.2091 76.7809 23.6561 76.7809 23.3443C76.7809 22.0989 76.0338 20.1612 74.5914 20.1612C74.139 20.1612 73.6527 20.3859 73.3745 20.7323C73.0794 21.0955 72.9917 21.5622 72.9917 22.0126C72.9917 23.1716 73.6696 25.0922 75.1652 25.0922C75.5998 25.0922 76.0681 24.8846 76.3473 24.6075ZM66.1344 27.6183C63.3755 27.6183 61.9003 25.4763 61.9003 23.5413C61.9003 21.2783 63.7568 19.3446 66.3957 19.3446C68.9455 19.3446 70.5422 21.3303 70.5422 23.4208C70.5425 25.4582 68.9639 27.6183 66.1344 27.6183ZM68.3034 26.2193C68.7205 25.666 68.8247 24.9755 68.8247 24.3012C68.8247 22.7807 68.0958 19.8793 65.9437 19.8793C65.3712 19.8793 64.7987 20.1043 64.3823 20.4677C63.7053 21.0714 63.5833 21.8318 63.5833 22.5754C63.5833 24.2842 64.4337 27.0989 66.5341 27.0989C67.2108 27.0989 67.9051 26.7713 68.3034 26.2193ZM56.7282 27.6183C53.9688 27.6183 52.4934 25.4763 52.4934 23.5413C52.4934 21.2783 54.3506 19.3446 56.9888 19.3446C59.5393 19.3446 61.1358 21.3303 61.1358 23.4208C61.1361 25.4582 59.5573 27.6183 56.7282 27.6183ZM58.8977 26.2193C59.3141 25.666 59.4185 24.9755 59.4185 24.3012C59.4185 22.7807 58.6891 19.8793 56.537 19.8793C55.9648 19.8793 55.3918 20.1043 54.9756 20.4677C54.2987 21.0714 54.1774 21.8318 54.1774 22.5754C54.1774 24.2842 55.0273 27.0989 57.128 27.0989C57.8049 27.0989 58.4988 26.7713 58.8977 26.2193ZM51.1678 27.3474L48.6724 27.9205C47.66 28.0772 46.7531 28.215 45.794 28.215C40.9778 28.215 39.1465 24.6895 39.1465 21.9282C39.1465 18.5597 41.7457 15.4346 46.1955 15.4346C47.138 15.4346 48.0444 15.5731 48.8644 15.7991C50.1728 16.1638 50.7834 16.6149 51.1675 16.8758L49.7188 18.2476L49.1085 18.3859L49.5446 17.6911C48.9516 17.1185 47.8689 16.0594 45.8109 16.0594C43.054 16.0594 40.9773 18.1442 40.9773 21.1829C40.9773 24.4468 43.3506 27.5207 47.1534 27.5207C48.2712 27.5207 48.8457 27.2953 49.3695 27.0864V24.2912L46.7355 24.43L48.1307 23.6824H51.8298L51.3766 24.1165C51.2535 24.2211 51.2367 24.2563 51.2018 24.3939C51.1837 24.5505 51.1673 25.0546 51.1673 25.228V27.3475H51.1678V27.3474Z" fill="#141414"/>
<path d="M82.5917 26.8475C82.0157 26.7952 81.8951 26.6916 81.8951 26.0135V16.1848C81.8986 16.1474 81.9009 16.1089 81.9044 16.0728C81.9748 15.4653 82.1491 15.3611 82.6905 15.0481H80.1947L78.8857 15.6734H80.2197V15.6812L80.2187 15.6749V26.3961C80.2187 26.7428 80.1498 26.7955 79.748 27.3159H82.8366L83.4823 26.9348C83.1859 26.8989 82.8888 26.8821 82.5917 26.8475ZM89.6914 27.0071C89.5015 27.1108 89.3109 27.232 89.1209 27.3176C88.5482 27.5762 87.9593 27.6455 87.4384 27.6455C86.8853 27.6455 86.0182 27.6098 85.1337 26.9725C83.9045 26.1094 83.3673 24.6264 83.3673 23.3333C83.3673 20.6606 85.5504 19.35 87.335 19.35C87.959 19.35 88.6009 19.5049 89.1207 19.8332C89.9863 20.4013 90.2115 21.1429 90.3321 21.5397L86.2611 23.1787L84.9267 23.2821C85.3592 25.4723 86.8493 26.7476 88.496 26.7476C89.3795 26.7476 90.0208 26.4378 90.6098 26.1451L89.6914 27.0071ZM88.0632 21.867C88.3918 21.7468 88.5651 21.6429 88.5651 21.4016C88.5651 20.7123 87.7857 19.9186 86.8493 19.9186C86.1554 19.9186 84.8568 20.4535 84.8568 22.3157C84.8568 22.6089 84.8916 22.9191 84.9095 23.2306L88.0632 21.867ZM91.3638 19.468V20.6059H91.2249V19.468H90.8466V19.35H91.7419V19.468H91.3638ZM92.9225 20.6059V19.4574H92.9162L92.5641 20.6059H92.4554L92.1003 19.4574H92.0958V20.6059H91.9697V19.35H92.1858L92.5071 20.3651H92.5117L92.8282 19.35H93.0474V20.6059H92.9225Z" fill="#141414"/>
<path d="M42.6114 12.0532H41.7443C41.7443 11.9344 41.6621 11.5983 41.4976 11.0445H40.2459C40.0762 11.5893 39.9912 11.9254 39.9912 12.0532H39.1758C39.1758 11.9831 39.3866 11.4078 39.8083 10.3273C40.23 9.24692 40.4409 8.65171 40.4409 8.54228H41.4651C41.4651 8.6447 41.656 9.2311 42.0381 10.3017C42.4202 11.3724 42.6114 11.956 42.6114 12.0532ZM41.3596 10.5294C41.0507 9.60185 40.8964 9.10032 40.8964 9.02474H40.853C40.853 9.09479 40.6931 9.59633 40.3735 10.5294H41.3596ZM46.105 12.0532H45.4359C45.4359 11.9794 45.1875 11.5903 44.6908 10.8856C44.1708 10.1431 43.8744 9.63551 43.8023 9.36216H43.7589C43.8041 9.75575 43.8268 10.1117 43.8268 10.43C43.8268 10.8741 43.8394 11.4153 43.8646 12.0534H43.1981C43.225 11.4962 43.2387 10.8842 43.2387 10.2172C43.2387 9.561 43.225 9.00269 43.1981 8.54255H44.0026C44.0026 8.63794 44.2255 9.01825 44.6717 9.68323C45.1466 10.3896 45.4195 10.8688 45.4899 11.1206H45.5305C45.4871 10.7197 45.4654 10.3602 45.4654 10.0419C45.4654 9.55497 45.4528 9.0549 45.4276 8.54255H46.105C46.0795 8.98838 46.0672 9.54667 46.0672 10.2172C46.0669 10.8927 46.0795 11.5047 46.105 12.0532ZM50.0316 10.1762C50.0316 10.6868 49.8672 11.1327 49.5385 11.5137C49.2097 11.895 48.7491 12.0853 48.1567 12.0853C47.8894 12.0853 47.5209 12.0745 47.0513 12.0529C47.0747 11.51 47.0866 10.8977 47.0866 10.2167C47.0866 9.56248 47.0747 9.00419 47.0513 8.54203H47.5254C47.6031 8.54203 47.7186 8.53927 47.8722 8.53399C48.0255 8.52872 48.1259 8.52596 48.1728 8.52596C48.8248 8.52596 49.2975 8.68788 49.5913 9.01145C49.8848 9.33503 50.0316 9.72312 50.0316 10.1762ZM49.2921 10.2922C49.2921 9.94702 49.191 9.65633 48.9887 9.41961C48.7864 9.18339 48.4775 9.06517 48.0621 9.06517C47.9844 9.06517 47.878 9.07321 47.7423 9.08952C47.7602 9.44923 47.7693 9.82477 47.7693 10.2166C47.7693 10.6464 47.7784 11.0724 47.7962 11.4949C47.9122 11.5181 48.0301 11.5299 48.1483 11.53C48.5367 11.53 48.8242 11.4098 49.0112 11.1698C49.1981 10.9298 49.2921 10.6373 49.2921 10.2922ZM53.6526 12.0532H52.8506C52.641 11.4168 52.4803 11.024 52.3684 10.8748C52.2564 10.7255 52.0758 10.6509 51.8266 10.6509C51.7217 10.6509 51.6215 10.6519 51.526 10.6537C51.526 11.1159 51.534 11.5822 51.5504 12.0532H50.7973C50.8208 11.5102 50.8327 10.8979 50.8327 10.2169C50.8327 9.56273 50.8208 9.00442 50.7973 8.54228H51.2659C51.3202 8.54228 51.4334 8.53952 51.6059 8.53425C51.7784 8.52897 51.9378 8.52619 52.0841 8.52619C52.9131 8.52619 53.3278 8.80835 53.3278 9.37293C53.3278 9.82052 53.0912 10.1323 52.618 10.3088V10.3492C52.8004 10.3994 52.9603 10.5412 53.0975 10.7737C53.2344 11.0064 53.4195 11.4329 53.6526 12.0532ZM52.6367 9.57223C52.6367 9.21451 52.4054 9.03555 51.9431 9.03555C51.7734 9.03555 51.6233 9.0481 51.4934 9.07321C51.5133 9.35185 51.5232 9.71509 51.5232 10.1627C51.6226 10.1664 51.7066 10.1679 51.7751 10.1679C52.3494 10.1682 52.6367 9.96963 52.6367 9.57223ZM57.5361 10.2329C57.5361 10.7847 57.3663 11.2423 57.0266 11.6056C56.6869 11.9686 56.267 12.1503 55.7669 12.1503C55.2899 12.1503 54.8907 11.9836 54.5694 11.65C54.2478 11.3166 54.0871 10.8927 54.0871 10.3788C54.0871 9.82703 54.2569 9.3694 54.5966 9.00616C54.9361 8.64317 55.356 8.46143 55.8564 8.46143C56.3333 8.46143 56.7323 8.62761 57.0539 8.96022C57.3754 9.29286 57.5361 9.71684 57.5361 10.2329ZM56.7886 10.311C56.7886 9.93524 56.6919 9.63049 56.4988 9.39678C56.3053 9.16307 56.067 9.04635 55.7835 9.04635C55.5197 9.04635 55.2957 9.16408 55.1116 9.39954C54.9275 9.63501 54.8349 9.9325 54.8349 10.2922C54.8349 10.666 54.932 10.9702 55.1262 11.205C55.3204 11.4397 55.5583 11.5569 55.8402 11.5569C56.1038 11.5569 56.328 11.4387 56.5121 11.2022C56.6962 10.966 56.7886 10.6687 56.7886 10.311ZM59.068 12.0532H58.3013C58.3248 11.4959 58.3366 10.8839 58.3366 10.2169C58.3366 9.5607 58.3248 9.00241 58.3013 8.54228H59.068C59.0446 8.99539 59.0327 9.55342 59.0327 10.2169C59.0327 10.8944 59.0446 11.5067 59.068 12.0532ZM62.9949 10.1762C62.9949 10.6868 62.8305 11.1327 62.5018 11.5137C62.173 11.895 61.7124 12.0853 61.12 12.0853C60.8526 12.0853 60.4842 12.0745 60.0145 12.0529C60.038 11.51 60.0499 10.8977 60.0499 10.2167C60.0499 9.56248 60.038 9.00419 60.0145 8.54203H60.4887C60.5664 8.54203 60.6819 8.53927 60.8355 8.53399C60.9889 8.52872 61.0892 8.52596 61.1362 8.52596C61.7881 8.52596 62.2608 8.68788 62.5546 9.01145C62.8481 9.33503 62.9949 9.72312 62.9949 10.1762ZM62.2554 10.2922C62.2554 9.94702 62.1543 9.65633 61.952 9.41961C61.7497 9.18339 61.4408 9.06517 61.0254 9.06517C60.9477 9.06517 60.8413 9.07321 60.7056 9.08952C60.7235 9.44923 60.7326 9.82477 60.7326 10.2166C60.7326 10.6464 60.7417 11.0724 60.7595 11.4949C60.8755 11.5181 60.9934 11.5299 61.1116 11.53C61.5 11.53 61.7875 11.4098 61.9744 11.1698C62.1614 10.9298 62.2554 10.6373 62.2554 10.2922ZM68.2045 12.0532H67.3374C67.3374 11.9344 67.2552 11.5983 67.0905 11.0445H65.8388C65.6691 11.5893 65.5841 11.9254 65.5841 12.0532H64.7689C64.7689 11.9831 64.9798 11.4078 65.4015 10.3273C65.8232 9.24692 66.034 8.65171 66.034 8.54228H67.0583C67.0583 8.6447 67.2494 9.2311 67.6313 10.3017C68.0131 11.3724 68.2045 11.956 68.2045 12.0532ZM66.9528 10.5294C66.6439 9.60185 66.4892 9.10032 66.4892 9.02474H66.4459C66.4459 9.09479 66.2862 9.59633 65.9667 10.5294H66.9528ZM71.3647 9.46155C71.3647 9.89131 71.2043 10.2086 70.8837 10.4135C70.5632 10.6183 70.17 10.7209 69.7039 10.7209C69.6189 10.7209 69.5586 10.7192 69.5223 10.7157C69.5223 11.0538 69.5321 11.4994 69.5521 12.0532H68.7906C68.8141 11.5338 68.8259 10.9215 68.8259 10.2169C68.8259 9.56974 68.8141 9.01145 68.7906 8.54228H69.262C69.3288 8.54228 69.4569 8.53952 69.6466 8.53425C69.8363 8.52897 70.0005 8.52619 70.1397 8.52619C70.4827 8.52619 70.7727 8.60351 71.0093 8.75814C71.2459 8.9128 71.3647 9.14701 71.3647 9.46155ZM70.6658 9.60991C70.6658 9.22531 70.4093 9.03279 69.8964 9.03279C69.768 9.03279 69.6326 9.04632 69.4901 9.07321C69.51 9.4131 69.5198 9.79768 69.5198 10.2274C69.5649 10.2312 69.6174 10.2327 69.6769 10.2327C70.3362 10.2329 70.6658 10.0254 70.6658 9.60991ZM74.6142 9.46155C74.6142 9.89131 74.4538 10.2086 74.1335 10.4135C73.8129 10.6183 73.4195 10.7209 72.9534 10.7209C72.8684 10.7209 72.8081 10.7192 72.7718 10.7157C72.7718 11.0538 72.7817 11.4994 72.8016 12.0532H72.0401C72.0636 11.5338 72.0755 10.9215 72.0755 10.2169C72.0755 9.56974 72.0636 9.01145 72.0401 8.54228H72.5115C72.5784 8.54228 72.7065 8.53952 72.8961 8.53425C73.0858 8.52897 73.25 8.52619 73.3892 8.52619C73.7322 8.52619 74.0223 8.60351 74.2588 8.75814C74.4954 8.9128 74.6142 9.14701 74.6142 9.46155ZM73.9153 9.60991C73.9153 9.22531 73.6588 9.03279 73.1458 9.03279C73.0175 9.03279 72.882 9.04632 72.7395 9.07321C72.7594 9.4131 72.7693 9.79768 72.7693 10.2274C72.8144 10.2312 72.8669 10.2327 72.9264 10.2327C73.5857 10.2329 73.9153 10.0254 73.9153 9.60991ZM79.927 10.2329C79.927 10.7847 79.7572 11.2423 79.4175 11.6056C79.0778 11.9688 78.6578 12.1503 78.1577 12.1503C77.6808 12.1503 77.2815 11.9836 76.9603 11.65C76.6389 11.3166 76.478 10.8927 76.478 10.3788C76.478 9.82703 76.6478 9.3694 76.9875 9.00616C77.3272 8.64292 77.7471 8.46143 78.2473 8.46143C78.7242 8.46143 79.1234 8.62761 79.4447 8.96022C79.7661 9.29286 79.927 9.71684 79.927 10.2329ZM79.1792 10.311C79.1792 9.93524 79.0825 9.63049 78.8894 9.39678C78.6962 9.16307 78.4576 9.04635 78.1741 9.04635C77.9103 9.04635 77.6863 9.16408 77.5022 9.39954C77.3181 9.63501 77.2258 9.9325 77.2258 10.2922C77.2258 10.666 77.3229 10.9702 77.5171 11.205C77.7113 11.4397 77.9491 11.5569 78.2309 11.5569C78.4947 11.5569 78.7186 11.4387 78.9027 11.2022C79.0871 10.966 79.1792 10.6687 79.1792 10.311ZM83.5991 12.0532H82.93C82.93 11.9794 82.6818 11.5903 82.185 10.8856C81.6649 10.1431 81.3686 9.63551 81.2965 9.36216H81.2531C81.2982 9.75575 81.3209 10.1117 81.3209 10.43C81.3209 10.8741 81.3336 11.4153 81.3588 12.0534H80.6922C80.7192 11.4962 80.7328 10.8842 80.7328 10.2172C80.7328 9.561 80.7192 9.00269 80.6922 8.54255H81.4967C81.4967 8.63794 81.7199 9.01825 82.1658 9.68323C82.641 10.3896 82.9136 10.8688 82.984 11.1206H83.0246C82.9813 10.7197 82.9596 10.3602 82.9596 10.0419C82.9596 9.55497 82.947 9.0549 82.9217 8.54255H83.5992C83.5737 8.98838 83.5613 9.54667 83.5613 10.2172C83.5613 10.8927 83.5739 11.5047 83.5991 12.0532Z" fill="#141414"/>
<defs>
<linearGradient id="paint0_linear" x1="16.8806" y1="8.08598" x2="16.8806" y2="36.5284" gradientUnits="userSpaceOnUse">
<stop stop-color="#257CB0"/>
<stop offset="0.286" stop-color="#4A93B5"/>
<stop offset="0.767" stop-color="#78BCBB"/>
<stop offset="1" stop-color="#89CFBD"/>
</linearGradient>
<linearGradient id="paint1_linear" x1="9.67601" y1="15.1446" x2="27.9559" y2="15.1446" gradientUnits="userSpaceOnUse">
<stop stop-color="#52C1AD"/>
<stop offset="1" stop-color="#DEE89A"/>
</linearGradient>
<linearGradient id="paint2_linear" x1="18.8156" y1="22.3069" x2="18.8156" y2="36.6314" gradientUnits="userSpaceOnUse">
<stop stop-color="#EC413D"/>
<stop offset="0.167" stop-color="#DA4452"/>
<stop offset="0.575" stop-color="#B0487A"/>
<stop offset="0.862" stop-color="#954A92"/>
<stop offset="1" stop-color="#8A4A9D"/>
</linearGradient>
<linearGradient id="paint3_linear" x1="29.3447" y1="18.4871" x2="29.3447" y2="26.1262" gradientUnits="userSpaceOnUse">
<stop stop-color="#F58879"/>
<stop offset="0.119" stop-color="#F69079"/>
<stop offset="0.713" stop-color="#FCB877"/>
<stop offset="1" stop-color="#FEC874"/>
</linearGradient>
</defs>
</svg>
