<svg width="211" height="66" fill="none" xmlns="http://www.w3.org/2000/svg"><path d="M93.112 25h.978l6.684-22.07h-.978L93.112 25zm8.04-20.43L94.972 25h.978l5.202-17.215 4.95 16.332h-.252V25h1.703v-.883h-.473L101.152 4.57zm26.763 18.822v-.914H115.84V3.813h.41V2.93h-1.703v.883h.41v19.579h12.958zM114.957 25h12.958v-.883h-12.958V25zm27.007 0c3.91 0 7.094-3.184 7.094-7.094v-4.981L136.983 25h4.981zm-2.837-.883l9.048-9.049v2.838a6.203 6.203 0 01-6.211 6.211h-2.837zM134.46 2.93v.883h.41v20.304h-.41V25h1.482l13.116-13.116.032-1.86c0-3.91-3.185-7.094-7.094-7.094h-7.536zm13.715 8.576l-12.422 12.422V3.813h6.243c3.405 0 6.211 2.806 6.211 6.21l-.032 1.483zm16.497 2.112h-7.503V3.844h10.845v.379h.883V2.93h-12.611V14.5h7.504l.882-.882zm3.374 10.5h-10.877V16.14h5.013l.882-.882h-6.778V25h12.643v-1.293h-.883v.41zm9.683-10.374L188.985 25h1.261l-10.373-10.405h3.942a5.84 5.84 0 005.832-5.832c0-3.185-2.617-5.802-5.832-5.802h-8.293v.852h.41v20.304h-.41V25h1.703v-.883h-.41V15.1l9.9 9.9h1.261l-11.161-11.161V3.813h7a4.938 4.938 0 014.95 4.95c0 2.743-2.207 4.981-4.95 4.981h-6.086zM196.258 25h.978l6.684-22.07h-.978L196.258 25zm8.04-20.43L198.119 25h.977l5.202-17.215 4.95 16.332h-.252V25h1.702v-.883h-.472L204.298 4.57zM106.607 35.19v-1.293h-7.41c-2.396 0-4.729 1.23-6.085 4.225l13.243 13.242c.126-.536.157-.725.189-1.072l-12.36-12.359c.978-1.923 2.87-3.121 5.014-3.121h6.526v.378h.883zm-13.715 3.752l-.158 1.103L105 52.28a5.616 5.616 0 01-4.887 2.837h-6.558v-.41h-.883V56h7.441c2.68 0 4.95-1.608 5.959-3.878l-13.18-13.18zM131.7 37.24v-1.26l-19.043 19.043v1.26l3.626-3.593a9.367 9.367 0 005.927 2.08c5.234 0 9.49-4.32 9.49-9.521a9.434 9.434 0 00-2.08-5.928l2.08-2.08zm-.882 8.009c0 4.76-3.878 8.639-8.608 8.639a8.63 8.63 0 01-5.297-1.83l12.076-12.106c1.23 1.513 1.829 3.373 1.829 5.297zm-2.996-7.662a9.299 9.299 0 00-5.612-1.86c-5.297 0-9.521 4.32-9.521 9.522 0 2.08.599 3.94 1.828 5.612l-1.828 1.86-.032 1.261L131.7 34.94v-1.261l-3.878 3.91zm-5.612-.946c1.829 0 3.5.536 4.982 1.577L115.179 50.23c-1.103-1.482-1.608-3.184-1.608-4.981 0-4.761 3.878-8.608 8.639-8.608zm16.69 9.617v8.86h-.41v.913h1.703v-.914h-.41V47.14h5.013l.883-.882H138.9zm0-12.297v11.54h7.504l.883-.883h-7.504v-9.774h10.846v.41h.883v-1.293H138.9zm18.163-.031v.883h13.369v-.883h-13.369zm6.243 2.522v18.665h-.41V56h1.703v-.883h-.41V36.452h6.243v-.914h-13.369v.914h6.243z" fill="#fff"/><path fill-rule="evenodd" clip-rule="evenodd" d="M37.642 63.668c.188-.382 1.026-.444 1.444-.508 1.782-.3 10.383-2.769 10.97-2.557-.035.262.125.031-.182.33a5.6 5.6 0 01-.342.247l-2.371 1.439c-2.855 1.701-2.695 2.041-6.512 1.574-1.014-.123-2.057-.243-3.007-.525zm11.355-10.492c.512.917 2.885 4.367 2.942 5.08.084 1.065-1.179 1.155-1.912 1.355-1.705.461-12.92 3.26-13.368 3.24-1.09-.05.438-1.523.667-1.777 1.426-1.604 3.498-4.226 4.87-5.52.329-.319.405-.6.754-.939.29-.291.525-.597.789-.906.534-.62 1.093-1.253 1.635-1.858 1.563-1.756 2.022-1.544 3.623 1.325zm6.37 4.17c-.17-.337 1.398-2.529 1.68-2.945.321-.503.657-.974 1.018-1.455l4.458-6.65c.215-.306.296-.64.713-.664.262.323.108.502.06.889l-.276 2.69c-.063.542-.201 1.157-.286 1.719-.145.895-.026.83-.423 1.723-.602 1.342-1.945 1.814-3.113 2.57-.613.39-1.269.752-1.894 1.14-.456.279-1.444 1.08-1.938.982zm7.127-12.634c.005.392-4.385 6.636-4.97 7.528-.815 1.253-1.723 2.519-2.585 3.735-.361.521-.86 1.619-1.546 1.708-.81.098-1.428-1.233-1.76-1.81-.942-1.576-1.997-3.16-2.972-4.72-.549-.89-.522-1.72.496-2.161.908-.4 1.82-.682 2.74-1.017.84-.31 1.997-.645 2.741-.99.385-.176.915-.342 1.318-.479.465-.155.925-.407 1.393-.534l4.125-1.48c.347-.13 1.007-.336 1.02.22zm1.638 2.734c-.016-.751.413-3.414.626-4.103.226-.726.324-1.215.695-1.908.162-.291.336-.618.486-.914.068-.13.383-.857.45-.927.05.4-2.197 7.726-2.257 7.852zm-9.266-18.79c.573-.56 1.015.23 1.258.68l2.73 5.01c1.297 2.034 2.454 4.467 3.671 6.606.328.569.628.972.36 1.609-.35.802-.49.738-1.326 1.055-1.168.44-2.386.815-3.526 1.291-1.059.44-2.409.895-3.508 1.225l-3.532 1.343c-3.443 1.342-3.239.824-1.903-2.77.34-.885.714-1.718.974-2.667l2.873-8.067c.22-.506.315-.855.422-1.388.07-.298 1.307-3.737 1.507-3.928zM17.854 60.16c.07-.21.236-.197.709-.06l2.528.627c.545.143 1.122.31 1.676.449.313.072.533.158.834.246.292.092.593.16.837.235 1.426.446 4.136 1.059 5.017 1.362.44.152 1.403.102 1.572.567-.362.226-3.048.36-3.725.426-1.065.108-2.708.343-3.72.1-1.725-.407-3.699-2.227-5.182-3.386-.123-.091-.257-.187-.367-.293-.052-.046-.163-.26-.179-.273zm14.735 2.449c-.463.37-.763.135-1.265.021-.35-.085-.875-.207-1.212-.308-2.054-.64-4.981-1.31-7.278-1.956a323.758 323.758 0 00-4.856-1.338c-.838-.234-1.897-.495-1.242-1.664.489-.886 3.834-4.992 4.724-6.211.332-.459.51-.738 1.114-.85.447-.087.87.132 1.139.471l4.524 5.858c.156.204.313.368.498.549.216.225.256.394.447.651l2.688 3.462c.366.502.684.67.719 1.315zm2.986-.747c-.36.442-1.059.735-1.622.512-.468-.189-.866-.843-1.162-1.239l-3.407-4.332c-.355-.458-.737-1.12-1.093-1.517a30.563 30.563 0 01-2.296-2.883l-1.132-1.45c-.351-.429-.903-1.071-.282-1.486.486-.323 3.97-.077 4.93-.047.59.024 1.084-.047 1.673-.023 2.195.112 4.381.079 6.578.13 1.066.021 2.259.121 3.301.114 1.112-.01 2.21-.025 3.325.013 2.466.075-.194 2.21-1.178 3.462-1.055 1.334-2.065 2.194-3.255 3.729-.649.841-1.504 1.67-2.194 2.51-.71.86-1.48 1.659-2.186 2.507zm-1.088-27.759c1.133-.64 2.089 1.176 2.566 1.872a99.131 99.131 0 002.319 3.228c1.586 2.117 3.055 4.367 4.62 6.504.42.575.733 1.09 1.182 1.663 1.736 2.225-2.566 1.361-3.813 1.423-2.221.128-4.713-.171-6.97-.116-1.143.025-2.341-.044-3.488-.066-1.163-.016-2.323-.131-3.48-.07-.595.027-1.19-.053-1.773-.04-2.353.06-1.179-1.34-.457-2.155.27-.313.669-.97.962-1.36.997-1.289 7.828-10.6 8.332-10.883zm30.571 5.819c-.239-.55.158-2.626.244-3.267l.488-4.779c.117-1.168.137-3.957.554-4.701.301.196.897 3.194.98 3.56.708 3.488.75 3.301-.74 6.442l-.745 1.379c-.2.378-.403 1.152-.78 1.366zm-8.312-13.238c.33-.251 7.288-2.17 7.938-2.016 1.024.228.802 1.089.729 1.842-.287 3.05-.518 6.153-.88 9.189-.086.769-.152 1.538-.23 2.304-.245 2.291-.092 4.37-1.749 1.32-1.849-3.416-3.927-7.001-5.737-10.375-.38-.722-.92-1.636-.07-2.264zM50.1 28.478c.648-.19 1.233-.322 1.874-.548.424-.157 1.42-.518 1.786-.164.543.518-.289 2.115-.603 3.097-.172.523-.406.829-.585 1.443l-1.75 5.292c-.112.27-.206.135-.345.663-.533 2.04-1.412 4.022-2.106 6.018-.245.704-.705 2.434-1.068 2.976-.446.66-1.14.201-1.453-.315l-5.616-7.897c-.745-.948-1.513-2.111-2.241-3.106-.674-.922-1.986-2.396-1.287-3.3.432-.564 6.51-2.067 7.651-2.455 1.742-.597 3.89-1.154 5.743-1.704zM16.57 27.356c.463-.519 1.173-.048 1.695.086l4.625 1.504c2.048.71 4.17 1.3 6.222 2.019a63.3 63.3 0 003.13 1.02c1.512.436 1.906 1.082.895 2.426l-8.165 10.834c-.201.27-.41.376-.592.687-2.008 3.371-2.335-1.022-3.158-3.127-.498-1.268-2.093-6.279-2.552-7.802-.2-.637-.475-1.368-.632-1.996l-1.242-3.862c-.137-.46-.613-1.343-.226-1.789zM36.236 13.78c.521-.586 1.152-.01 1.607.343l14.952 11.259c1.804 1.356-1.258 1.792-2.09 2.078a50.015 50.015 0 01-3.87 1.154c-1.297.313-2.623.796-3.934 1.145-1.245.338-2.619.764-3.87 1.134-.924.279-2.992 1.282-3.421-.136-.126-.416.207-9.391.242-10.225.027-.979-.01-2.539.115-3.434.104-.71-.114-2.885.27-3.318zM21.121 50.285l-3.134 4.047c-.52.654-1.153 1.38-1.636 2.026-.638.867-1.4 1.258-2.089.156-.55-.87-1.095-1.732-1.624-2.622-1.046-1.755-2.195-3.453-3.217-5.219-.517-.885-1.122-1.809-1.659-2.694-.344-.561-1.472-2.13-1.375-2.707.516-.258.635-.175 1.206.064l12.613 4.965c.972.35 1.549.962.915 1.983zm-8.2 5.94c-.381.058-1.587-1.041-1.93-1.326-2.367-1.935-3.896-2.304-4.857-5.4-.267-.862-.516-1.792-.82-2.627-.26-.719-.227-.862-.336-1.304-.091-.362-.122.016-.206-.438-.21-1.164-1.743-5.366-1.698-5.8l1.179 2.353c1.021 1.934 2.668 4.477 3.802 6.418 1.065 1.815 4.713 7.21 4.866 8.125zm42.182-45.964c.552.05 1.403 1.433 1.753 1.902 1.52 2.06 3.395 4.348 4.818 6.373.513.729 3.02 3.702 3.024 4.302.016 1.175-2.24 1.378-3.241 1.663l-4.001 1.067c-.85.225-1.8.239-2.038-.835-.194-.856-.117-3.8-.2-4.865l-.349-7.291c-.015-.604-.278-1.922.234-2.316zm5.245 2.736c1.489.959 2.015 2.392 2.626 3.943.208.525 1.235 2.851 1.185 3.19-.418-.104-1.528-1.72-1.89-2.214-.522-.725-5.285-6.729-5.284-7.193.163.093.404.16.59.26.498.273 2.114 1.588 2.773 2.013zM14.6 28.038c.718-.548.988.067 1.221.709l1.194 3.717c.197.629.325 1.26.546 1.877.398 1.118.999 2.605 1.238 3.747.14.655 1.032 2.845 1.22 3.666.661 2.967 3.091 6.854.25 5.73l-4.342-1.792c-.336-.141-.463-.053-1.437-.49-1.345-.613-4.149-1.616-5.736-2.234-3.4-1.339-3.388-1.502-1.327-4.444 1.194-1.694 2.334-3.63 3.57-5.255.692-.9 3.17-4.902 3.603-5.23zm-9.946-4.4c.403-.522.736-.449 1.313-.281.409.127.802.201 1.19.348l4.811 1.625c2.831.783 2.387 1.639.945 3.674l-2.222 3.233c-.168.363-.456.723-.68 1.073-.574.896-4.175 6.342-4.527 6.376-.624.071-.514-2.168-.53-2.624-.029-.844-.033-1.887-.115-2.717-.084-.877-.026-1.811-.078-2.704-.1-1.541-.087-4.03-.254-5.442-.082-.682-.267-2.026.147-2.562zM33.84 13.81c1.744-1.12 1.417 1.209 1.352 2.215-.071 1.137-.079 2.283-.114 3.433-.055 2.273-.222 4.667-.204 6.925.011 1.06-.03 2.43-.12 3.486-.053.734.07 1.121-.732 1.491-.65.29-1.028.06-1.656-.172-2.019-.774-4.279-1.3-6.322-2.062-2.044-.762-4.238-1.317-6.297-2.092-.568-.212-3.333-.602-2.498-1.707.239-.317 2.77-2.007 3.258-2.282l3.325-2.352c.557-.404 1.22-.73 1.737-1.136a27.602 27.602 0 011.578-1.132l3.37-2.323c.912-.727 2.323-1.644 3.323-2.292zm12.244 5.45c-.423-.347-2.04-1.366-2.62-1.857-.453-.392-.72-.643-1.237-.977-.91-.576-1.704-1.333-2.568-1.94-.511-.365-2.543-1.567-2.058-2.293.223-.33 2.927-.788 3.455-.894.621-.12 1.198-.227 1.815-.335.564-.092 1.14-.309 1.748-.412 2.298-.39 4.791-.998 7.095-1.479.715-.152.954-.302 1.625.108.6.364.607.864.65 1.484.071 1.081.064 2.208.127 3.293l.41 9.875c.053 2.036-1.085 1.102-2.025.333-1.648-1.34-3.46-2.584-5.141-3.868a32.001 32.001 0 01-1.276-1.038zM17.452 8.3c.575-.768 2.438-.07 3.204.139l12.321 3.246c2.155.534.03 1.731-.753 2.25a273.935 273.935 0 00-6.334 4.38c-2.106 1.495-4.298 2.89-6.38 4.413-3.983 2.921-3.619 2.3-3.388-1.503.028-.427.094-1.236.158-1.65l.625-8.144c.047-.81.086-2.504.547-3.131zm18.949-6.474c.616-.659 1.656.133 2.386.328.662.178 1.594.655 2.236.96.718.339 1.554.633 2.297.961.698.299 1.611.587 2.253.912l4.555 1.842c.379.17 2.526.816 1.655 1.356-.267.172-2.37.551-2.85.654-.939.207-1.93.428-2.877.618-.886.172-1.937.351-2.795.56l-5.673 1.197c-1.22.12-1.488-.831-1.502-1.81-.002-.808-.051-1.78-.01-2.559.054-1.07-.325-4.325.325-5.02zM3.976 38.854c-.46-.32-1.67-3.162-2.01-3.883-.55-1.166-.845-2.34-.516-3.547.342-1.282 1.093-3.324 1.442-4.55.161-.566.314-1.258.657-1.376.286.587.42 8.776.488 10.104.027.5.269 3.001-.061 3.252zM47.237 2.81c1.01.875 3.322 2.608 3.87 3.39-.341.059-2.532-.912-3.032-1.125-.483-.2-1.042-.436-1.514-.592-.661-.218-2.308-1.006-2.936-1.239-.615-.228-4.186-1.568-4.345-1.968.23.022.563-.033.812.01 1.456.235 4.782.337 5.696.754l.737.36c.307.163.42.15.712.41zM15.985 9.076c.419.467.23.741.194 1.3l-.316 3.98c-.068 1.569-.213 2.592-.312 3.988-.024.415-.139.932-.128 1.272.028.884-.106 1.783-.159 2.665-.043.838-.052 2.045-.533 2.484-.745.659-1.796.08-2.592-.214-1.095-.401-4.065-1.29-4.846-1.678-.737-.38-2.017-.39-1.86-1.517.097-.745 5.852-6.968 6.871-8.335.55-.737 1.166-1.416 1.771-2.099.492-.542 1.163-1.719 1.91-1.846zm19.207-6.2c.03 1.672.114 3.349.08 5.03-.05 1.925.583 3.88-2.393 2.957l-11.591-3.05c-.589-.193-1.928-.285-2.145-.914.286-.536 4.825-1.94 5.674-2.233l5.818-2.073c2.474-.816 4.516-2.172 4.557.283zM5.571 19.41c-.224-.39.719-2.47.908-3.02 1.127-3.36 1.23-3.624 4.15-5.316.681-.393 3.088-1.947 3.64-1.876-.135.456-.678.973-.979 1.329-.7.796-7.005 8.495-7.719 8.883zM19.836 5.367c.043-.375.889-.883 1.212-1.15.446-.364.929-.735 1.387-1.094 1.255-.973 1.49-1.407 3.175-1.869 1.017-.272 3.642-.22 4.924-.27.364-.01 1.287-.23 1.515.129-.856.444-2.166.9-3.108 1.227-.95.33-8.636 3.175-9.105 3.027zM63.8 16.303c-1.304-3.272-1.783-3.19-4.443-5.156-1.67-1.24-3.388-2.41-5.029-3.693-1.673-1.308-3.29-2.71-4.942-4.058C47.521 1.89 46.481.93 43.974.728c-2.089-.16-4.142-.396-6.23-.596C35.512-.081 26.58-.07 24.797.417c-1.323.364-2.224 1.075-3.316 1.845-.989.693-2.033 1.352-3.037 2.032-2.01 1.36-3.999 2.742-6.024 4.09-6.626 4.417-5.408 3.155-7.863 9.867a141.852 141.852 0 00-1.921 5.627C2.03 25.784 1.403 27.69.82 29.604c-.855 2.731-1.19 3.33-.277 6.22a717.41 717.41 0 014.364 14.162c.894 3.038 1.957 3.474 4.257 5.31 1.645 1.312 3.306 2.596 4.963 3.892a372.041 372.041 0 005.011 3.888c1.884 1.438 2.842 2.583 5.383 2.712 2.046.091 4.273.06 6.34.091 2.108.033 4.213.058 6.33.067 1.348.009 5.437.143 6.473-.049 1.815-.334 5.008-2.586 6.678-3.652 2.154-1.368 4.363-2.664 6.526-4.036 1.583-.996 5.177-2.822 6.242-4.072.922-1.086 1.57-4.174 2.01-5.649.57-1.899 1.1-3.819 1.669-5.718.582-1.915 1.104-3.85 1.686-5.766.853-2.798.547-3.574-.083-6.348-.516-2.237-.978-4.803-1.662-6.972-.785-2.447-1.98-4.981-2.931-7.38z" fill="#fff"/></svg>