<svg width="69" height="66" viewBox="0 0 69 66" fill="none" xmlns="http://www.w3.org/2000/svg">
<path fill-rule="evenodd" clip-rule="evenodd" d="M37.6419 63.6684C37.8303 63.2858 38.6682 63.2245 39.0861 63.1598C40.868 62.8603 49.4685 60.391 50.0566 60.6027C50.021 60.8655 50.1809 60.6341 49.8737 60.9335C49.8159 60.9799 49.6014 61.138 49.5316 61.18L47.1608 62.6187C44.306 64.3201 44.4663 64.6601 40.6493 64.1933C39.6347 64.0699 38.5916 63.9498 37.6419 63.6684ZM48.9972 53.1762C49.5091 54.0933 51.8823 57.5426 51.9394 58.2556C52.0231 59.321 50.7601 59.4107 50.0274 59.6108C48.3219 60.0722 37.1065 62.8705 36.6586 62.8504C35.5692 62.801 37.0966 61.3275 37.3258 61.0739C38.7517 59.4698 40.8239 56.8481 42.1969 55.5543C42.5248 55.2354 42.6013 54.9537 42.95 54.6154C43.2409 54.3235 43.4755 54.0181 43.7386 53.7095C44.2728 53.0885 44.8316 52.4561 45.3736 51.8513C46.937 50.095 47.3958 50.3073 48.9972 53.1762ZM55.3661 57.3451C55.1977 57.0088 56.7651 54.817 57.0473 54.401C57.3682 53.8981 57.7044 53.4275 58.0651 52.9457L62.5231 46.2958C62.7376 45.9898 62.8195 45.6563 63.2363 45.6316C63.4981 45.9545 63.3436 46.1341 63.2966 46.5205L63.0203 49.2108C62.9568 49.7527 62.8186 50.3684 62.7345 50.9297C62.5885 51.825 62.7075 51.7603 62.3111 52.6528C61.7085 53.9954 60.3663 54.4667 59.1981 55.2225C58.5853 55.6136 57.929 55.9755 57.3042 56.3623C56.848 56.6417 55.8604 57.4423 55.3661 57.3451ZM62.4941 44.7123C62.4994 45.1041 58.1093 51.3482 57.5231 52.2396C56.7088 53.4926 55.8012 54.759 54.9394 55.9746C54.5776 56.4964 54.0786 57.594 53.3934 57.6834C52.5827 57.7814 51.965 56.4498 51.6335 55.8733C50.6913 54.2971 49.6361 52.7139 48.6612 51.1528C48.1121 50.2627 48.1391 49.4321 49.1572 48.992C50.0651 48.5929 50.9778 48.3098 51.8961 47.9749C52.7368 47.6659 53.8935 47.3295 54.6382 46.9859C55.0229 46.8085 55.5526 46.6429 55.9564 46.506C56.4212 46.3507 56.8806 46.0993 57.3487 45.9721L61.474 44.4929C61.821 44.3624 62.4812 44.1564 62.4941 44.7123ZM64.1315 47.4464C64.1159 46.6946 64.545 44.0324 64.7579 43.3427C64.984 42.6174 65.0823 42.1285 65.453 41.4351C65.6145 41.1437 65.7892 40.8167 65.9388 40.521C66.007 40.3909 66.322 39.664 66.3886 39.5939C66.4381 39.9949 64.1916 47.3201 64.1315 47.4464ZM54.8657 28.6552C55.4387 28.0952 55.8814 28.8865 56.1235 29.3367L58.8535 34.3464C60.1508 36.3798 61.3077 38.8131 62.5252 40.9523C62.8529 41.5207 63.1528 41.9244 62.8848 42.5607C62.5354 43.3626 62.3958 43.2988 61.5588 43.6159C60.3912 44.056 59.1729 44.4307 58.0326 44.9075C56.9742 45.3465 55.6244 45.8016 54.5245 46.1315L50.9928 47.4749C47.5501 48.8167 47.7542 48.2986 49.0897 44.7057C49.4293 43.8196 49.8038 42.9865 50.0643 42.0383L52.9373 33.9707C53.1573 33.465 53.2518 33.1159 53.3594 32.5832C53.4282 32.2853 54.6665 28.8457 54.8657 28.6552ZM17.8542 60.16C17.9246 59.95 18.0899 59.9625 18.5629 60.0992L21.0907 60.727C21.6362 60.8697 22.2133 61.0372 22.767 61.176C23.0801 61.2484 23.2999 61.3343 23.6005 61.4224C23.8929 61.5142 24.194 61.5823 24.4384 61.6568C25.8643 62.103 28.5743 62.7158 29.4547 63.0194C29.8949 63.1712 30.8578 63.1213 31.0268 63.5855C30.665 63.8115 27.9788 63.9467 27.3023 64.0124C26.2368 64.1195 24.5941 64.3548 23.5828 64.1117C21.8568 63.7053 19.8831 61.8854 18.4001 60.7263C18.2774 60.635 18.1427 60.5394 18.0325 60.4326C17.9812 60.3872 17.87 60.1724 17.8542 60.16ZM32.589 62.6085C32.1262 62.9797 31.8257 62.7438 31.3238 62.6303C30.9747 62.5449 30.4489 62.4228 30.1123 62.3218C28.0575 61.6827 25.1308 61.0121 22.8338 60.3665C21.2104 59.903 19.5985 59.4637 17.9784 59.0282C17.1405 58.7938 16.0811 58.5333 16.7356 57.364C17.2246 56.478 20.57 52.3719 21.4601 51.153C21.792 50.6943 21.9693 50.4153 22.5744 50.3038C23.0212 50.216 23.4434 50.4352 23.7128 50.7742L28.2373 56.6318C28.3933 56.8358 28.5504 56.9999 28.7353 57.1808C28.9512 57.4064 28.991 57.5754 29.1819 57.8323L31.8698 61.2942C32.2357 61.7957 32.5542 61.9641 32.589 62.6085ZM35.5749 61.8619C35.2153 62.3038 34.5163 62.5967 33.9529 62.3736C33.4854 62.1851 33.0874 61.5309 32.7912 61.1352L29.384 56.8026C29.029 56.3454 28.6473 55.6836 28.2907 55.2863C27.5146 54.422 26.6552 53.3597 25.9948 52.4026L24.8633 50.9532C24.5115 50.524 23.9596 49.8816 24.5811 49.4668C25.0667 49.1442 28.5505 49.3902 29.5111 49.4202C30.1003 49.4441 30.5951 49.3735 31.1843 49.3975C33.379 49.5087 35.5655 49.4759 37.7618 49.5273C38.8278 49.5481 40.0209 49.6483 41.0634 49.6405C42.1746 49.6306 43.2739 49.6163 44.3879 49.6544C46.8542 49.7291 44.1936 51.8633 43.2096 53.1157C42.1547 54.4501 41.1452 55.31 39.9554 56.8446C39.306 57.6863 38.4509 58.5145 37.7611 59.3551C37.0505 60.2152 36.2811 61.0137 35.5749 61.8619ZM34.4872 34.1035C35.6199 33.4626 36.5757 35.279 37.0534 35.9753C37.7715 37.0339 38.6048 38.1675 39.372 39.2034C40.9578 41.3205 42.4268 43.5704 43.9919 45.707C44.4123 46.2819 44.7253 46.7979 45.1741 47.3696C46.9105 49.5947 42.6075 48.731 41.3615 48.7933C39.14 48.9211 36.6476 48.6219 34.3917 48.6768C33.2477 48.7019 32.0498 48.6335 30.9031 48.6105C29.74 48.595 28.5796 48.4798 27.4225 48.5404C26.8279 48.5683 26.2322 48.4882 25.6501 48.5005C23.2972 48.5608 24.4711 47.1617 25.1925 46.3459C25.4637 46.0335 25.8616 45.3768 26.1552 44.9851C27.1523 43.6971 33.9825 34.3856 34.4872 34.1035ZM65.0584 39.9216C64.8191 39.3716 65.2158 37.2961 65.3022 36.6549L65.7897 31.8761C65.9068 30.7082 65.9272 27.9191 66.3437 27.175C66.6453 27.371 67.2413 30.3686 67.3241 30.7345C68.0317 34.2228 68.0732 34.0361 66.5846 37.1772L65.8395 38.5559C65.6392 38.9342 65.436 39.708 65.0584 39.9216ZM56.7462 26.6837C57.0763 26.4329 64.0336 24.5147 64.6838 24.6681C65.7077 24.8956 65.486 25.7569 65.4127 26.5103C65.1264 29.5601 64.8953 32.6632 64.5327 35.6989C64.4468 36.468 64.3811 37.2375 64.3035 38.0028C64.0584 40.2943 64.211 42.3727 62.5541 39.3224C60.7052 35.9072 58.6267 32.3219 56.817 28.9478C56.437 28.2261 55.8966 27.3122 56.7462 26.6837ZM50.0994 28.4784C50.747 28.2881 51.3324 28.1561 51.9729 27.9296C52.3974 27.7732 53.3931 27.4124 53.7591 27.766C54.3023 28.2843 53.4704 29.8805 53.1564 30.8632C52.9844 31.3861 52.7498 31.6915 52.5712 32.3061L50.8212 37.5984C50.7087 37.8672 50.6155 37.7327 50.4756 38.2605C49.9426 40.3004 49.0637 42.283 48.3703 44.2786C48.1246 44.9834 47.6647 46.7135 47.3023 47.2552C46.8559 47.9146 46.1615 47.4562 45.8485 46.9402L40.233 39.0428C39.4875 38.0954 38.7197 36.9316 37.9917 35.9367C37.3183 35.0153 36.0056 33.541 36.7052 32.6367C37.1369 32.0728 43.2141 30.5704 44.356 30.1817C46.0976 29.5853 48.2461 29.0278 50.0994 28.4784ZM16.5705 27.3563C17.0333 26.8373 17.7434 27.3081 18.2649 27.4421L22.8895 28.946C24.9383 29.6568 27.0592 30.2457 29.1119 30.9646C30.1199 31.3276 31.2212 31.6771 32.2429 31.9845C33.7539 32.421 34.1482 33.0671 33.1374 34.4107L24.9724 45.2448C24.771 45.5152 24.5621 45.6214 24.3798 45.9322C22.3717 49.3031 22.0446 44.9099 21.222 42.8054C20.7238 41.537 19.1291 36.526 18.6702 35.0028C18.4696 34.3659 18.1949 33.6351 18.0385 33.0074L16.7958 29.145C16.659 28.6856 16.1825 27.8015 16.5705 27.3563ZM36.2362 13.7796C36.7574 13.1941 37.3879 13.7707 37.8427 14.1227L52.7947 25.3819C54.5995 26.7376 51.5373 27.1744 50.7053 27.4597C49.5917 27.8452 47.9784 28.3332 46.8354 28.614C45.538 28.9267 44.2117 29.4104 42.9012 29.7587C41.6557 30.0967 40.2824 30.5232 39.0319 30.893C38.1072 31.1718 36.0393 32.175 35.6098 30.7566C35.4839 30.3415 35.8166 21.3659 35.8518 20.5316C35.8788 19.5531 35.8411 17.9934 35.9668 17.0975C36.0713 16.3889 35.8526 14.2128 36.2362 13.7796ZM21.1205 50.2845L17.9868 54.3324C17.4678 54.9858 16.8337 55.712 16.3513 56.3584C15.7133 57.2245 14.951 57.6155 14.2624 56.5138C13.7127 55.6437 13.1669 54.7816 12.638 53.892C11.5916 52.1372 10.4427 50.4395 9.42087 48.6733C8.90397 47.7881 8.29924 46.8645 7.76215 45.9787C7.41809 45.4178 6.28984 43.8486 6.38657 43.2717C6.90273 43.0139 7.02163 43.097 7.59273 43.3363L20.2057 48.3014C21.1777 48.6514 21.7547 49.2625 21.1205 50.2845ZM12.921 56.2258C12.5396 56.2834 11.3338 55.1837 10.9902 54.8986C8.62366 52.9642 7.09463 52.5951 6.13377 49.4997C5.86671 48.6372 5.61768 47.7072 5.31352 46.8717C5.0546 46.1533 5.08683 46.0103 4.97786 45.5677C4.88686 45.2055 4.8562 45.5844 4.77177 45.1305C4.56154 43.9658 3.02929 39.7638 3.07361 39.3293L4.2529 41.6833C5.27412 43.6173 6.92088 46.1598 8.05502 48.1008C9.11991 49.9161 12.7685 55.3104 12.921 56.2258ZM55.1031 10.2609C55.6551 10.3117 56.5057 11.6936 56.8564 12.1627C58.3751 14.2221 60.2511 16.511 61.6738 18.5358C62.1869 19.265 64.6944 22.2384 64.698 22.838C64.714 24.0135 62.4582 24.2163 61.4565 24.501L57.4558 25.5678C56.6052 25.7927 55.6554 25.8069 55.4184 24.7334C55.2239 23.8769 55.3012 20.9334 55.2175 19.868L54.8694 12.5766C54.8538 11.9727 54.5912 10.6547 55.1031 10.2609ZM60.3481 12.9965C61.8366 13.956 62.3626 15.389 62.9743 16.9403C63.1819 17.4655 64.2085 19.7913 64.1588 20.1297C63.7414 20.0265 62.6307 18.4098 62.2686 17.9164C61.7473 17.1909 56.9843 11.187 56.985 10.7234C57.1481 10.8157 57.3887 10.8822 57.5758 10.9831C58.0732 11.2564 59.6892 12.571 60.3481 12.9965ZM14.6004 28.0385C15.3184 27.4904 15.5883 28.1052 15.8211 28.7469L17.0152 32.4642C17.212 33.093 17.34 33.7239 17.5613 34.3414C17.9586 35.4592 18.5599 36.9462 18.7991 38.0878C18.9385 38.743 19.8315 40.9333 20.0189 41.7537C20.6803 44.7212 23.1101 48.6077 20.2687 47.4837L15.9267 45.6918C15.5913 45.5508 15.4636 45.6393 14.49 45.2013C13.1454 44.5894 10.3411 43.5864 8.75429 42.968C5.35327 41.6291 5.36586 41.4656 7.42669 38.5238C8.62083 36.8295 9.76103 34.8939 10.9977 33.2687C11.6892 32.3682 14.1671 28.3665 14.6004 28.0385ZM4.65434 23.6371C5.05656 23.1164 5.38986 23.1893 5.96699 23.3568C6.37556 23.4838 6.76941 23.5583 7.15725 23.7047L11.9684 25.3295C14.799 26.1134 14.3552 26.9687 12.9133 29.004L10.6909 32.2373C10.5233 32.6004 10.2346 32.9603 10.0108 33.31C9.43664 34.2057 5.83611 39.6518 5.48368 39.6862C4.85957 39.7573 4.96989 37.5181 4.9542 37.0621C4.925 36.218 4.92149 35.1748 4.83936 34.3452C4.75452 33.4677 4.81262 32.534 4.76052 31.6413C4.66169 30.0999 4.67389 27.6103 4.50683 26.199C4.42465 25.5173 4.23957 24.1734 4.65434 23.6371ZM33.8397 13.8107C35.5836 12.6908 35.2566 15.02 35.1925 16.0255C35.1207 17.1626 35.1133 18.3094 35.0775 19.4595C35.0228 21.7322 34.8557 24.1257 34.8741 26.3843C34.8852 27.4437 34.8434 28.8135 34.7536 29.8702C34.701 30.6041 34.8236 30.9911 34.0216 31.3611C33.3712 31.6513 32.9938 31.4213 32.3659 31.1885C30.3471 30.4145 28.0871 29.8898 26.0438 29.1272C24.0004 28.3645 21.8059 27.8096 19.7467 27.0345C19.1789 26.8233 16.4142 26.4329 17.2486 25.3284C17.4877 25.0111 20.0189 23.321 20.5073 23.0464L23.8325 20.6943C24.389 20.2897 25.0525 19.9639 25.5687 19.5582C26.1013 19.145 26.5875 18.8024 27.1473 18.4258L30.5161 16.1029C31.429 15.3762 32.8401 14.4591 33.8397 13.8107ZM46.0837 19.2614C45.661 18.9143 44.0449 17.8954 43.4646 17.4041C43.0108 17.0122 42.7431 16.7611 42.2271 16.4274C41.3178 15.8513 40.5227 15.0944 39.6587 14.4876C39.1477 14.122 37.1164 12.9201 37.6011 12.1938C37.8243 11.8641 40.5276 11.4056 41.0557 11.3C41.6771 11.1809 42.2538 11.0726 42.8708 10.9654C43.4349 10.8727 44.0105 10.6565 44.6194 10.553C46.9168 10.1635 49.41 9.55543 51.714 9.07415C52.4292 8.92163 52.6677 8.7722 53.3391 9.18203C53.9391 9.54596 53.9455 10.0457 53.9889 10.6664C54.0601 11.7474 54.0532 12.8743 54.1162 13.9591L54.5262 23.834C54.579 25.8698 53.4413 24.9358 52.5011 24.167C50.8534 22.8275 49.0415 21.5835 47.36 20.2991C46.9051 19.9471 46.5179 19.6329 46.0837 19.2614ZM17.4523 8.29995C18.027 7.53213 19.8903 8.22996 20.6562 8.43851L32.9773 11.6851C35.132 12.219 33.0062 13.4165 32.2243 13.9349C30.1045 15.3564 27.971 16.8334 25.8899 18.3159C23.7842 19.8097 21.5924 21.2053 19.5101 22.7277C15.5268 25.6495 15.8914 25.0279 16.1217 21.2253C16.1497 20.7984 16.2164 19.9889 16.2804 19.5749L16.9053 11.4306C16.9519 10.6205 16.9906 8.92694 17.4523 8.29995ZM36.4007 1.82589C37.0168 1.1671 38.0575 1.9586 38.7874 2.15418C39.449 2.33194 40.3812 2.80876 41.0232 3.11387C41.7411 3.45301 42.5773 3.74739 43.3197 4.0752C44.0184 4.37386 44.9315 4.66232 45.573 4.98741L50.1277 6.8291C50.5068 6.99921 52.6544 7.64478 51.783 8.18476C51.5156 8.35738 49.4125 8.73617 48.9329 8.83911C47.994 9.04554 47.0021 9.26653 46.0556 9.45677C45.1701 9.62867 44.1188 9.80808 43.2606 10.0167L37.5878 11.2142C36.3684 11.3332 36.0998 10.3827 36.0864 9.40313C36.0845 8.59574 36.0346 7.6232 36.0763 6.84497C36.1301 5.77531 35.7513 2.51975 36.4007 1.82589ZM3.97552 38.8541C3.51573 38.534 2.30548 35.6916 1.96583 34.971C1.41628 33.8051 1.12149 32.6301 1.44972 31.4239C1.79215 30.1423 2.54342 28.1003 2.89238 26.8747C3.05348 26.3076 3.2059 25.6162 3.54853 25.4976C3.83531 26.0849 3.9687 34.2737 4.03705 35.6025C4.06363 36.1028 4.30565 38.6033 3.97552 38.8541ZM47.237 2.81022C48.2471 3.68482 50.5585 5.41792 51.1066 6.2001C50.7656 6.25882 48.5745 5.28835 48.0753 5.07503C47.5921 4.87412 47.033 4.63919 46.5606 4.48254C45.9 4.26485 44.2533 3.47695 43.6254 3.24416C43.0096 3.01569 39.4389 1.6762 39.2802 1.27624C39.5099 1.29844 39.8427 1.24349 40.092 1.28619C41.548 1.52139 44.8741 1.62328 45.7877 2.03965L46.5252 2.3993C46.8317 2.56346 46.9452 2.55054 47.237 2.81022ZM15.9846 9.0756C16.404 9.54256 16.2146 9.81721 16.1789 10.3758L15.863 14.356C15.7954 15.9248 15.65 16.948 15.5508 18.3442C15.5273 18.7592 15.412 19.2757 15.4228 19.6157C15.4509 20.4997 15.317 21.3994 15.2643 22.2812C15.221 23.1193 15.2119 24.3261 14.7312 24.7647C13.9858 25.424 12.9352 24.8441 12.1394 24.5508C11.0435 24.1495 8.07442 23.2619 7.29333 22.8731C6.55642 22.4935 5.27605 22.4828 5.43241 21.356C5.52974 20.6112 11.2848 14.3881 12.3043 13.0208C12.8539 12.2843 13.4705 11.6055 14.0752 10.9224C14.5669 10.3802 15.2377 9.20329 15.9846 9.0756ZM35.1921 2.87633C35.2227 4.54777 35.3056 6.22463 35.2713 7.90631C35.2222 9.83139 35.855 11.7869 32.8788 10.8631L21.2876 7.81211C20.699 7.62034 19.3603 7.5282 19.1433 6.89885C19.4288 6.36302 23.9681 4.95898 24.8165 4.66617L30.6347 2.59328C33.1095 1.7769 35.1508 0.42124 35.1921 2.87633ZM5.57101 19.4094C5.34746 19.0196 6.28968 16.9388 6.47859 16.3884C7.60558 13.0297 7.70986 12.7647 10.629 11.0731C11.3105 10.6798 13.7168 9.12621 14.2683 9.19707C14.1345 9.65308 13.591 10.1699 13.2903 10.5255C12.5896 11.3219 6.28469 19.021 5.57101 19.4094ZM19.8361 5.36686C19.8787 4.99232 20.725 4.48364 21.0475 4.21658C21.4939 3.85296 21.9768 3.48233 22.4351 3.12303C23.6902 2.14978 23.9243 1.71647 25.6096 1.25444C26.6271 0.982195 29.2517 1.03315 30.5337 0.983875C30.8976 0.973727 31.8207 0.754879 32.0492 1.11276C31.1926 1.55722 29.8831 2.01342 28.9409 2.33967C27.9905 2.66968 20.3047 5.51541 19.8361 5.36686ZM63.7998 16.3031C62.4964 13.0306 62.0174 13.1135 59.3569 11.1472C57.6863 9.90703 55.9693 8.73755 54.3281 7.45421C52.6554 6.14604 51.0377 4.74344 49.3862 3.39588C47.5209 1.89066 46.4809 0.931319 43.9737 0.727662C41.8854 0.567303 39.8315 0.331936 37.7444 0.13164C35.5121 -0.0805717 26.5795 -0.0702251 24.7965 0.41714C23.4735 0.781048 22.5731 1.49211 21.4813 2.26193C20.4925 2.95461 19.4482 3.61382 18.4436 4.29408C16.4346 5.65461 14.4451 7.03565 12.4202 8.38375C5.79392 12.8008 7.01248 11.5389 4.55666 18.2509C3.88346 20.0991 3.22879 22.0078 2.63578 23.8783C2.02967 25.7843 1.40337 27.6898 0.821255 29.6044C-0.03387 32.3351 -0.369553 32.9335 0.544451 35.8238C2.03892 40.5164 3.51536 45.2764 4.90835 49.9862C5.80212 53.0238 6.8647 53.4602 9.16523 55.2969C10.8096 56.6083 12.471 57.8922 14.1279 59.188C15.7805 60.4956 17.4576 61.7919 19.1391 63.0763C21.0225 64.5141 21.9806 65.659 24.5222 65.7877C26.568 65.879 28.7949 65.8472 30.8624 65.8791C32.9704 65.9121 35.0745 65.937 37.1912 65.9463C38.5403 65.9548 42.6291 66.0893 43.6646 65.8974C45.4797 65.5628 48.6728 63.3111 50.3425 62.2451C52.4972 60.8765 54.7065 59.5814 56.8694 58.209C58.4523 57.2127 62.0457 55.3874 63.1105 54.1372C64.0333 53.0511 64.6801 49.9631 65.1208 48.4883C65.6904 46.5892 66.2201 44.6692 66.7897 42.7701C67.3718 40.8555 67.8939 38.9192 68.476 37.0045C69.329 34.2059 69.0232 33.4303 68.3928 30.6555C67.8768 28.4194 67.4145 25.853 66.731 23.6843C65.9462 21.2371 64.7516 18.7029 63.7998 16.3031Z" fill="white"/>
</svg>
