<svg width="49" height="22" fill="none" xmlns="http://www.w3.org/2000/svg"><g clip-path="url(#clip0)"><g clip-path="url(#clip1)" fill="#fff"><path d="M15.555 8.236h-9.15a.458.458 0 00-.457.457v7.32c0 1.105.787 2.028 1.83 2.241v2.334c0 .756.616 1.372 1.372 1.372.757 0 1.373-.616 1.373-1.372V18.3h.915v2.288c0 .756.615 1.372 1.372 1.372.757 0 1.372-.616 1.372-1.372v-2.334a2.29 2.29 0 001.83-2.241v-7.32a.457.457 0 00-.457-.457zM13.375 2.438l.771-1.8a.457.457 0 10-.84-.36l-.772 1.801a5.012 5.012 0 00-1.553-.248c-.541 0-1.063.09-1.552.248L8.656.28a.457.457 0 10-.84.36l.771 1.799a5.036 5.036 0 00-2.639 4.426c0 .252.205.457.458.457h9.15a.458.458 0 00.457-.457 5.037 5.037 0 00-2.638-4.426zM9.151 5.491a.458.458 0 110-.915.458.458 0 010 .915zm3.66 0a.458.458 0 110-.915.458.458 0 010 .915zM18.3 8.236c-.757 0-1.373.616-1.373 1.372v4.575c0 .757.616 1.372 1.373 1.372.756 0 1.372-.615 1.372-1.372V9.608c0-.756-.616-1.372-1.372-1.372zM3.66 8.236c-.756 0-1.372.616-1.372 1.372v4.575c0 .757.616 1.372 1.373 1.372s1.372-.615 1.372-1.372V9.608c0-.756-.615-1.372-1.372-1.372z"/></g></g><g clip-path="url(#clip2)" fill="#fff"><path d="M34.906 21.96c-3.268-.019-5.972-6.69-5.972-10.089 0-5.55 4.164-6.765 5.768-6.765.724 0 1.496.284 2.177.535.476.176.969.357 1.242.357.164 0 .55-.154.892-.29.728-.289 1.633-.649 2.687-.649h.006c.788 0 3.175.173 4.61 2.328l.336.505-.484.365c-.691.521-1.952 1.473-1.952 3.357 0 2.232 1.428 3.09 2.114 3.503.303.182.616.37.616.78 0 .269-2.14 6.03-5.25 6.03-.761 0-1.299-.23-1.773-.43-.48-.205-.894-.381-1.579-.381-.346 0-.785.164-1.25.338-.634.237-1.352.506-2.167.506h-.021zM42.03 0c.08 2.92-2.007 4.945-4.093 4.818C37.593 2.488 40.023 0 42.03 0z"/></g><defs><clipPath id="clip0"><path fill="#fff" d="M0 0h21.96v21.96H0z"/></clipPath><clipPath id="clip1"><path fill="#fff" d="M0 0h21.96v21.96H0z"/></clipPath><clipPath id="clip2"><path fill="#fff" d="M26.96 0h21.96v21.96H26.96z"/></clipPath></defs></svg>