<svg width="48" height="48" viewBox="0 0 48 48" fill="none" xmlns="http://www.w3.org/2000/svg">
<g clip-path="url(#clip0)">
<path d="M12.2098 12.9626L8.0513 13.2839C6.89416 13.3733 5.86357 13.9798 5.22364 14.9477L0.427708 22.2013C-0.0576324 22.9353 -0.134788 23.854 0.221178 24.6587C0.577238 25.4635 1.30895 26.0243 2.17847 26.159L5.9861 26.7487C6.87681 22.0219 9.00905 17.3066 12.2098 12.9626Z" fill="#AEAEAE"/>
<path d="M21.251 42.0138L21.8408 45.8215C21.9755 46.691 22.5363 47.4227 23.3409 47.7787C23.6757 47.9268 24.0301 47.9999 24.3827 47.9999C24.8779 47.9999 25.3698 47.8556 25.7985 47.5721L33.0522 42.7763C34.0202 42.1363 34.6266 41.1056 34.7159 39.9486L35.0372 35.7901C30.693 38.991 25.9779 41.1232 21.251 42.0138Z" fill="#AEAEAE"/>
<path d="M19.8189 39.3748C19.9511 39.3748 20.0841 39.3639 20.2167 39.3418C22.1971 39.0107 24.1058 38.4529 25.9266 37.7227L10.2771 22.0732C9.54693 23.8939 8.98913 25.8026 8.658 27.7831C8.5275 28.5637 8.78935 29.359 9.34894 29.9187L18.0811 38.6509C18.5457 39.1154 19.1728 39.3748 19.8189 39.3748Z" fill="#AEAEAE"/>
<path d="M44.173 21.2814C48.0026 13.8776 48.1444 6.05367 47.9443 2.38433C47.8757 1.12705 46.8734 0.124687 45.616 0.0561558C45.0186 0.0235311 44.3105 0 43.5124 0C39.4093 0 32.9171 0.621464 26.719 3.82741C21.7932 6.37523 15.3342 11.9853 11.5234 19.3579C11.5684 19.3931 11.6124 19.4304 11.6538 19.4718L28.5287 36.3467C28.5701 36.3881 28.6074 36.432 28.6425 36.477C36.0152 32.6662 41.6252 26.2071 44.173 21.2814ZM27.9094 10.1474C30.6507 7.4061 35.1114 7.40582 37.8529 10.1474C39.181 11.4754 39.9123 13.2411 39.9123 15.1192C39.9123 16.9973 39.181 18.7631 37.8529 20.091C36.4824 21.4616 34.6815 22.147 32.8812 22.1471C31.0804 22.1472 29.2803 21.4619 27.9094 20.091C26.5814 18.7631 25.8499 16.9973 25.8499 15.1192C25.8499 13.2411 26.5814 11.4754 27.9094 10.1474Z" fill="#AEAEAE"/>
<path d="M29.8977 18.1024C31.5426 19.7472 34.2191 19.7473 35.864 18.1024C36.6608 17.3055 37.0996 16.2461 37.0996 15.1192C37.0996 13.9924 36.6608 12.933 35.864 12.1362C35.0416 11.3137 33.9612 10.9026 32.8809 10.9026C31.8006 10.9026 30.7202 11.3137 29.8978 12.1362C29.101 12.933 28.6621 13.9924 28.6621 15.1192C28.6621 16.2461 29.101 17.3056 29.8977 18.1024Z" fill="#AEAEAE"/>
<path d="M1.43462 39.5564C1.79452 39.5564 2.15443 39.4191 2.42893 39.1444L7.02015 34.5532C7.56934 34.004 7.56934 33.1137 7.02015 32.5645C6.47106 32.0153 5.58062 32.0153 5.03143 32.5645L0.440211 37.1557C-0.108977 37.7049 -0.108977 38.5952 0.440211 39.1444C0.714805 39.419 1.07471 39.5564 1.43462 39.5564Z" fill="#AEAEAE"/>
<path d="M11.2276 36.7721C10.6785 36.2229 9.78811 36.2229 9.23892 36.7721L0.411891 45.5992C-0.137297 46.1483 -0.137297 47.0387 0.411891 47.5879C0.686484 47.8625 1.04639 47.9997 1.4063 47.9997C1.7662 47.9997 2.12611 47.8625 2.40061 47.5878L11.2275 38.7608C11.7768 38.2117 11.7768 37.3213 11.2276 36.7721Z" fill="#AEAEAE"/>
<path d="M13.4464 40.9797L8.85525 45.5709C8.30606 46.1201 8.30606 47.0104 8.85525 47.5596C9.12984 47.8342 9.48975 47.9715 9.84956 47.9715C10.2094 47.9715 10.5694 47.8343 10.8439 47.5596L15.4351 42.9684C15.9843 42.4192 15.9843 41.5288 15.4351 40.9797C14.886 40.4305 13.9956 40.4305 13.4464 40.9797Z" fill="#AEAEAE"/>
</g>
<defs>
<clipPath id="clip0">
<rect width="48" height="48" fill="white"/>
</clipPath>
</defs>
</svg>
