<svg width="48" height="48" viewBox="0 0 48 48" fill="none" xmlns="http://www.w3.org/2000/svg">
<g clip-path="url(#clip0)">
<path d="M24.8574 47.9715C28.528 47.45 31.7458 43.619 33.7706 37.9613C30.8435 37.3058 27.8565 36.9539 24.8574 36.912V47.9715Z" fill="#AEAEAE"/>
<path d="M30.7222 47.0719C30.9391 47.0091 31.1553 46.9458 31.3697 46.8763C31.5507 46.8181 31.7291 46.7552 31.9076 46.6928C32.1187 46.6199 32.3289 46.545 32.5384 46.4654C32.7168 46.3975 32.8936 46.3255 33.0708 46.2534C33.2752 46.1676 33.4792 46.0821 33.6811 45.9963C33.8574 45.9188 34.0325 45.8375 34.2076 45.7558C34.4057 45.6624 34.603 45.5673 34.7986 45.4685C34.9703 45.3809 35.1417 45.2917 35.3134 45.2C35.5057 45.0969 35.6967 44.9918 35.8864 44.8837C36.0581 44.7866 36.2236 44.689 36.3907 44.5884C36.5767 44.4741 36.7618 44.3597 36.9457 44.2454C37.1103 44.1407 37.2745 44.0343 37.4366 43.9245C37.6176 43.8026 37.796 43.6757 37.9736 43.5488C38.1332 43.4344 38.292 43.3205 38.4478 43.2057C38.6195 43.0734 38.7955 42.9364 38.9676 42.799C39.1205 42.6771 39.273 42.5561 39.4233 42.4308C39.5947 42.2884 39.7589 42.141 39.9252 41.9935C40.0709 41.8641 40.2175 41.7359 40.3599 41.6031C40.5237 41.4502 40.6833 41.2919 40.8429 41.1348C40.9811 40.9983 41.121 40.8638 41.2563 40.7239C41.2815 40.698 41.3053 40.6699 41.3313 40.6431C39.4602 39.6767 37.4894 38.9182 35.4533 38.3812C34.3944 41.7581 32.5099 44.8184 29.9707 47.2839C30.0402 47.2658 30.1098 47.2512 30.1793 47.2332C30.3628 47.1817 30.5429 47.1251 30.7222 47.0719Z" fill="#AEAEAE"/>
<path d="M48.0002 24.8775H37.7145C37.6755 28.8936 37.0928 32.8859 35.9824 36.7458C38.2468 37.3506 40.4321 38.2202 42.4929 39.3365C45.8766 35.2583 47.8134 30.1737 48.0002 24.8775Z" fill="#AEAEAE"/>
<path d="M24.8574 23.162H35.9981C35.9546 19.2878 35.3862 15.4376 34.3093 11.7159C31.2071 12.4234 28.0388 12.8012 24.8574 12.8431V23.162Z" fill="#AEAEAE"/>
<path d="M24.8574 0.0677338V11.1272C27.8565 11.0849 30.8435 10.7334 33.7706 10.0779C31.7458 4.42022 28.528 0.589228 24.8574 0.0677338Z" fill="#AEAEAE"/>
<path d="M24.8574 35.1963C28.0388 35.2386 31.2071 35.6165 34.3093 36.3239C35.3862 32.6023 35.9546 28.7516 35.9981 24.8775H24.8574V35.1963Z" fill="#AEAEAE"/>
<path d="M42.4929 8.70284C40.4321 9.81913 38.2468 10.6887 35.9824 11.2936C37.0928 15.1534 37.6755 19.1457 37.7145 23.1618H48.0002C47.813 17.8661 45.8762 12.7814 42.4929 8.70284Z" fill="#AEAEAE"/>
<path d="M41.3341 7.40144C41.309 7.37589 41.2851 7.34824 41.2604 7.32186C41.1247 7.18195 40.984 7.04708 40.8457 6.91094C40.6866 6.75387 40.5278 6.59511 40.3636 6.44265C40.2216 6.31028 40.0746 6.18504 39.9288 6.0531C39.7625 5.90565 39.5962 5.75695 39.4253 5.61454C39.2771 5.4893 39.125 5.3695 38.9742 5.24928C38.8025 5.11022 38.6266 4.97199 38.4498 4.83921C38.2948 4.72234 38.1377 4.60925 37.9798 4.49615C37.8005 4.36714 37.6204 4.23855 37.4378 4.11582C37.2774 4.00775 37.1144 3.90219 36.9515 3.79873C36.7659 3.67935 36.5808 3.56249 36.3919 3.44939C36.2264 3.35012 36.0593 3.25211 35.8917 3.15702C35.6999 3.04728 35.5076 2.94088 35.3137 2.837C35.142 2.75114 34.9706 2.65773 34.7989 2.57186C34.6016 2.47217 34.4026 2.37625 34.1987 2.282C34.0269 2.20032 33.8527 2.12074 33.6759 2.04324C33.4728 1.95319 33.2675 1.87193 33.0627 1.78606C32.8859 1.71401 32.71 1.6428 32.5315 1.57495C32.3234 1.49536 32.1123 1.4208 31.9011 1.34792C31.7227 1.28509 31.5443 1.22268 31.3633 1.16403C31.1489 1.0945 30.9344 1.03125 30.7141 0.967584C30.5356 0.915225 30.3563 0.862029 30.1758 0.814278C30.1067 0.795428 30.0363 0.780768 29.9668 0.762756C32.506 3.22823 34.3901 6.28808 35.4494 9.66544C37.4876 9.12844 39.4614 8.36945 41.3341 7.40144Z" fill="#AEAEAE"/>
<path d="M0 23.1618H10.2858C10.3247 19.1457 10.9074 15.1534 12.0174 11.2936C9.75341 10.6891 7.56816 9.81954 5.50731 8.70284C2.12368 12.781 0.186816 17.8661 0 23.1618Z" fill="#AEAEAE"/>
<path d="M23.1426 47.9715V36.912C20.1435 36.9543 17.1566 37.3058 14.2295 37.9613C16.2539 43.619 19.4721 47.45 23.1426 47.9715Z" fill="#AEAEAE"/>
<path d="M23.1427 24.8775H12.002C12.0455 28.7516 12.6135 32.6023 13.6908 36.3239C16.793 35.616 19.9609 35.2382 23.1427 35.1963V24.8775Z" fill="#AEAEAE"/>
<path d="M23.1426 0.0677338C19.4721 0.589228 16.2539 4.42022 14.2295 10.0779C17.1566 10.7339 20.1435 11.0853 23.1426 11.1272V0.0677338Z" fill="#AEAEAE"/>
<path d="M23.1427 12.8431C19.9613 12.8012 16.793 12.4234 13.6908 11.7159C12.6135 15.4376 12.0455 19.2878 12.002 23.162H23.1427V12.8431Z" fill="#AEAEAE"/>
<path d="M18.0271 0.761932C17.9575 0.779944 17.888 0.794604 17.8185 0.812616C17.6367 0.861205 17.4574 0.915239 17.2764 0.967598C17.0611 1.03043 16.8475 1.09368 16.6314 1.16237C16.4492 1.22143 16.2699 1.28426 16.0906 1.34668C15.8808 1.42082 15.6705 1.49454 15.4627 1.57329C15.2835 1.64198 15.1067 1.71319 14.9291 1.78607C14.7251 1.87194 14.5207 1.95781 14.3192 2.04326C14.1424 2.12075 13.9678 2.20201 13.7927 2.28369C13.5946 2.3771 13.3973 2.47218 13.2017 2.57104C13.0299 2.65858 12.8582 2.74822 12.6869 2.83953C12.4946 2.94257 12.304 3.04813 12.1147 3.1562C11.943 3.25212 11.7741 3.35055 11.6087 3.45108C11.4223 3.56334 11.238 3.67937 11.0545 3.79414C10.8895 3.89969 10.7257 4.00609 10.5636 4.11583C10.3827 4.23772 10.2042 4.36464 10.0266 4.49156C9.86703 4.60591 9.70828 4.71984 9.55204 4.83503C9.37653 4.96698 9.20898 5.10437 9.03222 5.24134C8.87975 5.36323 8.72602 5.48428 8.5769 5.61036C8.40517 5.75194 8.24223 5.89855 8.07677 6.04515C7.93017 6.17584 7.78231 6.30276 7.63905 6.43805C7.47611 6.5901 7.31736 6.74802 7.15819 6.90467C7.01996 7.04123 6.87922 7.1761 6.7435 7.31642C6.71879 7.34239 6.69492 7.37088 6.66895 7.39727C8.53962 8.36402 10.5108 9.12259 12.547 9.65959C13.6059 6.28433 15.4891 3.22615 18.0271 0.761932Z" fill="#AEAEAE"/>
<path d="M7.15413 41.1284C7.31372 41.2855 7.47248 41.4442 7.63625 41.5971C7.77867 41.7291 7.92528 41.8543 8.07146 41.9863C8.23775 42.1341 8.40404 42.2824 8.57494 42.4248C8.72322 42.5492 8.87444 42.6694 9.02607 42.7901C9.1978 42.9291 9.36912 43.0674 9.55091 43.201C9.70548 43.317 9.86255 43.4293 10.0196 43.5445C10.1989 43.673 10.3799 43.8016 10.5625 43.9252C10.7229 44.0333 10.8859 44.1388 11.0488 44.2427C11.2344 44.3617 11.4195 44.4785 11.6084 44.5916C11.7739 44.6913 11.941 44.7889 12.1085 44.8844C12.3004 44.9942 12.4926 45.1006 12.6866 45.204C12.8579 45.2899 13.0296 45.3833 13.2014 45.4692C13.3987 45.5689 13.5976 45.6648 13.8016 45.7594C13.9734 45.8403 14.1476 45.9199 14.3244 45.9978C14.5275 46.0878 14.7323 46.1691 14.9376 46.255C15.1144 46.327 15.2903 46.3982 15.4687 46.4661C15.6769 46.5461 15.888 46.6206 16.0991 46.6935C16.2776 46.7559 16.456 46.8188 16.637 46.877C16.8514 46.9465 17.0659 47.0102 17.2862 47.0734C17.4646 47.1258 17.6439 47.179 17.824 47.2272C17.8936 47.246 17.9639 47.2607 18.0335 47.2787C15.4943 44.8128 13.6102 41.7529 12.5509 38.3756C10.5147 38.913 8.54353 39.6716 6.67285 40.6388C6.69798 40.6643 6.72186 40.6919 6.74699 40.7183C6.87559 40.8574 7.01423 40.9923 7.15413 41.1284Z" fill="#AEAEAE"/>
<path d="M5.50731 39.3365C7.56816 38.2202 9.75341 37.3506 12.0174 36.7458C10.9074 32.8859 10.3247 28.8936 10.2858 24.8775H0C0.187235 30.1732 2.12368 35.2579 5.50731 39.3365Z" fill="#AEAEAE"/>
</g>
<defs>
<clipPath id="clip0">
<rect width="48" height="48" fill="white"/>
</clipPath>
</defs>
</svg>
